<?xml version="1.0" encoding="utf-8"?>
<!-- Generator: Adobe Illustrator 24.1.0, SVG Export Plug-In . SVG Version: 6.00 Build 0)  -->
<svg version="1.1" id="Layer_1" xmlns="http://www.w3.org/2000/svg" xmlns:xlink="http://www.w3.org/1999/xlink" x="0px" y="0px"
	 viewBox="0 0 390 245" style="enable-background:new 0 0 390 245;" xml:space="preserve">
<style type="text/css">
	.st0{fill:url(#SVGID_1_);}
	.st1{fill:#FF5F00;}
	.st2{fill:#EB001B;}
	.st3{fill:#F79E1B;}
</style>
<linearGradient id="SVGID_1_" gradientUnits="userSpaceOnUse" x1="269.229" y1="515.2549" x2="124.0422" y2="815.2924" gradientTransform="matrix(1 0 0 1 0 -547)">
	<stop  offset="0" style="stop-color:#203749"/>
	<stop  offset="0.3343" style="stop-color:#243B4D"/>
	<stop  offset="0.5272" style="stop-color:#324758"/>
	<stop  offset="0.8301" style="stop-color:#243B4D"/>
	<stop  offset="1" style="stop-color:#203749"/>
</linearGradient>
<path class="st0" d="M389.6,229c0,8.8-7.2,16-16,16h-358c-8.8,0-16-7.2-16-16V16c0-8.8,7.2-16,16-16h358c8.8,0,16,7.2,16,16V229z"/>
<g>
	<g transform="translate(1565.7 -1106.8)">
		<g transform="matrix(3.1437 0 0 3.1437 -4835.7 -1027.6)">
			<path class="st1" d="M1114.3,739.4h-23.8v-42.9h23.8V739.4z"/>
			<g transform="matrix(1.25 0 0 -1.25 1064.5 698.59)">
				<path class="st2" d="M22-15.5c0,7,3.2,13.1,8.4,17.2C26.6,4.6,22,6.3,16.9,6.3C4.8,6.3-5-3.4-5-15.5s9.8-21.8,21.8-21.8
					c5,0,9.8,1.7,13.4,4.6C25.2-28.7,22-22.4,22-15.5"/>
			</g>
			<g transform="matrix(1.25 0 0 -1.25 1103.8 698.59)">
				<path class="st3" d="M34.1-15.5c0-12-9.8-21.8-21.8-21.8c-5,0-9.8,1.7-13.4,4.6c5,4,8.4,10.2,8.4,17.2S3.9-2.4-1.2,1.6
					c3.8,2.9,8.4,4.6,13.4,4.6C24.3,6.3,34.1-3.4,34.1-15.5"/>
			</g>
		</g>
	</g>
</g>
</svg>
