<?xml version="1.0" encoding="utf-8"?>
<!-- Generator: Adobe Illustrator 17.1.0, SVG Export Plug-In . SVG Version: 6.00 Build 0)  -->
<!DOCTYPE svg PUBLIC "-//W3C//DTD SVG 1.1//EN" "http://www.w3.org/Graphics/SVG/1.1/DTD/svg11.dtd">
<svg version="1.1" id="Layer_1" xmlns="http://www.w3.org/2000/svg" xmlns:xlink="http://www.w3.org/1999/xlink" x="0px" y="0px"
	 width="390px" height="245px" viewBox="0 0 390 245" style="enable-background:new 0 0 390 245;" xml:space="preserve">
<style type="text/css">
	.st0{fill:url(#SVGID_1_);}
	.st1{fill:#FFFFFF;}
	.st2{fill:url(#SVGID_2_);}
	.st3{fill:url(#SVGID_3_);}
	.st4{fill:url(#SVGID_4_);}
	.st5{fill:#FBB230;}
	.st6{fill:#EB2230;}
	.st7{fill:none;stroke:#FFFFFF;stroke-width:0.216;stroke-miterlimit:2.6131;}
	.st8{fill:url(#SVGID_5_);}
	.st9{fill:url(#SVGID_6_);}
	.st10{fill:url(#SVGID_7_);}
	.st11{fill:#081A23;}
	.st12{fill:#231F20;}
	.st13{fill:url(#SVGID_8_);}
	.st14{fill:#0078A9;}
	.st15{fill:url(#SVGID_9_);}
	.st16{fill:#004A97;}
</style>
<linearGradient id="SVGID_1_" gradientUnits="userSpaceOnUse" x1="269.6385" y1="276.7451" x2="124.4517" y2="-23.2924" gradientTransform="matrix(1 0 0 -1 0 245)">
	<stop  offset="0" style="stop-color:#0E4D93"/>
	<stop  offset="0.1721" style="stop-color:#12539B"/>
	<stop  offset="0.5272" style="stop-color:#1C5DAB"/>
	<stop  offset="1" style="stop-color:#0E4D93"/>
</linearGradient>
<path class="st0" d="M390,229c0,8.837-7.163,16-16,16H16c-8.837,0-16-7.163-16-16V16C0,7.163,7.163,0,16,0h358
	c8.837,0,16,7.163,16,16V229z"/>
<g>
	<polygon class="st1" points="160.904,170.006 134.922,170.006 151.165,70.209 177.147,70.209 	"/>
	<path class="st1" d="M113.066,70.209l-24.773,68.642l-2.933-14.779v0.005l-8.737-44.879c0,0-1.061-8.986-12.324-8.986H23.345
		l-0.472,1.692c0,0,12.523,2.601,27.175,11.407l22.569,86.701h27.074l41.345-99.799h-27.97V70.209z"/>
	<path class="st1" d="M317.437,170.006h23.853l-20.796-99.799h-20.888c-9.649,0-12.001,7.435-12.001,7.435l-38.743,92.362h27.082
		l5.409-14.822h33.037L317.437,170.006z M288.848,134.706l13.65-37.354l7.687,37.354H288.848z"/>
	<path class="st1" d="M250.89,94.205l3.701-21.432c0,0-11.438-4.348-23.365-4.348c-12.894,0-43.514,5.637-43.514,33.038
		c0,25.786,35.944,26.107,35.944,39.64c0,13.538-32.242,11.12-42.877,2.58l-3.869,22.402c0,0,11.603,5.64,29.328,5.64
		c17.733,0,44.484-9.182,44.484-34.164c0-25.945-36.259-28.368-36.259-39.648C214.466,86.63,239.775,88.08,250.89,94.205z"/>
</g>
</svg>
