<?xml version="1.0" encoding="utf-8"?>
<!-- Generator: Adobe Illustrator 17.1.0, SVG Export Plug-In . SVG Version: 6.00 Build 0)  -->
<!DOCTYPE svg PUBLIC "-//W3C//DTD SVG 1.1//EN" "http://www.w3.org/Graphics/SVG/1.1/DTD/svg11.dtd">
<svg version="1.1" id="Layer_1" xmlns="http://www.w3.org/2000/svg" xmlns:xlink="http://www.w3.org/1999/xlink" x="0px" y="0px"
	 width="390px" height="245px" viewBox="0 0 390 245" style="enable-background:new 0 0 390 245;" xml:space="preserve">
<style type="text/css">
	.st0{fill:url(#SVGID_1_);}
	.st1{fill:url(#SVGID_2_);}
	.st2{fill:#FBB230;}
	.st3{fill:#EB2230;}
	.st4{fill:#FFFFFF;}
	.st5{fill:none;stroke:#FFFFFF;stroke-width:0.216;stroke-miterlimit:2.6131;}
</style>
<linearGradient id="SVGID_1_" gradientUnits="userSpaceOnUse" x1="269.6385" y1="276.7451" x2="124.4517" y2="-23.2924" gradientTransform="matrix(1 0 0 -1 0 245)">
	<stop  offset="0" style="stop-color:#CEA429"/>
	<stop  offset="0.5272" style="stop-color:#DCB62F"/>
	<stop  offset="1" style="stop-color:#CEA429"/>
</linearGradient>
<path class="st0" d="M390,229c0,8.837-7.163,16-16,16H16c-8.837,0-16-7.163-16-16V16C0,7.163,7.163,0,16,0h358
	c8.837,0,16,7.163,16,16V229z"/>
<linearGradient id="SVGID_2_" gradientUnits="userSpaceOnUse" x1="85.4932" y1="177.2905" x2="52.9034" y2="131.6648" gradientTransform="matrix(1 0 0 -1 0 245)">
	<stop  offset="0" style="stop-color:#C3892B"/>
	<stop  offset="0.1931" style="stop-color:#D29A32"/>
	<stop  offset="0.4118" style="stop-color:#E0AA3A"/>
	<stop  offset="0.5816" style="stop-color:#E6B13D"/>
	<stop  offset="0.7071" style="stop-color:#DFA939"/>
	<stop  offset="0.8922" style="stop-color:#CE952F"/>
	<stop  offset="1" style="stop-color:#C3892B"/>
</linearGradient>
<path class="st1" d="M100.5,109c0,2.209-1.791,4-4,4h-51c-2.209,0-4-1.791-4-4V67c0-2.209,1.791-4,4-4h51c2.209,0,4,1.791,4,4V109z"
	/>
<g>
	<polygon class="st2" points="345.728,221.851 346.967,221.819 348.19,221.73 349.388,221.578 350.58,221.366 351.738,221.099 
		352.88,220.775 353.996,220.394 355.088,219.965 356.157,219.48 357.194,218.954 358.198,218.37 359.178,217.747 360.117,217.076 
		361.023,216.363 361.898,215.61 362.732,214.808 363.534,213.974 364.286,213.098 365.001,212.193 365.671,211.253 
		366.294,210.274 366.878,209.268 367.403,208.232 367.888,207.165 368.317,206.071 368.698,204.953 369.023,203.813 
		369.29,202.654 369.5,201.465 369.655,200.266 369.744,199.043 369.775,197.804 369.744,196.574 369.655,195.359 369.5,194.161 
		369.29,192.986 369.023,191.829 368.698,190.695 368.317,189.578 367.888,188.493 367.403,187.433 366.878,186.396 366.294,185.4 
		365.671,184.421 365.001,183.482 364.286,182.583 363.534,181.709 362.732,180.874 361.898,180.081 361.023,179.328 
		360.117,178.615 359.178,177.944 358.198,177.32 357.194,176.745 356.157,176.22 355.088,175.732 353.996,175.304 352.88,174.923 
		351.738,174.599 350.58,174.332 349.388,174.122 348.19,173.968 346.967,173.878 345.728,173.846 344.499,173.878 343.276,173.968 
		342.078,174.122 340.894,174.332 339.736,174.599 338.594,174.923 337.486,175.304 336.392,175.732 335.332,176.22 
		334.305,176.745 333.301,177.32 332.328,177.944 331.39,178.615 330.482,179.328 329.615,180.081 328.782,180.874 327.988,181.709 
		327.236,182.583 326.524,183.482 325.859,184.421 325.234,185.4 324.661,186.396 324.126,187.433 323.649,188.493 323.22,189.578 
		322.847,190.695 322.524,191.829 322.255,192.986 322.045,194.161 321.892,195.359 321.803,196.574 321.77,197.804 
		321.803,199.043 321.892,200.266 322.045,201.465 322.255,202.654 322.524,203.813 322.847,204.953 323.22,206.071 
		323.649,207.165 324.126,208.232 324.661,209.268 325.234,210.274 325.859,211.253 326.524,212.193 327.236,213.098 
		327.988,213.974 328.782,214.808 329.615,215.61 330.482,216.363 331.39,217.076 332.328,217.747 333.301,218.37 334.305,218.954 
		335.332,219.48 336.392,219.965 337.486,220.394 338.594,220.775 339.736,221.099 340.894,221.366 342.078,221.578 343.276,221.73 
		344.499,221.819 345.728,221.851 	"/>
	<polygon class="st3" points="313.618,221.851 314.847,221.819 316.07,221.73 317.27,221.578 318.451,221.366 319.609,221.099 
		320.749,220.775 321.859,220.394 322.953,219.965 324.013,219.48 325.042,218.954 326.045,218.37 327.017,217.747 327.957,217.076 
		328.863,216.363 329.73,215.61 330.563,214.808 331.357,213.974 332.111,213.098 332.822,212.193 333.486,211.253 334.109,210.274 
		334.684,209.268 335.219,208.232 335.697,207.165 336.126,206.071 336.499,204.953 336.822,203.813 337.09,202.654 
		337.299,201.465 337.455,200.266 337.542,199.043 337.574,197.804 337.542,196.574 337.455,195.359 337.299,194.161 
		337.09,192.986 336.822,191.829 336.499,190.695 336.126,189.578 335.697,188.493 335.219,187.433 334.684,186.396 334.109,185.4 
		333.486,184.421 332.822,183.482 332.111,182.583 331.357,181.709 330.563,180.874 329.73,180.081 328.863,179.328 
		327.957,178.615 327.017,177.944 326.045,177.32 325.042,176.745 324.013,176.22 322.953,175.732 321.859,175.304 320.749,174.923 
		319.609,174.599 318.451,174.332 317.27,174.122 316.07,173.968 314.847,173.878 313.618,173.846 312.378,173.878 311.155,173.968 
		309.957,174.122 308.766,174.332 307.609,174.599 306.468,174.923 305.349,175.304 304.257,175.732 303.188,176.22 
		302.153,176.745 301.149,177.32 300.168,177.944 299.228,178.615 298.322,179.328 297.447,180.081 296.614,180.874 
		295.811,181.709 295.059,182.583 294.347,183.482 293.674,184.421 293.051,185.4 292.468,186.396 291.943,187.433 291.455,188.493 
		291.028,189.578 290.647,190.695 290.322,191.829 290.055,192.986 289.845,194.161 289.691,195.359 289.601,196.574 
		289.57,197.804 289.601,199.043 289.691,200.266 289.845,201.465 290.055,202.654 290.322,203.813 290.647,204.953 
		291.028,206.071 291.455,207.165 291.943,208.232 292.468,209.268 293.051,210.274 293.674,211.253 294.347,212.193 
		295.059,213.098 295.811,213.974 296.614,214.808 297.447,215.61 298.322,216.363 299.228,217.076 300.168,217.747 301.149,218.37 
		302.153,218.954 303.188,219.48 304.257,219.965 305.349,220.394 306.468,220.775 307.609,221.099 308.766,221.366 
		309.957,221.578 311.155,221.73 312.378,221.819 313.618,221.851 	"/>
	<polygon class="st2" points="326.863,183.052 339.617,183.052 339.617,181.748 327.963,181.748 326.863,183.052 	"/>
	<polygon class="st2" points="324.953,185.95 339.617,185.95 339.617,184.646 325.722,184.646 324.953,185.95 	"/>
	<polygon class="st2" points="323.526,188.841 339.617,188.841 339.617,187.537 324.095,187.537 323.526,188.841 	"/>
	<polygon class="st2" points="322.547,191.74 339.617,191.74 339.617,190.437 322.953,190.437 322.547,191.74 	"/>
	<polygon class="st2" points="323.115,205.748 339.657,205.748 339.657,204.444 322.709,204.444 323.115,205.748 	"/>
	<polygon class="st2" points="324.336,208.646 339.657,208.646 339.657,207.342 323.73,207.342 324.336,208.646 	"/>
	<polygon class="st2" points="326.053,211.537 339.657,211.537 339.657,210.233 325.234,210.233 326.053,211.537 	"/>
	<polygon class="st2" points="328.417,214.435 339.657,214.435 339.657,213.123 327.276,213.123 328.417,214.435 	"/>
	<polygon class="st2" points="321.974,194.631 339.617,194.631 339.617,193.327 322.224,193.327 321.974,194.631 	"/>
	<polygon class="st2" points="332.726,202.858 339.453,202.858 339.453,201.553 332.967,201.553 332.726,202.858 	"/>
	<polygon class="st2" points="333.259,199.966 339.453,199.966 339.453,198.654 333.503,198.654 333.259,199.966 	"/>
	<polygon class="st2" points="321.528,198.654 323.276,198.654 323.276,199.966 321.609,199.966 321.528,198.654 	"/>
	<polygon class="st4" points="318.263,197.075 318.151,197.067 318.036,197.051 317.932,197.036 317.828,197.019 317.73,197.003 
		317.626,196.987 317.52,196.971 317.405,196.954 317.293,196.939 317.163,196.93 317.018,196.922 316.865,196.913 316.695,196.913 
		316.507,196.922 316.297,196.939 316.063,196.954 315.901,196.979 315.747,197.003 315.609,197.051 315.486,197.099 
		315.374,197.157 315.27,197.221 315.188,197.303 315.115,197.375 315.065,197.464 315.024,197.553 315.009,197.65 315.009,197.748 
		315.034,197.853 315.065,197.958 315.13,198.064 315.211,198.169 315.374,198.322 315.57,198.444 315.795,198.549 316.038,198.638 
		316.297,198.72 316.565,198.809 316.832,198.907 317.09,199.011 317.334,199.148 317.559,199.318 317.763,199.522 317.932,199.772 
		318.061,200.079 318.143,200.444 318.176,200.882 318.143,201.392 318.086,201.772 317.988,202.104 317.859,202.412 
		317.697,202.678 317.511,202.914 317.301,203.116 317.074,203.294 316.824,203.449 316.565,203.57 316.297,203.674 
		316.022,203.755 315.738,203.82 315.463,203.87 315.195,203.893 314.928,203.91 314.678,203.917 314.33,203.917 314.005,203.91 
		313.722,203.91 313.455,203.902 313.211,203.893 312.993,203.877 312.799,203.861 312.613,203.837 312.443,203.82 312.288,203.788 
		312.136,203.763 311.997,203.724 311.859,203.691 311.73,203.641 311.601,203.594 311.463,203.545 311.828,201.756 
		311.901,201.772 311.99,201.797 312.103,201.828 312.241,201.862 312.386,201.893 312.547,201.926 312.726,201.966 312.92,201.999 
		313.122,202.03 313.332,202.063 313.553,202.087 313.778,202.112 314.013,202.12 314.249,202.128 314.484,202.128 314.717,202.12 
		314.953,202.072 315.14,202.006 315.286,201.918 315.399,201.804 315.478,201.691 315.543,201.56 315.584,201.432 315.618,201.311 
		315.632,201.075 315.559,200.873 315.422,200.71 315.22,200.573 314.978,200.452 314.693,200.33 314.378,200.216 314.061,200.088 
		313.738,199.942 313.43,199.772 313.147,199.562 312.888,199.311 312.684,199.002 312.54,198.638 312.468,198.202 312.476,197.684 
		312.515,197.367 312.572,197.067 312.653,196.792 312.751,196.534 312.88,196.291 313.026,196.08 313.197,195.877 313.399,195.7 
		313.634,195.546 313.893,195.416 314.184,195.295 314.509,195.206 314.872,195.132 315.27,195.076 315.705,195.044 
		316.184,195.035 316.482,195.035 316.757,195.044 317.009,195.052 317.236,195.06 317.438,195.076 317.626,195.092 
		317.786,195.108 317.932,195.125 318.07,195.14 318.182,195.165 318.29,195.182 318.386,195.197 318.465,195.213 318.54,195.222 
		318.613,195.238 318.676,195.247 318.263,197.075 	"/>
	<polyline class="st5" points="318.263,197.075 318.263,197.075 318.151,197.067 318.036,197.051 317.932,197.036 317.828,197.019 
		317.73,197.003 317.626,196.987 317.52,196.971 317.405,196.954 317.293,196.939 317.163,196.93 317.018,196.922 316.865,196.913 
		316.695,196.913 316.507,196.922 316.297,196.939 316.063,196.954 316.063,196.954 315.901,196.979 315.747,197.003 
		315.609,197.051 315.486,197.099 315.374,197.157 315.27,197.221 315.188,197.303 315.115,197.375 315.065,197.464 
		315.024,197.553 315.009,197.65 315.009,197.748 315.034,197.853 315.065,197.958 315.13,198.064 315.211,198.169 315.211,198.169 
		315.374,198.322 315.57,198.444 315.795,198.549 316.038,198.638 316.297,198.72 316.565,198.809 316.832,198.907 317.09,199.011 
		317.334,199.148 317.559,199.318 317.763,199.522 317.932,199.772 318.061,200.079 318.143,200.444 318.176,200.882 
		318.143,201.392 318.143,201.392 318.086,201.772 317.988,202.104 317.859,202.412 317.697,202.678 317.511,202.914 
		317.301,203.116 317.074,203.294 316.824,203.449 316.565,203.57 316.297,203.674 316.022,203.755 315.738,203.82 315.463,203.87 
		315.195,203.893 314.928,203.91 314.678,203.917 314.678,203.917 314.33,203.917 314.005,203.91 313.722,203.91 313.455,203.902 
		313.211,203.893 312.993,203.877 312.799,203.861 312.613,203.837 312.443,203.82 312.288,203.788 312.136,203.763 
		311.997,203.724 311.859,203.691 311.73,203.641 311.601,203.594 311.463,203.545 311.828,201.756 311.828,201.756 
		311.901,201.772 311.99,201.797 312.103,201.828 312.241,201.862 312.386,201.893 312.547,201.926 312.726,201.966 312.92,201.999 
		313.122,202.03 313.332,202.063 313.553,202.087 313.778,202.112 314.013,202.12 314.249,202.128 314.484,202.128 314.717,202.12 
		314.717,202.12 314.953,202.072 315.14,202.006 315.286,201.918 315.399,201.804 315.478,201.691 315.543,201.56 315.584,201.432 
		315.618,201.311 315.618,201.311 315.632,201.075 315.559,200.873 315.422,200.71 315.22,200.573 314.978,200.452 314.693,200.33 
		314.378,200.216 314.061,200.088 313.738,199.942 313.43,199.772 313.147,199.562 312.888,199.311 312.684,199.002 312.54,198.638 
		312.468,198.202 312.476,197.684 312.476,197.684 312.515,197.367 312.572,197.067 312.653,196.792 312.751,196.534 
		312.88,196.291 313.026,196.08 313.197,195.877 313.399,195.7 313.634,195.546 313.893,195.416 314.184,195.295 314.509,195.206 
		314.872,195.132 315.27,195.076 315.705,195.044 316.184,195.035 316.184,195.035 316.482,195.035 316.757,195.044 
		317.009,195.052 317.236,195.06 317.438,195.076 317.626,195.092 317.786,195.108 317.932,195.125 318.07,195.14 318.182,195.165 
		318.29,195.182 318.386,195.197 318.465,195.213 318.54,195.222 318.613,195.238 318.676,195.247 318.263,197.075 	"/>
	<polygon class="st4" points="320.184,193.247 322.426,193.247 322.095,195.206 323.447,195.206 323.155,197.036 321.73,196.995 
		320.953,201.512 320.945,201.675 320.984,201.813 321.065,201.918 321.172,202.006 321.317,202.063 321.48,202.112 
		321.657,202.143 321.851,202.161 322.03,202.153 322.193,202.137 322.336,202.112 322.467,202.079 322.572,202.047 
		322.645,202.023 322.692,202.006 322.709,201.999 322.426,203.505 322.37,203.545 322.313,203.577 322.255,203.61 322.199,203.641 
		322.142,203.666 322.078,203.691 322.005,203.715 321.932,203.739 321.851,203.763 321.77,203.78 321.674,203.796 321.576,203.813 
		321.47,203.829 321.349,203.845 321.22,203.861 321.082,203.877 320.468,203.877 320.143,203.852 319.859,203.82 319.601,203.772 
		319.382,203.715 319.195,203.641 319.042,203.562 318.905,203.464 318.799,203.359 318.717,203.245 318.661,203.108 
		318.62,202.969 318.597,202.816 318.588,202.646 318.588,202.468 318.613,202.283 318.636,202.079 320.184,193.247 	"/>
	<polyline class="st5" points="320.184,193.247 322.426,193.247 322.095,195.206 323.447,195.206 323.155,197.036 321.73,196.995 
		320.953,201.512 320.953,201.512 320.945,201.675 320.984,201.813 321.065,201.918 321.172,202.006 321.317,202.063 
		321.48,202.112 321.657,202.143 321.851,202.161 321.851,202.161 322.03,202.153 322.193,202.137 322.336,202.112 322.467,202.079 
		322.572,202.047 322.645,202.023 322.692,202.006 322.709,201.999 322.426,203.505 322.426,203.505 322.37,203.545 
		322.313,203.577 322.255,203.61 322.199,203.641 322.142,203.666 322.078,203.691 322.005,203.715 321.932,203.739 
		321.851,203.763 321.77,203.78 321.674,203.796 321.576,203.813 321.47,203.829 321.349,203.845 321.22,203.861 321.082,203.877 
		320.468,203.877 320.468,203.877 320.143,203.852 319.859,203.82 319.601,203.772 319.382,203.715 319.195,203.641 
		319.042,203.562 318.905,203.464 318.799,203.359 318.717,203.245 318.661,203.108 318.62,202.969 318.597,202.816 
		318.588,202.646 318.588,202.468 318.613,202.283 318.636,202.079 320.184,193.247 	"/>
	<polyline class="st5" points="325.234,200.088 325.234,200.088 325.213,200.225 325.205,200.37 325.217,200.524 325.251,200.678 
		325.309,200.832 325.374,200.98 325.461,201.133 325.559,201.269 325.674,201.408 325.795,201.53 325.924,201.651 326.07,201.747 
		326.213,201.837 326.378,201.909 326.538,201.966 326.701,201.999 326.701,201.999 326.913,202.03 327.113,202.055 
		327.324,202.079 327.536,202.096 327.744,202.104 327.963,202.104 328.176,202.096 328.392,202.079 328.611,202.047 
		328.832,202.006 329.057,201.958 329.276,201.885 329.503,201.797 329.738,201.698 329.963,201.57 330.201,201.432 
		329.876,203.424 329.876,203.424 329.747,203.488 329.615,203.554 329.486,203.601 329.365,203.651 329.245,203.691 
		329.113,203.732 328.984,203.763 328.847,203.788 328.701,203.813 328.538,203.829 328.37,203.845 328.182,203.861 327.972,203.87 
		327.753,203.87 327.503,203.877 327.236,203.877 327.236,203.877 326.838,203.87 326.434,203.829 326.03,203.772 325.624,203.674 
		325.228,203.554 324.847,203.399 324.482,203.197 324.142,202.962 323.826,202.687 323.551,202.355 323.317,201.982 
		323.122,201.553 322.984,201.075 322.895,200.532 322.872,199.934 322.911,199.27 322.911,199.27 322.945,199.011 322.993,198.711 
		323.057,198.396 323.147,198.054 323.27,197.708 323.413,197.359 323.601,197.003 323.826,196.663 324.086,196.339 
		324.401,196.032 324.757,195.757 325.163,195.514 325.632,195.311 326.159,195.165 326.742,195.068 327.399,195.035 
		327.399,195.035 327.713,195.044 328.047,195.076 328.376,195.132 328.709,195.213 329.034,195.336 329.349,195.481 
		329.64,195.675 329.907,195.901 330.151,196.177 330.353,196.502 330.515,196.874 330.628,197.303 330.692,197.787 
		330.701,198.338 330.645,198.953 330.524,199.635 330.482,200.128 324.58,200.128 324.953,198.533 328.499,198.533 
		328.499,198.533 328.515,198.331 328.507,198.137 328.49,197.958 328.459,197.797 328.401,197.643 328.344,197.504 
		328.263,197.383 328.182,197.27 328.086,197.173 327.98,197.092 327.859,197.019 327.736,196.954 327.609,196.907 327.478,196.874 
		327.34,196.849 327.197,196.833 327.197,196.833 327.04,196.841 326.897,196.865 326.759,196.899 326.622,196.946 326.482,197.011 
		326.361,197.084 326.238,197.173 326.136,197.27 326.03,197.383 325.932,197.504 325.845,197.635 325.77,197.773 325.697,197.918 
		325.64,198.08 325.592,198.242 325.559,198.412 325.234,200.088 	"/>
	<polygon class="st4" points="344.546,195.691 344.44,195.635 344.336,195.586 344.224,195.529 344.101,195.472 343.98,195.424 
		343.842,195.375 343.705,195.326 343.559,195.278 343.405,195.238 343.251,195.206 343.08,195.173 342.911,195.149 
		342.726,195.132 342.538,195.116 342.344,195.116 342.142,195.116 341.94,195.116 341.728,195.132 341.511,195.158 
		341.282,195.197 341.057,195.262 340.83,195.351 340.605,195.465 340.376,195.61 340.157,195.788 339.947,195.999 339.744,196.258 
		339.551,196.558 339.371,196.913 339.203,197.318 339.051,197.773 338.919,198.291 338.872,198.581 338.838,198.864 
		338.822,199.148 338.83,199.424 338.855,199.699 338.911,199.959 338.984,200.201 339.074,200.444 339.194,200.663 339.34,200.873 
		339.511,201.059 339.705,201.229 339.924,201.375 340.174,201.497 340.449,201.602 340.759,201.675 340.863,201.698 
		340.984,201.723 341.13,201.74 341.292,201.756 341.469,201.772 341.655,201.772 341.859,201.772 342.061,201.756 342.272,201.73 
		342.482,201.691 342.684,201.634 342.886,201.57 343.088,201.48 343.276,201.375 343.444,201.246 343.607,201.1 343.242,203.262 
		343.194,203.302 343.144,203.351 343.08,203.409 343.007,203.455 342.919,203.52 342.805,203.577 342.676,203.634 342.53,203.682 
		342.344,203.739 342.134,203.78 341.89,203.813 341.607,203.845 341.292,203.861 340.928,203.87 340.515,203.861 340.059,203.837 
		339.688,203.796 339.315,203.715 338.942,203.594 338.572,203.432 338.215,203.238 337.876,202.993 337.551,202.711 
		337.251,202.388 336.984,202.023 336.757,201.619 336.563,201.165 336.417,200.671 336.321,200.128 336.288,199.553 
		336.305,198.922 336.392,198.25 336.459,197.918 336.532,197.595 336.611,197.278 336.692,196.979 336.782,196.695 
		336.886,196.412 336.992,196.145 337.105,195.894 337.228,195.643 337.349,195.408 337.486,195.182 337.632,194.971 
		337.778,194.768 337.938,194.574 338.101,194.396 338.272,194.226 338.457,194.064 338.644,193.91 338.838,193.772 
		339.042,193.642 339.259,193.521 339.478,193.417 339.705,193.32 339.94,193.229 340.19,193.149 340.44,193.084 340.701,193.027 
		340.976,192.979 341.251,192.938 341.542,192.906 341.834,192.891 342.142,192.881 342.401,192.891 342.653,192.906 
		342.894,192.93 343.138,192.963 343.365,192.995 343.584,193.044 343.792,193.084 343.988,193.133 344.174,193.181 
		344.336,193.229 344.49,193.279 344.619,193.327 344.732,193.367 344.83,193.4 344.903,193.433 344.953,193.449 344.546,195.691 	
		"/>
	<polyline class="st5" points="344.546,195.691 344.546,195.691 344.44,195.635 344.336,195.586 344.224,195.529 344.101,195.472 
		343.98,195.424 343.842,195.375 343.705,195.326 343.559,195.278 343.405,195.238 343.251,195.206 343.08,195.173 342.911,195.149 
		342.726,195.132 342.538,195.116 342.344,195.116 342.142,195.116 342.142,195.116 341.94,195.116 341.728,195.132 
		341.511,195.158 341.282,195.197 341.057,195.262 340.83,195.351 340.605,195.465 340.376,195.61 340.157,195.788 339.947,195.999 
		339.744,196.258 339.551,196.558 339.371,196.913 339.203,197.318 339.051,197.773 338.919,198.291 338.919,198.291 
		338.872,198.581 338.838,198.864 338.822,199.148 338.83,199.424 338.855,199.699 338.911,199.959 338.984,200.201 
		339.074,200.444 339.194,200.663 339.34,200.873 339.511,201.059 339.705,201.229 339.924,201.375 340.174,201.497 
		340.449,201.602 340.759,201.675 340.759,201.675 340.863,201.698 340.984,201.723 341.13,201.74 341.292,201.756 341.469,201.772 
		341.655,201.772 341.859,201.772 342.061,201.756 342.272,201.73 342.482,201.691 342.684,201.634 342.886,201.57 343.088,201.48 
		343.276,201.375 343.444,201.246 343.607,201.1 343.242,203.262 343.242,203.262 343.194,203.302 343.144,203.351 343.08,203.409 
		343.007,203.455 342.919,203.52 342.805,203.577 342.676,203.634 342.53,203.682 342.344,203.739 342.134,203.78 341.89,203.813 
		341.607,203.845 341.292,203.861 340.928,203.87 340.515,203.861 340.059,203.837 340.059,203.837 339.688,203.796 
		339.315,203.715 338.942,203.594 338.572,203.432 338.215,203.238 337.876,202.993 337.551,202.711 337.251,202.388 
		336.984,202.023 336.757,201.619 336.563,201.165 336.417,200.671 336.321,200.128 336.288,199.553 336.305,198.922 
		336.392,198.25 336.392,198.25 336.459,197.918 336.532,197.595 336.611,197.278 336.692,196.979 336.782,196.695 336.886,196.412 
		336.992,196.145 337.105,195.894 337.228,195.643 337.349,195.408 337.486,195.182 337.632,194.971 337.778,194.768 
		337.938,194.574 338.101,194.396 338.272,194.226 338.457,194.064 338.644,193.91 338.838,193.772 339.042,193.642 
		339.259,193.521 339.478,193.417 339.705,193.32 339.94,193.229 340.19,193.149 340.44,193.084 340.701,193.027 340.976,192.979 
		341.251,192.938 341.542,192.906 341.834,192.891 342.142,192.881 342.142,192.881 342.401,192.891 342.653,192.906 
		342.894,192.93 343.138,192.963 343.365,192.995 343.584,193.044 343.792,193.084 343.988,193.133 344.174,193.181 
		344.336,193.229 344.49,193.279 344.619,193.327 344.732,193.367 344.83,193.4 344.903,193.433 344.953,193.449 344.546,195.691 	
		"/>
	<polygon class="st4" points="364.48,203.877 362.238,203.877 362.401,202.979 362.401,202.897 362.269,203.06 362.134,203.204 
		361.996,203.334 361.85,203.449 361.703,203.554 361.557,203.641 361.411,203.715 361.257,203.788 361.105,203.845 
		360.951,203.885 360.796,203.925 360.634,203.949 360.471,203.974 360.317,203.99 360.157,203.999 359.994,203.999 
		359.573,203.966 359.186,203.877 358.83,203.739 358.505,203.554 358.213,203.318 357.955,203.044 357.728,202.743 
		357.534,202.404 357.371,202.038 357.242,201.659 357.153,201.262 357.088,200.849 357.065,200.436 357.071,200.015 
		357.113,199.602 357.186,199.19 357.307,198.711 357.455,198.258 357.621,197.845 357.826,197.457 358.036,197.092 
		358.278,196.767 358.53,196.477 358.796,196.21 359.08,195.974 359.38,195.772 359.688,195.594 359.994,195.457 360.317,195.342 
		360.642,195.271 360.967,195.222 361.298,195.206 361.534,195.213 361.759,195.238 361.971,195.278 362.167,195.336 
		362.351,195.401 362.513,195.472 362.676,195.562 362.821,195.651 362.951,195.747 363.071,195.853 363.175,195.959 
		363.273,196.064 363.355,196.169 363.43,196.274 363.492,196.372 363.542,196.469 363.542,196.469 364.109,193.287 
		366.311,193.287 364.48,203.877 	"/>
	<polyline class="st5" points="364.48,203.877 362.238,203.877 362.401,202.979 362.401,202.897 362.401,202.897 362.269,203.06 
		362.134,203.204 361.996,203.334 361.85,203.449 361.703,203.554 361.557,203.641 361.411,203.715 361.257,203.788 
		361.105,203.845 360.951,203.885 360.796,203.925 360.634,203.949 360.471,203.974 360.317,203.99 360.157,203.999 
		359.994,203.999 359.994,203.999 359.573,203.966 359.186,203.877 358.83,203.739 358.505,203.554 358.213,203.318 
		357.955,203.044 357.728,202.743 357.534,202.404 357.371,202.038 357.242,201.659 357.153,201.262 357.088,200.849 
		357.065,200.436 357.071,200.015 357.113,199.602 357.186,199.19 357.186,199.19 357.307,198.711 357.455,198.258 357.621,197.845 
		357.826,197.457 358.036,197.092 358.278,196.767 358.53,196.477 358.796,196.21 359.08,195.974 359.38,195.772 359.688,195.594 
		359.994,195.457 360.317,195.342 360.642,195.271 360.967,195.222 361.298,195.206 361.298,195.206 361.534,195.213 
		361.759,195.238 361.971,195.278 362.167,195.336 362.351,195.401 362.513,195.472 362.676,195.562 362.821,195.651 
		362.951,195.747 363.071,195.853 363.175,195.959 363.273,196.064 363.355,196.169 363.43,196.274 363.492,196.372 
		363.542,196.469 363.542,196.469 364.109,193.287 366.311,193.287 364.48,203.877 	"/>
	<polygon class="st2" points="360.813,201.918 361.04,201.902 361.25,201.853 361.444,201.797 361.632,201.708 361.801,201.611 
		361.963,201.488 362.115,201.352 362.255,201.204 362.375,201.042 362.488,200.864 362.594,200.678 362.684,200.485 
		362.763,200.281 362.83,200.072 362.886,199.853 362.926,199.635 362.965,199.409 362.992,199.174 362.992,198.953 
		362.982,198.728 362.959,198.517 362.926,198.314 362.869,198.12 362.805,197.934 362.723,197.773 362.628,197.619 
		362.521,197.488 362.401,197.375 362.263,197.278 362.115,197.213 361.963,197.173 361.792,197.157 361.573,197.173 
		361.371,197.206 361.186,197.27 360.998,197.351 360.836,197.457 360.676,197.586 360.538,197.724 360.401,197.878 
		360.278,198.054 360.165,198.242 360.059,198.436 359.969,198.646 359.89,198.864 359.826,199.085 359.761,199.318 
		359.711,199.553 359.669,199.91 359.688,200.299 359.744,200.694 359.848,201.075 360.011,201.408 360.221,201.675 
		360.488,201.853 360.813,201.918 	"/>
	<polygon class="st4" points="311.091,202.079 310.766,203.877 308.726,203.877 308.782,203.545 308.824,203.245 308.855,203.019 
		308.888,202.897 308.776,203.027 308.645,203.157 308.493,203.278 308.322,203.391 308.128,203.505 307.924,203.601 
		307.713,203.699 307.497,203.78 307.261,203.852 307.026,203.91 306.793,203.959 306.549,203.99 306.313,204.007 306.08,204.015 
		305.853,203.99 305.632,203.959 305.349,203.885 305.091,203.804 304.863,203.699 304.661,203.577 304.484,203.449 
		304.322,203.302 304.193,203.148 304.078,202.987 303.982,202.816 303.901,202.637 303.836,202.461 303.788,202.283 
		303.755,202.096 303.73,201.909 303.713,201.73 303.713,201.553 303.738,201.237 303.788,200.938 303.868,200.654 303.974,200.379 
		304.103,200.12 304.249,199.886 304.42,199.66 304.613,199.456 304.815,199.27 305.043,199.099 305.276,198.946 305.52,198.816 
		305.778,198.704 306.047,198.614 306.322,198.541 306.605,198.492 306.622,198.492 306.661,198.484 306.718,198.476 
		306.807,198.468 306.905,198.452 307.018,198.444 307.138,198.428 307.278,198.412 307.415,198.396 307.553,198.38 
		307.699,198.371 307.828,198.355 307.957,198.347 308.078,198.338 308.19,198.331 308.28,198.331 308.468,198.331 308.663,198.338 
		308.841,198.347 309.018,198.347 309.163,198.355 309.278,198.363 309.357,198.371 309.382,198.371 309.399,198.314 
		309.447,198.169 309.488,197.998 309.503,197.845 309.472,197.667 309.399,197.504 309.301,197.359 309.172,197.237 
		309.018,197.134 308.849,197.06 308.653,197.011 308.443,196.995 308.215,196.987 307.972,196.979 307.722,196.979 
		307.463,196.987 307.197,197.003 306.936,197.027 306.678,197.051 306.426,197.084 306.184,197.116 305.949,197.157 
		305.738,197.196 305.545,197.237 305.366,197.287 305.222,197.335 305.107,197.391 305.018,197.44 305.593,195.489 
		305.772,195.416 305.949,195.351 306.145,195.295 306.338,195.253 306.532,195.213 306.743,195.182 306.953,195.149 
		307.172,195.132 307.399,195.116 307.632,195.108 307.876,195.099 308.128,195.099 308.386,195.099 308.653,195.099 
		308.936,195.108 309.22,195.116 309.447,195.132 309.691,195.173 309.943,195.23 310.199,195.303 310.449,195.401 310.695,195.514 
		310.936,195.651 311.163,195.804 311.366,195.984 311.545,196.177 311.707,196.395 311.828,196.638 311.909,196.899 
		311.957,197.173 311.957,197.481 311.909,197.804 311.091,202.079 	"/>
	<polyline class="st5" points="311.091,202.079 310.766,203.877 308.726,203.877 308.726,203.877 308.782,203.545 308.824,203.245 
		308.855,203.019 308.888,202.897 308.888,202.897 308.776,203.027 308.645,203.157 308.493,203.278 308.322,203.391 
		308.128,203.505 307.924,203.601 307.713,203.699 307.497,203.78 307.261,203.852 307.026,203.91 306.793,203.959 306.549,203.99 
		306.313,204.007 306.08,204.015 305.853,203.99 305.632,203.959 305.632,203.959 305.349,203.885 305.091,203.804 304.863,203.699 
		304.661,203.577 304.484,203.449 304.322,203.302 304.193,203.148 304.078,202.987 303.982,202.816 303.901,202.637 
		303.836,202.461 303.788,202.283 303.755,202.096 303.73,201.909 303.713,201.73 303.713,201.553 303.713,201.553 303.738,201.237 
		303.788,200.938 303.868,200.654 303.974,200.379 304.103,200.12 304.249,199.886 304.42,199.66 304.613,199.456 304.815,199.27 
		305.043,199.099 305.276,198.946 305.52,198.816 305.778,198.704 306.047,198.614 306.322,198.541 306.605,198.492 
		306.605,198.492 306.622,198.492 306.661,198.484 306.718,198.476 306.807,198.468 306.905,198.452 307.018,198.444 
		307.138,198.428 307.278,198.412 307.415,198.396 307.553,198.38 307.699,198.371 307.828,198.355 307.957,198.347 
		308.078,198.338 308.19,198.331 308.28,198.331 308.28,198.331 308.468,198.331 308.663,198.338 308.841,198.347 309.018,198.347 
		309.163,198.355 309.278,198.363 309.357,198.371 309.382,198.371 309.382,198.371 309.399,198.314 309.447,198.169 
		309.488,197.998 309.503,197.845 309.503,197.845 309.472,197.667 309.399,197.504 309.301,197.359 309.172,197.237 
		309.018,197.134 308.849,197.06 308.653,197.011 308.443,196.995 308.443,196.995 308.215,196.987 307.972,196.979 
		307.722,196.979 307.463,196.987 307.197,197.003 306.936,197.027 306.678,197.051 306.426,197.084 306.184,197.116 
		305.949,197.157 305.738,197.196 305.545,197.237 305.366,197.287 305.222,197.335 305.107,197.391 305.018,197.44 
		305.593,195.489 305.593,195.489 305.772,195.416 305.949,195.351 306.145,195.295 306.338,195.253 306.532,195.213 
		306.743,195.182 306.953,195.149 307.172,195.132 307.399,195.116 307.632,195.108 307.876,195.099 308.128,195.099 
		308.386,195.099 308.653,195.099 308.936,195.108 309.22,195.116 309.22,195.116 309.447,195.132 309.691,195.173 309.943,195.23 
		310.199,195.303 310.449,195.401 310.695,195.514 310.936,195.651 311.163,195.804 311.366,195.984 311.545,196.177 
		311.707,196.395 311.828,196.638 311.909,196.899 311.957,197.173 311.957,197.481 311.909,197.804 311.091,202.079 	"/>
	<polygon class="st3" points="309.14,199.966 309.132,199.926 309.099,199.886 309.051,199.861 308.97,199.845 308.88,199.829 
		308.776,199.82 308.653,199.82 308.532,199.82 308.401,199.829 308.263,199.845 308.134,199.861 308.005,199.878 307.884,199.894 
		307.77,199.917 307.674,199.942 307.584,199.966 307.528,199.982 307.463,200.008 307.374,200.039 307.284,200.079 307.18,200.128 
		307.074,200.186 306.961,200.241 306.855,200.307 306.743,200.387 306.638,200.468 306.54,200.566 306.451,200.663 306.37,200.767 
		306.313,200.882 306.263,201.011 306.241,201.14 306.232,201.416 306.274,201.634 306.353,201.797 306.459,201.918 306.58,201.999 
		306.718,202.047 306.847,202.072 306.978,202.079 307.222,202.072 307.441,202.047 307.651,202.014 307.834,201.966 
		307.999,201.909 308.151,201.837 308.288,201.764 308.411,201.675 308.518,201.593 308.613,201.497 308.695,201.408 
		308.759,201.311 308.815,201.213 308.863,201.116 308.905,201.027 308.928,200.938 308.995,200.704 309.051,200.436 
		309.099,200.177 309.14,199.966 	"/>
	<polygon class="st4" points="294.055,203.877 291.853,203.877 293.691,193.247 297.522,193.247 297.884,199.553 300.532,193.247 
		304.532,193.247 302.653,203.877 300.451,203.877 301.843,195.935 301.755,195.935 298.459,203.877 295.974,203.877 
		295.959,203.545 295.901,202.662 295.828,201.408 295.747,199.966 295.666,198.517 295.593,197.247 295.536,196.324 
		295.52,195.935 295.497,195.935 295.449,195.935 295.399,195.935 295.399,195.935 294.055,203.877 	"/>
	<polyline class="st5" points="294.055,203.877 291.853,203.877 293.691,193.247 297.522,193.247 297.884,199.553 300.532,193.247 
		304.532,193.247 302.653,203.877 300.451,203.877 301.843,195.935 301.755,195.935 298.459,203.877 295.974,203.877 
		295.974,203.877 295.959,203.545 295.901,202.662 295.828,201.408 295.747,199.966 295.666,198.517 295.593,197.247 
		295.536,196.324 295.52,195.935 295.52,195.935 295.497,195.935 295.449,195.935 295.399,195.935 295.399,195.935 294.055,203.877 
			"/>
	<polygon class="st4" points="351.276,202.079 350.944,203.877 348.911,203.877 348.928,203.545 348.936,203.254 348.936,203.036 
		348.953,202.939 348.846,203.06 348.724,203.181 348.578,203.294 348.417,203.409 348.246,203.513 348.053,203.61 347.851,203.708 
		347.649,203.788 347.428,203.852 347.203,203.917 346.976,203.959 346.751,203.99 346.513,204.007 346.288,204.015 346.067,203.99 
		345.851,203.959 345.559,203.885 345.301,203.804 345.074,203.699 344.863,203.577 344.684,203.449 344.53,203.302 
		344.401,203.148 344.286,202.987 344.19,202.816 344.117,202.637 344.053,202.461 344.013,202.283 343.98,202.096 343.955,201.909 
		343.938,201.73 343.938,201.553 343.955,201.237 344.005,200.938 344.078,200.654 344.182,200.379 344.303,200.12 344.459,199.886 
		344.628,199.66 344.813,199.456 345.026,199.27 345.242,199.099 345.478,198.946 345.728,198.816 345.98,198.704 346.246,198.614 
		346.513,198.541 346.788,198.492 346.805,198.492 346.846,198.484 346.903,198.476 346.984,198.468 347.088,198.452 
		347.203,198.444 347.324,198.428 347.453,198.412 347.59,198.396 347.736,198.38 347.874,198.371 348.013,198.355 348.142,198.347 
		348.255,198.338 348.367,198.331 348.457,198.331 348.651,198.331 348.846,198.338 349.032,198.347 349.211,198.347 
		349.363,198.355 349.494,198.363 349.567,198.371 349.601,198.371 349.615,198.314 349.64,198.169 349.663,197.998 349.68,197.845 
		349.646,197.667 349.584,197.504 349.478,197.359 349.355,197.237 349.211,197.134 349.04,197.06 348.861,197.011 348.667,196.995 
		348.44,196.987 348.199,196.979 347.946,196.979 347.688,196.987 347.419,197.003 347.161,197.027 346.903,197.051 
		346.651,197.084 346.409,197.116 346.174,197.157 345.965,197.196 345.769,197.237 345.59,197.287 345.444,197.335 
		345.332,197.391 345.242,197.44 345.811,195.489 345.988,195.416 346.174,195.351 346.359,195.295 346.555,195.253 
		346.757,195.213 346.959,195.182 347.169,195.149 347.388,195.132 347.615,195.116 347.851,195.108 348.084,195.099 
		348.334,195.099 348.586,195.099 348.846,195.099 349.121,195.108 349.396,195.116 349.624,195.132 349.867,195.173 
		350.117,195.23 350.378,195.303 350.628,195.401 350.878,195.514 351.121,195.651 351.348,195.804 351.551,195.984 
		351.738,196.177 351.899,196.395 352.019,196.638 352.109,196.899 352.165,197.173 352.165,197.481 352.126,197.804 
		351.276,202.079 	"/>
	<polygon class="st4" points="350.944,203.934 350.992,203.885 351.324,202.087 351.226,202.072 350.894,203.87 350.944,203.82 
		350.944,203.934 350.984,203.925 350.992,203.885 350.944,203.934 	"/>
	<polygon class="st4" points="348.861,203.877 348.911,203.934 350.944,203.934 350.944,203.82 348.911,203.82 348.959,203.877 
		348.861,203.877 348.855,203.934 348.911,203.934 348.861,203.877 	"/>
	<polygon class="st4" points="348.992,202.969 348.919,202.905 348.886,203.036 348.878,203.254 348.878,203.545 348.861,203.877 
		348.959,203.877 348.976,203.545 348.992,203.254 348.982,203.036 348.982,202.969 348.911,202.905 348.992,202.969 	"/>
	<polygon class="st4" points="345.842,204.007 345.842,204.007 346.067,204.039 346.288,204.063 346.513,204.056 346.751,204.039 
		346.984,204.007 347.211,203.966 347.436,203.902 347.663,203.837 347.865,203.755 348.076,203.659 348.269,203.562 
		348.44,203.449 348.611,203.334 348.757,203.222 348.886,203.091 348.992,202.969 348.911,202.905 348.805,203.027 348.692,203.14 
		348.546,203.254 348.392,203.367 348.221,203.464 348.028,203.562 347.834,203.659 347.632,203.739 347.419,203.804 
		347.194,203.87 346.967,203.91 346.751,203.941 346.513,203.959 346.288,203.966 346.067,203.941 345.857,203.91 345.857,203.91 
		345.842,204.007 	"/>
	<polygon class="st4" points="343.882,201.553 343.882,201.553 343.89,201.73 343.907,201.909 343.93,202.104 343.963,202.29 
		344.005,202.468 344.069,202.654 344.142,202.84 344.246,203.011 344.361,203.181 344.49,203.334 344.653,203.488 344.838,203.618 
		345.049,203.748 345.284,203.852 345.549,203.934 345.842,204.007 345.857,203.91 345.567,203.837 345.317,203.755 
		345.096,203.651 344.886,203.537 344.715,203.409 344.569,203.269 344.44,203.116 344.328,202.962 344.24,202.792 344.165,202.622 
		344.101,202.453 344.061,202.274 344.028,202.087 344.005,201.909 343.988,201.73 343.997,201.553 343.997,201.553 
		343.882,201.553 	"/>
	<polygon class="st4" points="346.788,198.444 346.788,198.444 346.507,198.492 346.232,198.566 345.965,198.654 345.705,198.768 
		345.453,198.897 345.209,199.06 344.992,199.23 344.782,199.424 344.586,199.626 344.417,199.853 344.255,200.096 344.134,200.364 
		344.028,200.638 343.955,200.929 343.907,201.237 343.882,201.553 343.997,201.553 344.005,201.237 344.053,200.946 
		344.126,200.671 344.23,200.396 344.353,200.144 344.499,199.917 344.669,199.691 344.846,199.489 345.055,199.311 345.276,199.14 
		345.501,198.995 345.753,198.864 345.994,198.752 346.263,198.663 346.521,198.59 346.788,198.541 346.788,198.541 
		346.788,198.444 	"/>
	<polygon class="st4" points="348.457,198.274 348.457,198.274 348.367,198.274 348.255,198.291 348.142,198.3 348.013,198.307 
		347.874,198.322 347.736,198.331 347.59,198.347 347.453,198.363 347.324,198.38 347.203,198.396 347.088,198.403 346.984,198.421 
		346.903,198.428 346.838,198.436 346.805,198.444 346.788,198.444 346.788,198.541 346.805,198.541 346.855,198.533 
		346.903,198.526 346.984,198.517 347.088,198.501 347.203,198.492 347.324,198.476 347.453,198.46 347.59,198.444 347.736,198.428 
		347.874,198.421 348.013,198.403 348.142,198.396 348.255,198.387 348.367,198.387 348.457,198.387 348.457,198.387 
		348.457,198.274 	"/>
	<polygon class="st4" points="349.551,198.363 349.601,198.322 349.567,198.322 349.494,198.314 349.363,198.307 349.211,198.291 
		349.032,198.291 348.846,198.291 348.651,198.274 348.457,198.274 348.457,198.387 348.651,198.387 348.846,198.387 
		349.032,198.403 349.211,198.403 349.363,198.403 349.494,198.412 349.567,198.421 349.601,198.421 349.646,198.38 
		349.601,198.421 349.64,198.428 349.646,198.38 349.551,198.363 	"/>
	<polygon class="st4" points="349.632,197.845 349.624,197.845 349.615,197.998 349.59,198.161 349.567,198.307 349.551,198.363 
		349.646,198.38 349.663,198.322 349.688,198.175 349.713,197.998 349.738,197.845 349.728,197.845 349.632,197.845 	"/>
	<polygon class="st4" points="348.667,197.043 348.667,197.051 348.855,197.06 349.024,197.109 349.186,197.181 349.324,197.278 
		349.436,197.391 349.534,197.529 349.601,197.675 349.632,197.845 349.728,197.845 349.696,197.66 349.632,197.481 
		349.517,197.327 349.388,197.196 349.234,197.084 349.055,197.011 348.869,196.963 348.667,196.939 348.667,196.946 
		348.667,197.043 	"/>
	<polygon class="st4" points="345.194,197.433 345.276,197.481 345.357,197.44 345.461,197.383 345.599,197.335 345.778,197.287 
		345.971,197.247 346.182,197.206 346.417,197.165 346.651,197.134 346.903,197.099 347.161,197.075 347.419,197.051 
		347.688,197.036 347.946,197.036 348.199,197.036 348.44,197.036 348.667,197.043 348.667,196.946 348.44,196.939 348.199,196.922 
		347.946,196.922 347.688,196.939 347.419,196.954 347.161,196.979 346.903,197.003 346.651,197.036 346.401,197.067 
		346.165,197.109 345.955,197.149 345.761,197.19 345.584,197.237 345.43,197.287 345.307,197.342 345.209,197.4 345.292,197.448 
		345.194,197.433 	"/>
	<polygon class="st4" points="345.794,195.44 345.761,195.481 345.194,197.433 345.292,197.448 345.857,195.496 345.826,195.538 
		345.794,195.44 345.769,195.448 345.761,195.481 345.794,195.44 	"/>
	<polygon class="st4" points="349.396,195.068 349.396,195.068 349.121,195.052 348.846,195.044 348.586,195.044 348.334,195.044 
		348.084,195.044 347.851,195.06 347.615,195.068 347.388,195.085 347.169,195.099 346.951,195.132 346.751,195.165 
		346.546,195.206 346.351,195.247 346.157,195.303 345.971,195.367 345.794,195.44 345.826,195.538 346.005,195.465 346.19,195.401 
		346.367,195.342 346.563,195.303 346.765,195.262 346.967,195.23 347.169,195.197 347.388,195.182 347.615,195.165 
		347.851,195.158 348.084,195.158 348.334,195.158 348.586,195.158 348.846,195.158 349.121,195.165 349.396,195.165 
		349.396,195.165 349.396,195.068 	"/>
	<polygon class="st4" points="352.174,197.813 352.174,197.813 352.215,197.481 352.215,197.173 352.159,196.889 352.069,196.622 
		351.94,196.372 351.778,196.145 351.582,195.943 351.38,195.764 351.146,195.61 350.903,195.465 350.644,195.351 350.392,195.253 
		350.126,195.182 349.874,195.125 349.624,195.085 349.396,195.068 349.396,195.165 349.624,195.182 349.857,195.222 
		350.109,195.278 350.361,195.351 350.611,195.448 350.853,195.562 351.096,195.691 351.315,195.845 351.517,196.023 
		351.694,196.21 351.857,196.419 351.971,196.656 352.061,196.907 352.117,197.173 352.117,197.481 352.076,197.797 
		352.076,197.797 352.174,197.813 	"/>
	<polygon class="st4" points="351.324,202.087 351.324,202.087 352.174,197.813 352.076,197.797 351.226,202.072 351.226,202.072 
		351.324,202.087 	"/>
	<polygon class="st2" points="349.315,199.966 349.299,199.917 349.267,199.878 349.211,199.853 349.128,199.829 349.04,199.82 
		348.936,199.812 348.813,199.812 348.692,199.82 348.561,199.837 348.434,199.853 348.305,199.87 348.182,199.886 348.061,199.91 
		347.955,199.926 347.851,199.95 347.769,199.966 347.713,199.974 347.649,199.999 347.567,200.023 347.478,200.055 
		347.371,200.103 347.273,200.153 347.161,200.21 347.057,200.281 346.951,200.355 346.846,200.444 346.757,200.532 
		346.667,200.638 346.596,200.751 346.538,200.873 346.49,201.003 346.465,201.14 346.457,201.416 346.496,201.634 346.563,201.797 
		346.659,201.918 346.78,201.999 346.919,202.047 347.057,202.072 347.194,202.079 347.436,202.072 347.663,202.047 
		347.874,202.006 348.061,201.95 348.238,201.885 348.392,201.813 348.538,201.73 348.667,201.634 348.782,201.545 348.878,201.44 
		348.967,201.342 349.04,201.237 349.096,201.14 349.136,201.042 349.169,200.946 349.194,200.857 349.226,200.63 349.267,200.396 
		349.299,200.169 349.315,199.966 	"/>
	<polygon class="st4" points="365.994,202.769 366.011,202.581 366.076,202.363 366.19,202.168 366.328,201.999 366.496,201.862 
		366.69,201.764 366.9,201.698 367.128,201.675 367.357,201.698 367.565,201.764 367.761,201.862 367.93,201.999 368.067,202.168 
		368.18,202.363 368.246,202.581 368.263,202.769 368.019,202.769 368.011,202.622 367.963,202.443 367.882,202.283 
		367.775,202.143 367.646,202.03 367.494,201.95 367.315,201.893 367.128,201.877 366.942,201.893 366.765,201.95 366.609,202.03 
		366.48,202.143 366.375,202.283 366.294,202.443 366.246,202.622 366.23,202.769 365.994,202.769 	"/>
	<polygon class="st4" points="366.723,202.769 366.723,202.283 367.169,202.283 367.267,202.29 367.357,202.306 367.419,202.33 
		367.478,202.363 367.517,202.412 367.548,202.461 367.565,202.516 367.573,202.574 367.565,202.646 367.548,202.703 
		367.526,202.752 367.509,202.769 367.169,202.769 367.201,202.76 367.257,202.752 367.307,202.736 367.348,202.72 367.38,202.696 
		367.396,202.67 367.413,202.631 367.413,202.574 367.403,202.533 367.388,202.5 367.361,202.485 367.338,202.468 367.298,202.461 
		367.257,202.453 367.217,202.453 367.169,202.453 366.926,202.453 366.926,202.769 366.723,202.769 	"/>
	<polygon class="st4" points="365.994,202.769 365.988,202.816 366.011,203.051 366.076,203.269 366.19,203.464 366.328,203.626 
		366.496,203.763 366.69,203.87 366.9,203.934 367.128,203.959 367.357,203.934 367.565,203.87 367.761,203.763 367.93,203.626 
		368.067,203.464 368.18,203.269 368.246,203.051 368.271,202.816 368.263,202.769 368.019,202.769 368.028,202.816 
		368.011,203.011 367.963,203.189 367.882,203.343 367.775,203.479 367.646,203.594 367.494,203.682 367.315,203.739 
		367.128,203.755 366.942,203.739 366.765,203.682 366.609,203.594 366.48,203.479 366.375,203.343 366.294,203.189 
		366.246,203.011 366.23,202.816 366.23,202.769 365.994,202.769 	"/>
	<polygon class="st4" points="366.723,202.769 366.723,203.262 366.926,203.262 366.926,202.858 367.128,202.858 367.371,203.262 
		367.532,203.262 367.29,202.858 367.348,202.858 367.403,202.84 367.453,202.824 367.494,202.792 367.509,202.769 367.169,202.769 
		367.128,202.776 366.926,202.776 366.926,202.769 366.723,202.769 	"/>
	<path class="st5" d="M365.988,202.816L365.988,202.816l0.023-0.235l0.065-0.219l0.115-0.194l0.137-0.17l0.169-0.137l0.194-0.098
		l0.21-0.066l0.227-0.023l0,0l0.229,0.023l0.208,0.066l0.196,0.098l0.169,0.137l0.137,0.17l0.112,0.194l0.067,0.219l0.025,0.235l0,0
		l-0.025,0.235l-0.067,0.218l-0.112,0.195l-0.137,0.162l-0.169,0.136l-0.196,0.107l-0.208,0.064l-0.229,0.024l0,0l-0.227-0.024
		l-0.21-0.064l-0.194-0.107l-0.169-0.136l-0.137-0.162l-0.115-0.195l-0.065-0.218L365.988,202.816 M366.926,203.262h-0.202v-0.98
		h0.446l0,0l0.098,0.008l0.09,0.016l0.062,0.024l0.058,0.032l0.04,0.049l0.031,0.049l0.017,0.056l0.008,0.057l0,0l-0.008,0.072
		l-0.017,0.057l-0.023,0.049l-0.031,0.041l-0.042,0.032l-0.05,0.016l-0.054,0.017h-0.058l0.242,0.405h-0.16l-0.244-0.405h-0.202
		v0.405 M367.128,202.776L367.128,202.776l0.073-0.017l0.056-0.008l0.05-0.016l0.042-0.017l0.031-0.024l0.017-0.025l0.017-0.039
		v-0.057l0,0l-0.01-0.041l-0.015-0.033l-0.027-0.016l-0.023-0.016l-0.04-0.008l-0.042-0.007h-0.04h-0.048h-0.244v0.323
		L367.128,202.776 M367.128,203.755L367.128,203.755l0.188-0.016l0.179-0.057l0.152-0.088l0.129-0.115l0.106-0.136l0.081-0.154
		l0.048-0.179l0.017-0.194l0,0l-0.017-0.194l-0.048-0.179l-0.081-0.161l-0.106-0.139l-0.129-0.113l-0.152-0.08l-0.179-0.057
		l-0.188-0.017l0,0l-0.185,0.017l-0.177,0.057l-0.156,0.08l-0.129,0.113l-0.104,0.139l-0.081,0.161l-0.048,0.179l-0.017,0.194l0,0
		l0.017,0.194l0.048,0.179l0.081,0.154l0.104,0.136l0.129,0.115l0.156,0.088l0.177,0.057L367.128,203.755"/>
	<polygon class="st4" points="351.882,203.877 354.165,203.877 354.165,203.877 354.984,199.27 355.015,199.093 355.063,198.914 
		355.113,198.736 355.178,198.558 355.259,198.38 355.355,198.209 355.461,198.048 355.592,197.894 355.736,197.757 
		355.898,197.626 356.084,197.504 356.294,197.407 356.53,197.327 356.788,197.262 357.071,197.213 357.388,197.196 
		357.503,197.196 357.565,197.196 357.59,197.196 357.59,197.196 357.955,195.116 357.728,195.132 357.509,195.158 357.307,195.197 
		357.113,195.253 356.934,195.318 356.765,195.401 356.603,195.489 356.451,195.586 356.303,195.7 356.165,195.813 356.036,195.943 
		355.907,196.072 355.784,196.21 355.665,196.363 355.542,196.509 355.428,196.671 355.671,195.206 353.396,195.206 
		351.882,203.877 351.882,203.877 	"/>
	<polyline class="st5" points="351.882,203.877 354.165,203.877 354.165,203.877 354.984,199.27 354.984,199.27 355.015,199.093 
		355.063,198.914 355.113,198.736 355.178,198.558 355.259,198.38 355.355,198.209 355.461,198.048 355.592,197.894 
		355.736,197.757 355.898,197.626 356.084,197.504 356.294,197.407 356.53,197.327 356.788,197.262 357.071,197.213 
		357.388,197.196 357.388,197.196 357.503,197.196 357.565,197.196 357.59,197.196 357.59,197.196 357.955,195.116 357.955,195.116 
		357.728,195.132 357.509,195.158 357.307,195.197 357.113,195.253 356.934,195.318 356.765,195.401 356.603,195.489 
		356.451,195.586 356.303,195.7 356.165,195.813 356.036,195.943 355.907,196.072 355.784,196.21 355.665,196.363 355.542,196.509 
		355.428,196.671 355.671,195.206 353.396,195.206 351.882,203.877 351.882,203.877 	"/>
	<polygon class="st4" points="330.442,203.877 332.726,203.877 332.765,203.877 333.542,199.27 333.576,199.093 333.615,198.922 
		333.657,198.752 333.713,198.59 333.778,198.428 333.859,198.274 333.955,198.128 334.069,197.991 334.199,197.868 
		334.344,197.748 334.522,197.65 334.717,197.562 334.944,197.488 335.194,197.425 335.469,197.383 335.786,197.359 
		335.809,197.359 335.842,197.367 335.882,197.375 335.924,197.375 335.965,197.383 335.997,197.391 336.019,197.4 336.028,197.4 
		336.038,197.367 336.061,197.27 336.092,197.125 336.134,196.946 336.19,196.736 336.246,196.509 336.321,196.282 336.392,196.054 
		336.459,195.901 336.54,195.747 336.619,195.594 336.701,195.457 336.774,195.336 336.83,195.238 336.869,195.182 336.886,195.158 
		336.878,195.158 336.846,195.149 336.805,195.14 336.749,195.132 336.692,195.132 336.628,195.125 336.572,195.116 
		336.515,195.116 336.263,195.132 336.038,195.158 335.826,195.197 335.632,195.247 335.444,195.311 335.276,195.392 
		335.121,195.472 334.976,195.569 334.838,195.675 334.709,195.797 334.588,195.918 334.465,196.054 334.344,196.193 
		334.23,196.348 334.109,196.509 333.988,196.671 334.28,195.206 331.957,195.206 330.442,203.877 330.442,203.877 	"/>
	<polyline class="st5" points="330.442,203.877 332.726,203.877 332.765,203.877 333.542,199.27 333.542,199.27 333.576,199.093 
		333.615,198.922 333.657,198.752 333.713,198.59 333.778,198.428 333.859,198.274 333.955,198.128 334.069,197.991 
		334.199,197.868 334.344,197.748 334.522,197.65 334.717,197.562 334.944,197.488 335.194,197.425 335.469,197.383 
		335.786,197.359 335.786,197.359 335.809,197.359 335.842,197.367 335.882,197.375 335.924,197.375 335.965,197.383 
		335.997,197.391 336.019,197.4 336.028,197.4 336.028,197.4 336.038,197.367 336.061,197.27 336.092,197.125 336.134,196.946 
		336.19,196.736 336.246,196.509 336.321,196.282 336.392,196.054 336.392,196.054 336.459,195.901 336.54,195.747 336.619,195.594 
		336.701,195.457 336.774,195.336 336.83,195.238 336.869,195.182 336.886,195.158 336.886,195.158 336.878,195.158 
		336.846,195.149 336.805,195.14 336.749,195.132 336.692,195.132 336.628,195.125 336.572,195.116 336.515,195.116 
		336.515,195.116 336.263,195.132 336.038,195.158 335.826,195.197 335.632,195.247 335.444,195.311 335.276,195.392 
		335.121,195.472 334.976,195.569 334.838,195.675 334.709,195.797 334.588,195.918 334.465,196.054 334.344,196.193 
		334.23,196.348 334.109,196.509 333.988,196.671 334.28,195.206 331.957,195.206 330.442,203.877 330.442,203.877 	"/>
	<polygon class="st2" points="366.011,212.395 366.011,212.362 366.076,212.152 366.19,211.966 366.328,211.804 366.496,211.675 
		366.69,211.577 366.9,211.521 367.128,211.496 367.357,211.521 367.565,211.577 367.761,211.675 367.93,211.804 368.067,211.966 
		368.18,212.152 368.246,212.362 368.246,212.395 368.011,212.395 367.963,212.226 367.882,212.072 367.775,211.933 367.646,211.82 
		367.494,211.731 367.315,211.675 367.128,211.658 366.942,211.675 366.765,211.731 366.609,211.82 366.48,211.933 366.375,212.072 
		366.294,212.226 366.246,212.395 366.011,212.395 	"/>
	<polygon class="st2" points="366.723,212.395 366.723,212.113 367.169,212.113 367.267,212.113 367.357,212.128 367.419,212.143 
		367.478,212.175 367.517,212.217 367.548,212.266 367.565,212.322 367.573,212.395 367.413,212.395 367.413,212.354 
		367.403,212.314 367.388,212.281 367.361,212.266 367.338,212.249 367.298,212.241 367.257,212.233 367.217,212.233 
		367.169,212.233 366.926,212.233 366.926,212.395 366.723,212.395 	"/>
	<polygon class="st2" points="365.988,212.573 366.011,212.395 366.246,212.395 366.246,212.402 366.23,212.573 365.988,212.573 	
		"/>
	<polygon class="st2" points="366.723,212.573 366.723,212.395 366.926,212.395 366.926,212.556 367.128,212.556 367.201,212.541 
		367.257,212.533 367.307,212.516 367.348,212.5 367.38,212.476 367.396,212.451 367.413,212.412 367.413,212.395 367.573,212.395 
		367.573,212.395 367.565,212.451 367.548,212.5 367.526,212.541 367.494,212.573 366.723,212.573 	"/>
	<polygon class="st2" points="368.028,212.573 368.011,212.402 368.011,212.395 368.246,212.395 368.271,212.573 368.028,212.573 	
		"/>
	<polygon class="st2" points="365.988,212.573 365.988,212.597 366.011,212.831 366.076,213.05 366.19,213.245 366.328,213.415 
		366.496,213.553 366.69,213.649 366.9,213.715 367.128,213.739 367.357,213.715 367.565,213.649 367.761,213.553 367.93,213.415 
		368.067,213.245 368.18,213.05 368.246,212.831 368.271,212.597 368.271,212.573 368.028,212.573 368.028,212.597 368.011,212.792 
		367.963,212.97 367.882,213.123 367.775,213.259 367.646,213.375 367.494,213.464 367.315,213.52 367.128,213.537 366.942,213.52 
		366.765,213.464 366.609,213.375 366.48,213.259 366.375,213.123 366.294,212.97 366.246,212.792 366.23,212.597 366.23,212.573 
		365.988,212.573 	"/>
	<polygon class="st2" points="366.723,212.573 366.723,213.043 366.926,213.043 366.926,212.637 367.128,212.637 367.371,213.043 
		367.532,213.043 367.29,212.637 367.348,212.637 367.403,212.622 367.453,212.605 367.494,212.573 367.494,212.573 
		366.723,212.573 	"/>
	<path class="st4" d="M330.692,197.787l-0.065-0.484l-0.113-0.43l-0.163-0.372l-0.202-0.324l-0.244-0.276l-0.267-0.226l-0.292-0.194
		l-0.315-0.145l-0.325-0.123l-0.333-0.081l-0.329-0.056l-0.333-0.032l-0.315-0.009l-0.656,0.034l-0.583,0.096l-0.527,0.146
		l-0.469,0.203l-0.406,0.243l-0.356,0.275l-0.315,0.307l-0.26,0.324l-0.225,0.34l-0.188,0.356l-0.144,0.349l-0.123,0.346
		l-0.09,0.342l-0.065,0.315l-0.048,0.3l-0.033,0.259l-0.04,0.664l0.023,0.598l0.09,0.543l0.137,0.478l0.196,0.429l0.233,0.373
		l0.275,0.332l0.317,0.275l0.34,0.235l0.365,0.202l0.381,0.155l0.396,0.12l0.406,0.098l0.404,0.057l0.404,0.041l0.398,0.007h0.267
		l0.25-0.007h0.219l0.21-0.009l0.188-0.016l0.169-0.016l0.162-0.017l0.146-0.025l0.137-0.025l0.129-0.031l0.131-0.041l0.121-0.04
		l0.121-0.05l0.129-0.047l0.131-0.066l0.129-0.064l0.325-1.992l-0.238,0.138l-0.225,0.128l-0.235,0.098l-0.227,0.089l-0.219,0.073
		l-0.225,0.048l-0.221,0.041l-0.219,0.032l-0.217,0.017l-0.212,0.008h-0.219l-0.208-0.008l-0.212-0.017l-0.21-0.024l-0.2-0.025
		l-0.212-0.032l-0.162-0.033l-0.16-0.057l-0.165-0.072l-0.144-0.09l-0.146-0.096l-0.129-0.12l-0.121-0.122l-0.115-0.139
		l-0.098-0.137l-0.087-0.153l-0.065-0.147l-0.058-0.154l-0.033-0.154l-0.012-0.154l0.006-0.136l0.019-0.105h5.252l0.042-0.494
		l0.121-0.681l0.056-0.616L330.692,197.787z M328.499,198.533h-2.958l0.002-0.007l-0.004-0.001l0.021-0.113l0.033-0.17l0.048-0.162
		l0.056-0.161l0.073-0.145l0.075-0.139l0.087-0.131l0.098-0.121l0.106-0.113l0.102-0.097l0.123-0.089l0.121-0.073l0.14-0.065
		l0.137-0.047l0.138-0.033l0.144-0.024l0.156-0.008l0.144,0.017l0.137,0.024l0.131,0.033l0.127,0.047l0.123,0.065l0.121,0.073
		l0.106,0.081l0.096,0.097l0.081,0.113l0.081,0.121l0.056,0.139l0.058,0.154l0.031,0.161l0.017,0.179l0.008,0.194L328.499,198.533z"
		/>
</g>
<g>
	<path d="M168.053,25.969v5.481h12.868v2.974h-12.868v6.011h13.692v3.395h-18.899V22.574h18.779v3.395H168.053z"/>
	<path d="M203.279,22.574h5.207v14.139c0,2.958-0.733,4.916-2.201,5.871s-4.468,1.433-8.998,1.433c-4.785,0-7.921-0.452-9.409-1.355
		c-1.488-0.903-2.232-2.808-2.232-5.715V22.574h5.208v14.373c0,1.568,0.361,2.562,1.086,2.982c0.724,0.42,2.426,0.631,5.106,0.631
		c2.748,0,4.474-0.213,5.178-0.639c0.703-0.425,1.056-1.469,1.056-3.13V22.574z"/>
	<path d="M213.292,43.83V22.574h13.531c3.364,0,5.683,0.452,6.957,1.354c1.272,0.903,1.91,2.539,1.91,4.905
		c0,2.149-0.319,3.618-0.955,4.407c-0.638,0.789-1.94,1.334-3.911,1.635v0.14c3.043,0.146,4.564,1.521,4.564,4.126v4.687h-5.208
		v-3.877c0-2.19-1.395-3.286-4.182-3.286h-7.5v7.163H213.292z M218.499,33.272h7.479c1.782,0,2.966-0.247,3.549-0.74
		c0.583-0.493,0.875-1.482,0.875-2.966c0-1.516-0.252-2.494-0.754-2.936c-0.503-0.441-1.605-0.662-3.308-0.662h-7.842V33.272z"/>
	<path d="M251.231,22.387c4.986,0,8.197,0.641,9.631,1.923c1.435,1.282,2.151,4.15,2.151,8.603c0,4.869-0.721,7.937-2.161,9.203
		s-4.93,1.9-10.465,1.9c-4.986,0-8.211-0.625-9.671-1.876c-1.462-1.251-2.192-4.004-2.192-8.261c0-5.066,0.717-8.248,2.151-9.546
		C242.11,23.036,245.629,22.387,251.231,22.387z M250.83,25.844c-3.499,0-5.543,0.348-6.133,1.043
		c-0.59,0.695-0.885,3.104-0.885,7.225c0,3.052,0.345,4.89,1.036,5.512c0.689,0.623,2.724,0.935,6.102,0.935
		c3.23,0,5.168-0.351,5.811-1.051c0.644-0.701,0.966-2.826,0.966-6.376c0-3.561-0.306-5.666-0.915-6.314
		C256.201,26.169,254.208,25.844,250.83,25.844z"/>
	<path d="M283.482,36.246h5.228v0.732c0,2.958-0.697,4.872-2.091,5.738c-1.395,0.867-4.478,1.3-9.249,1.3
		c-5.415,0-8.746-0.686-9.993-2.056c-1.246-1.37-1.869-5.035-1.869-10.994c0-3.509,0.844-5.816,2.533-6.921
		c1.688-1.106,5.221-1.659,10.596-1.659c3.914,0,6.527,0.454,7.842,1.363c1.313,0.908,1.97,2.712,1.97,5.411l0.021,0.482h-5.228
		v-0.545c0-1.391-0.339-2.281-1.016-2.67s-2.222-0.584-4.635-0.584c-3.23,0-5.17,0.306-5.82,0.918
		c-0.65,0.613-0.976,2.429-0.976,5.45c0,4.07,0.292,6.478,0.875,7.226s2.47,1.121,5.66,1.121c2.587,0,4.266-0.208,5.036-0.623
		c0.771-0.415,1.156-1.329,1.156-2.741L283.482,36.246z"/>
	<path d="M308.595,39.75h-11.843l-1.709,4.08h-5.509l9.128-21.255h7.821l9.27,21.255h-5.409L308.595,39.75z M307.389,36.775
		l-4.745-11.071l-4.665,11.071H307.389z"/>
	<path d="M318.125,43.83V22.574h13.531c3.364,0,5.683,0.452,6.957,1.354c1.272,0.903,1.91,2.539,1.91,4.905
		c0,2.149-0.319,3.618-0.955,4.407c-0.638,0.789-1.94,1.334-3.911,1.635v0.14c3.043,0.146,4.564,1.521,4.564,4.126v4.687h-5.208
		v-3.877c0-2.19-1.395-3.286-4.182-3.286h-7.5v7.163H318.125z M323.332,33.272h7.479c1.782,0,2.966-0.247,3.549-0.74
		c0.583-0.493,0.875-1.482,0.875-2.966c0-1.516-0.252-2.494-0.754-2.936c-0.503-0.441-1.605-0.662-3.308-0.662h-7.842V33.272z"/>
	<path d="M344.665,43.83V22.574h13.491c3.833,0,6.518,0.649,8.052,1.946c1.535,1.298,2.303,3.571,2.303,6.82
		c0,5.305-0.617,8.712-1.85,10.223c-1.233,1.51-4.015,2.266-8.345,2.266H344.665z M349.872,40.435h7.419
		c2.493,0,4.105-0.444,4.836-1.332s1.096-2.847,1.096-5.878c0-3.135-0.328-5.128-0.985-5.979c-0.656-0.851-2.198-1.277-4.624-1.277
		h-7.741V40.435z"/>
</g>
</svg>
