<?xml version="1.0" encoding="utf-8"?>
<!-- Generator: Adobe Illustrator 24.1.0, SVG Export Plug-In . SVG Version: 6.00 Build 0)  -->
<svg version="1.1" id="Layer_1" xmlns="http://www.w3.org/2000/svg" xmlns:xlink="http://www.w3.org/1999/xlink" x="0px" y="0px"
	 viewBox="0 0 390 245" style="enable-background:new 0 0 390 245;" xml:space="preserve">
<style type="text/css">
	.st0{fill:#004A97;}
	.st1{fill:#FFFFFF;}
</style>
<g>
	<g>
		<path class="st0" d="M215.8,225.7c56.8,0.3,108.6-46.3,108.6-102.9c0-61.9-51.8-104.7-108.6-104.7H167
			C109.5,18,62.2,60.8,62.2,122.8c0,56.7,47.3,103.2,104.7,102.9C167,225.7,215.8,225.7,215.8,225.7z"/>
		<path class="st1" d="M188.8,177.9V65.5c22.6,8.7,38.7,30.6,38.7,56.2C227.4,147.4,211.4,169.2,188.8,177.9 M107,121.7
			C107,96,123,74.2,145.6,65.5v112.5C123,169.2,107,147.4,107,121.7 M167.2,26.6c-52.5,0-95,42.6-95,95.1c0,52.5,42.6,95,95,95
			c52.5,0,95-42.5,95-95C262.2,69.2,219.7,26.7,167.2,26.6"/>
	</g>
</g>
</svg>
