<?xml version="1.0" encoding="utf-8"?>
<!-- Generator: Adobe Illustrator 17.1.0, SVG Export Plug-In . SVG Version: 6.00 Build 0)  -->
<!DOCTYPE svg PUBLIC "-//W3C//DTD SVG 1.1//EN" "http://www.w3.org/Graphics/SVG/1.1/DTD/svg11.dtd">
<svg version="1.1" id="Layer_1" xmlns="http://www.w3.org/2000/svg" xmlns:xlink="http://www.w3.org/1999/xlink" x="0px" y="0px"
	 width="390px" height="245px" viewBox="868 279 390 245" style="enable-background:new 868 279 390 245;" xml:space="preserve">
<style type="text/css">
	.st0{fill:url(#SVGID_1_);}
	.st1{fill:#FFFFFF;}
	.st2{fill:url(#SVGID_2_);}
	.st3{fill:url(#SVGID_3_);}
	.st4{fill:url(#SVGID_4_);}
	.st5{fill:#FBB230;}
	.st6{fill:#EB2230;}
	.st7{fill:none;stroke:#FFFFFF;stroke-width:0.216;stroke-miterlimit:2.6131;}
	.st8{fill:url(#SVGID_5_);}
	.st9{fill:url(#SVGID_6_);}
	.st10{fill:url(#SVGID_7_);}
	.st11{fill:#081A23;}
	.st12{fill:#231F20;}
	.st13{fill:url(#SVGID_8_);}
	.st14{fill:#0078A9;}
	.st15{fill:url(#SVGID_9_);}
	.st16{fill:#004A97;}
</style>
<linearGradient id="SVGID_1_" gradientUnits="userSpaceOnUse" x1="1137.6385" y1="-2.2549" x2="992.4517" y2="-302.2924" gradientTransform="matrix(1 0 0 -1 0 245)">
	<stop  offset="0" style="stop-color:#3A5264"/>
	<stop  offset="0.0136" style="stop-color:#3A5466"/>
	<stop  offset="0.1763" style="stop-color:#436074"/>
	<stop  offset="0.3429" style="stop-color:#49687D"/>
	<stop  offset="0.518" style="stop-color:#4B6B80"/>
	<stop  offset="0.6717" style="stop-color:#48677C"/>
	<stop  offset="0.8718" style="stop-color:#405C6F"/>
	<stop  offset="1" style="stop-color:#3A5264"/>
</linearGradient>
<path class="st0" d="M1258,508c0,8.837-7.163,16-16,16H884c-8.837,0-16-7.163-16-16V295c0-8.837,7.163-16,16-16h358
	c8.837,0,16,7.163,16,16V508z"/>
<linearGradient id="SVGID_2_" gradientUnits="userSpaceOnUse" x1="953.4932" y1="-101.7095" x2="920.9034" y2="-147.3352" gradientTransform="matrix(1 0 0 -1 0 245)">
	<stop  offset="0" style="stop-color:#C3892B"/>
	<stop  offset="0.1931" style="stop-color:#D29A32"/>
	<stop  offset="0.4118" style="stop-color:#E0AA3A"/>
	<stop  offset="0.5816" style="stop-color:#E6B13D"/>
	<stop  offset="0.7071" style="stop-color:#DFA939"/>
	<stop  offset="0.8922" style="stop-color:#CE952F"/>
	<stop  offset="1" style="stop-color:#C3892B"/>
</linearGradient>
<path class="st2" d="M968.5,388c0,2.209-1.791,4-4,4h-51c-2.209,0-4-1.791-4-4v-42c0-2.209,1.791-4,4-4h51c2.209,0,4,1.791,4,4V388z
	"/>
</svg>
