<?xml version="1.0" encoding="utf-8"?>
<!-- Generator: Adobe Illustrator 24.1.0, SVG Export Plug-In . SVG Version: 6.00 Build 0)  -->
<svg version="1.1" id="Layer_1" xmlns="http://www.w3.org/2000/svg" xmlns:xlink="http://www.w3.org/1999/xlink" x="0px" y="0px"
	 viewBox="0 0 390 245" style="enable-background:new 0 0 390 245;" xml:space="preserve">
<style type="text/css">
	.st0{fill:#FFFFFF;}
</style>
<g>
	<polygon class="st0" points="160.9,170 134.9,170 151.2,70.2 177.1,70.2 	"/>
	<path class="st0" d="M113.1,70.2l-24.8,68.6l-2.9-14.8v0l-8.7-44.9c0,0-1.1-9-12.3-9h-41l-0.5,1.7c0,0,12.5,2.6,27.2,11.4L72.6,170
		h27.1L141,70.2L113.1,70.2C113.1,70.2,113.1,70.2,113.1,70.2z"/>
	<path class="st0" d="M317.4,170h23.9l-20.8-99.8h-20.9c-9.6,0-12,7.4-12,7.4L248.9,170h27.1l5.4-14.8h33L317.4,170z M288.8,134.7
		l13.6-37.4l7.7,37.4H288.8z"/>
	<path class="st0" d="M250.9,94.2l3.7-21.4c0,0-11.4-4.3-23.4-4.3c-12.9,0-43.5,5.6-43.5,33c0,25.8,35.9,26.1,35.9,39.6
		c0,13.5-32.2,11.1-42.9,2.6l-3.9,22.4c0,0,11.6,5.6,29.3,5.6c17.7,0,44.5-9.2,44.5-34.2c0-25.9-36.3-28.4-36.3-39.6
		C214.5,86.6,239.8,88.1,250.9,94.2z"/>
</g>
</svg>
