<?xml version="1.0" encoding="utf-8"?>
<!-- Generator: Adobe Illustrator 17.1.0, SVG Export Plug-In . SVG Version: 6.00 Build 0)  -->
<!DOCTYPE svg PUBLIC "-//W3C//DTD SVG 1.1//EN" "http://www.w3.org/Graphics/SVG/1.1/DTD/svg11.dtd">
<svg version="1.1" id="Layer_1" xmlns="http://www.w3.org/2000/svg" xmlns:xlink="http://www.w3.org/1999/xlink" x="0px" y="0px"
	 width="390px" height="245px" viewBox="0 0 390 245" style="enable-background:new 0 0 390 245;" xml:space="preserve">
<style type="text/css">
	.st0{fill:url(#SVGID_1_);}
	.st1{fill:url(#SVGID_2_);}
	.st2{fill:#FFFFFF;}
	.st3{fill:url(#SVGID_3_);}
	.st4{fill:url(#SVGID_4_);}
	.st5{fill:url(#SVGID_5_);}
	.st6{fill:url(#SVGID_6_);}
	.st7{fill:url(#SVGID_7_);}
	.st8{fill:url(#SVGID_8_);}
	.st9{fill:url(#SVGID_9_);}
	.st10{fill:url(#SVGID_10_);}
	.st11{fill:#DCDBDA;}
	.st12{fill:#C3C4C4;}
	.st13{fill-rule:evenodd;clip-rule:evenodd;fill:#FBB230;}
	.st14{fill-rule:evenodd;clip-rule:evenodd;fill:#EB2230;}
	.st15{fill-rule:evenodd;clip-rule:evenodd;fill:#FFFFFF;}
	.st16{fill:none;stroke:#FFFFFF;stroke-width:0.216;stroke-miterlimit:2.6131;}
	.st17{fill:url(#SVGID_11_);}
	.st18{fill:url(#SVGID_12_);}
	.st19{fill:url(#SVGID_13_);}
	.st20{fill:url(#SVGID_14_);}
	.st21{fill:url(#SVGID_15_);}
	.st22{fill:#081A23;}
	.st23{fill:#231F20;}
	.st24{fill:#0078A9;}
	.st25{fill:#004A97;}
</style>
<linearGradient id="SVGID_1_" gradientUnits="userSpaceOnUse" x1="269.6385" y1="-31.7451" x2="124.4517" y2="268.2924">
	<stop  offset="0" style="stop-color:#057BAB"/>
	<stop  offset="0.2685" style="stop-color:#0B89B8"/>
	<stop  offset="0.5272" style="stop-color:#0F94C2"/>
	<stop  offset="0.9432" style="stop-color:#077EAE"/>
	<stop  offset="1" style="stop-color:#057BAB"/>
</linearGradient>
<path class="st0" d="M390,229c0,8.837-7.163,16-16,16H16c-8.837,0-16-7.163-16-16V16C0,7.163,7.163,0,16,0h358
	c8.837,0,16,7.163,16,16V229z"/>
<linearGradient id="SVGID_2_" gradientUnits="userSpaceOnUse" x1="85.4932" y1="67.7095" x2="52.9034" y2="113.3352">
	<stop  offset="0" style="stop-color:#C3892B"/>
	<stop  offset="0.1931" style="stop-color:#D29A32"/>
	<stop  offset="0.4118" style="stop-color:#E0AA3A"/>
	<stop  offset="0.5816" style="stop-color:#E6B13D"/>
	<stop  offset="0.7071" style="stop-color:#DFA939"/>
	<stop  offset="0.8922" style="stop-color:#CE952F"/>
	<stop  offset="1" style="stop-color:#C3892B"/>
</linearGradient>
<path class="st1" d="M100.5,109c0,2.209-1.791,4-4,4h-51c-2.209,0-4-1.791-4-4V67c0-2.209,1.791-4,4-4h51c2.209,0,4,1.791,4,4V109z"
	/>
<g>
	<g>
		<g>
			<path class="st2" d="M268.541,45.134V43.5l-0.782,1.634h-6.77l-0.85-1.754v1.754h-12.653l-1.494-3.539h-2.536l-1.584,3.539
				h-6.561l-4.819,0.02l9.629-21.584h9.208l1.293,3.083v-3.06h11.26l2.477,5.191l2.424-5.214h35.55c0,0,1.864-0.025,3.091,0.838
				l-0.008-0.838h8.956v1.179c0,0,1.611-1.179,3.992-1.179c2.38,0,15.805,0,15.805,0l1.388,3.129v-3.129h10.127l1.838,3.129v-3.129
				h9.682v21.584h-9.947l-2.337-3.763v3.742h-12.363l-1.739-3.854h-2.424l-1.629,3.854h-7.482c0,0-2.79-0.036-4.883-1.533
				c0,0.784,0,1.533,0,1.533h-14.896c0,0,0-4.303,0-5.036c0-0.731-0.56-0.68-0.56-0.68h-0.545v5.715H268.541z"/>
			<path class="st2" d="M261.107,49.808h19.573l2.826,3.198l2.89-3.198h15.049c0,0,1.413,0.036,2.755,0.751v-0.751
				c0,0,11.703,0,13.401,0c1.701,0,3.129,0.85,3.129,0.85v-0.85h17.225v0.784c0,0,1.227-0.784,2.877-0.784
				c1.647,0,11.222,0,11.222,0v0.784c0,0,1.413-0.784,2.907-0.784c1.497,0,10.917,0,10.917,0v8.601l-1.833,0.012l-0.272,11.726
				c0,0-1.158,1.311-3.554,1.311H348.6v-0.647c0,0-1.105,0.647-2.79,0.647c-1.683,0-30.858,0-30.858,0s0-4.735,0-5.257
				c0-0.517-0.224-0.611-0.685-0.611h-0.425v5.868h-9.644v-5.833c0,0-1.069,0.575-2.856,0.575c-1.785,0-3.468,0-3.468,0v5.257
				h-11.887l-2.704-3.299l-2.892,3.299h-19.285V49.808z"/>
			<polygon class="st24" points="322.795,53.054 335.079,53.054 335.079,56.349 326.556,56.349 326.556,59.22 334.84,59.22 
				334.84,62.123 326.556,62.123 326.556,65.145 335.079,65.145 335.079,68.357 322.795,68.357 			"/>
			<path class="st24" d="M358.809,59.017c4.616,0.237,5.003,2.543,5.003,5.003c0,2.867-2.357,4.407-4.817,4.407h-7.892v-3.282h6.148
				c1.044,0,2.597,0,2.597-1.469c0-0.698-0.272-1.143-1.382-1.26c-0.494-0.071-2.319-0.173-2.597-0.178
				c-4.17-0.109-5.143-2.184-5.143-4.71c0-2.869,2.016-4.437,4.478-4.437h7.89v3.279h-5.774c-1.314,0.013-2.732-0.155-2.732,1.329
				c0,0.939,0.7,1.128,1.589,1.214C356.485,58.912,358.534,59.019,358.809,59.017z"/>
			<path class="st24" d="M344.662,59.017c4.618,0.237,5.005,2.543,5.005,5.003c0,2.867-2.355,4.407-4.817,4.407h-7.89v-3.282h6.148
				c1.041,0,2.597,0,2.597-1.469c0-0.698-0.275-1.143-1.385-1.26c-0.494-0.071-2.322-0.173-2.594-0.178
				c-4.175-0.109-5.14-2.184-5.14-4.71c0-2.869,2.014-4.437,4.473-4.437h7.89v3.279h-5.771c-1.316,0.013-2.734-0.155-2.734,1.329
				c0,0.939,0.703,1.128,1.591,1.214C342.34,58.912,344.389,59.019,344.662,59.017z"/>
			<path class="st24" d="M300.114,53.088h-13.185l-4.305,4.748l-4.165-4.781H263.65v15.303h14.328l4.511-5.056l4.404,5.092h7.21
				v-5.196h5.054c1.948,0,5.502-0.066,5.502-5.43C304.659,53.94,301.96,53.088,300.114,53.088z M276.018,65.145h-8.664v-3.022h8.287
				V59.22h-8.287v-2.872l9.137,0.02l3.658,4.165L276.018,65.145z M290.379,66.922l-5.397-6.388l5.397-5.978V66.922z M298.849,60.045
				h-4.679v-3.674h4.695c1.573,0,2.07,1.008,2.07,1.759C300.934,59.157,300.387,60.045,298.849,60.045z"/>
			<path class="st24" d="M318.264,61.423c2.052-1.023,2.597-2.391,2.597-4.236c0-3.277-2.663-4.096-4.509-4.096h-9.769v15.303h3.758
				v-5.4h4.919c1.298,0,1.81,1.298,1.843,2.597l0.099,2.803h3.658l-0.138-3.144C320.723,62.787,320.043,61.626,318.264,61.423z
				 M315.02,59.839h-4.679v-3.467h4.694c1.571,0,2.067,1.008,2.067,1.759C317.103,59.154,316.558,59.839,315.02,59.839z"/>
			<rect x="308.088" y="26.636" class="st24" width="3.758" height="15.321"/>
			<polygon class="st24" points="277.331,26.654 289.61,26.654 289.61,29.948 281.089,29.948 281.089,32.82 289.371,32.82 
				289.371,35.722 281.089,35.722 281.089,38.744 289.61,38.744 289.61,41.957 277.331,41.957 			"/>
			<path class="st24" d="M303.523,34.986c2.052-1.021,2.597-2.39,2.597-4.236c0-3.279-2.665-4.096-4.509-4.096h-9.771v15.303h3.758
				V36.56h4.919c1.298,0,1.813,1.296,1.846,2.594l0.102,2.803h3.656l-0.135-3.144C305.985,36.354,305.3,35.193,303.523,34.986z
				 M300.277,33.403h-4.679v-3.468h4.697c1.568,0,2.067,1.008,2.067,1.759C302.362,32.721,301.815,33.403,300.277,33.403z"/>
			<path class="st24" d="M268.665,26.654l-4.611,10.265l-4.595-10.265h-5.891v14.738l-6.558-14.738h-4.972l-6.696,15.303h3.964
				l1.466-3.417h7.5l1.487,3.417h7.564v-11.36l5.023,11.36h3.417l5.14-11.171v11.171h3.758V26.654H268.665z M242.194,35.238
				l2.24-5.349l2.335,5.349H242.194z"/>
			<path class="st24" d="M350.616,26.646v10.596l-6.337-10.596h-5.553v14.371l-6.4-14.364h-4.972l-5.176,11.853
				c0,0-2.187,0-2.408-0.053c-0.904-0.186-2.319-0.825-2.337-3.523v-1.11c0-3.587,1.948-3.849,4.445-3.849h2.319v-3.325h-4.906
				c-1.708,0-5.425,1.303-5.55,7.589c-0.087,4.236,1.759,7.729,5.927,7.729h4.954l1.466-3.417h7.497l1.487,3.417h7.414V30.758
				l6.762,11.207h5.125V26.646H350.616z M327.538,35.246l2.238-5.349l2.357,5.349H327.538z"/>
		</g>
	</g>
	<path class="st2" d="M363.534,57.534c0,0,3.141,0.353,3.141,6.595c0,4.868-3.942,6.757-3.942,6.757l0.721-3.294
		c0,0,1.168-6.601-0.35-7.536C361.585,59.121,363.534,57.534,363.534,57.534z"/>
</g>
</svg>
