<?xml version="1.0" encoding="utf-8"?>
<!-- Generator: Adobe Illustrator 17.1.0, SVG Export Plug-In . SVG Version: 6.00 Build 0)  -->
<!DOCTYPE svg PUBLIC "-//W3C//DTD SVG 1.1//EN" "http://www.w3.org/Graphics/SVG/1.1/DTD/svg11.dtd">
<svg version="1.1" id="Layer_1" xmlns="http://www.w3.org/2000/svg" xmlns:xlink="http://www.w3.org/1999/xlink" x="0px" y="0px"
	 width="390px" height="245px" viewBox="0 0 390 245" style="enable-background:new 0 0 390 245;" xml:space="preserve">
<style type="text/css">
	.st0{fill:url(#SVGID_1_);}
	.st1{fill:url(#SVGID_2_);}
	.st2{fill:#FFFFFF;}
	.st3{fill:url(#SVGID_3_);}
	.st4{fill:url(#SVGID_4_);}
	.st5{fill:url(#SVGID_5_);}
	.st6{fill:url(#SVGID_6_);}
	.st7{fill:url(#SVGID_7_);}
	.st8{fill:url(#SVGID_8_);}
	.st9{fill:url(#SVGID_9_);}
	.st10{fill:url(#SVGID_10_);}
	.st11{fill:#DCDBDA;}
	.st12{fill:#C3C4C4;}
	.st13{fill-rule:evenodd;clip-rule:evenodd;fill:#FBB230;}
	.st14{fill-rule:evenodd;clip-rule:evenodd;fill:#EB2230;}
	.st15{fill-rule:evenodd;clip-rule:evenodd;fill:#FFFFFF;}
	.st16{fill:none;stroke:#FFFFFF;stroke-width:0.216;stroke-miterlimit:2.6131;}
	.st17{fill:url(#SVGID_11_);}
	.st18{fill:url(#SVGID_12_);}
	.st19{fill:url(#SVGID_13_);}
	.st20{fill:url(#SVGID_14_);}
	.st21{fill:url(#SVGID_15_);}
	.st22{fill:#081A23;}
	.st23{fill:#231F20;}
	.st24{fill:#0078A9;}
	.st25{fill:#004A97;}
</style>
<path class="st11" d="M390,229c0,8.837-7.163,16-16,16H16c-8.837,0-16-7.163-16-16V16C0,7.163,7.163,0,16,0h358
	c8.837,0,16,7.163,16,16V229z"/>
<path class="st12" d="M100.5,109c0,2.209-1.791,4-4,4h-51c-2.209,0-4-1.791-4-4V67c0-2.209,1.791-4,4-4h51c2.209,0,4,1.791,4,4V109z
	"/>
<circle class="st2" cx="45.213" cy="175.333" r="5.336"/>
<circle class="st2" cx="61.22" cy="175.333" r="5.336"/>
<circle class="st2" cx="77.226" cy="175.333" r="5.336"/>
<circle class="st2" cx="93.233" cy="175.333" r="5.336"/>
<circle class="st2" cx="124.653" cy="175.333" r="5.336"/>
<circle class="st2" cx="140.66" cy="175.333" r="5.336"/>
<circle class="st2" cx="156.667" cy="175.333" r="5.336"/>
<circle class="st2" cx="172.673" cy="175.333" r="5.336"/>
<circle class="st2" cx="206.07" cy="175.333" r="5.336"/>
<circle class="st2" cx="222.077" cy="175.333" r="5.336"/>
<circle class="st2" cx="238.083" cy="175.333" r="5.336"/>
<circle class="st2" cx="254.09" cy="175.333" r="5.336"/>
<circle class="st2" cx="287.486" cy="175.333" r="5.336"/>
<circle class="st2" cx="303.493" cy="175.333" r="5.336"/>
<circle class="st2" cx="319.5" cy="174.333" r="5.336"/>
<circle class="st2" cx="335.506" cy="174.333" r="5.336"/>
</svg>
