<?xml version="1.0" encoding="utf-8"?>
<!-- Generator: Adobe Illustrator 24.1.0, SVG Export Plug-In . SVG Version: 6.00 Build 0)  -->
<svg version="1.1" id="Layer_1" xmlns="http://www.w3.org/2000/svg" xmlns:xlink="http://www.w3.org/1999/xlink" x="0px" y="0px"
	 viewBox="0 0 390 245" style="enable-background:new 0 0 390 245;" xml:space="preserve">
<style type="text/css">
	.st0{fill:#FFFFFF;}
	.st1{fill:#0078A9;}
</style>
<g id="Layer_2_1_">
</g>
<g id="Layer_1_1_">
	<polyline class="st0" points="232.1,167.2 183.5,167.2 183.5,160 180.1,167.2 150,167.2 146.3,159.4 146.3,167.2 90.2,167.2 
		83.5,151.5 72.3,151.5 65.3,167.2 36.2,167.2 14.8,167.3 57.5,71.6 98.3,71.6 104.1,85.3 104.1,71.7 154,71.7 165,94.7 175.7,71.6 
		237.6,71.6 	"/>
	<polygon class="st0" points="375.2,71.6 318.1,71.6 305.3,85.8 294,71.6 210.7,71.5 210.7,167.3 292.9,167.3 305.3,153.1 
		317.4,167.4 373.7,167.4 334.7,119.2 	"/>
	<path class="st1" d="M276.8,139.4h-38.4v-13.4h36.7v-12.9h-36.7v-12.7l40.5,0.1l16.2,18.5L276.8,139.4z M340.4,147.3L316.5,119
		l29.7-33l-21.1,0l-19.8,21.2l-17.8-21.4h-65.7v67.8h63.5l20-22.4l19.5,22.6h20.6L340.4,147.3z"/>
	<path class="st1" d="M184.1,85.3l-20.4,45.5l-20.4-45.5h-26.1v65.3L88.1,85.3H66l-29.7,67.8h17.6l6.5-15.1h33.3l6.6,15.1h33.5
		v-50.4l22.3,50.4h15.1l22.8-49.5v49.5h16.7V85.3H184.1z M66.7,123.3l9.9-23.7L87,123.3H66.7z"/>
</g>
</svg>
