<?xml version="1.0" encoding="utf-8"?>
<!-- Generator: Adobe Illustrator 17.1.0, SVG Export Plug-In . SVG Version: 6.00 Build 0)  -->
<!DOCTYPE svg PUBLIC "-//W3C//DTD SVG 1.1//EN" "http://www.w3.org/Graphics/SVG/1.1/DTD/svg11.dtd">
<svg version="1.1" id="Layer_1" xmlns="http://www.w3.org/2000/svg" xmlns:xlink="http://www.w3.org/1999/xlink" x="0px" y="0px"
	 width="390px" height="245px" viewBox="437 279 390 245" style="enable-background:new 437 279 390 245;" xml:space="preserve">
<style type="text/css">
	.st0{fill:url(#SVGID_1_);}
	.st1{fill:#FFFFFF;}
	.st2{fill:url(#SVGID_2_);}
	.st3{fill:url(#SVGID_3_);}
	.st4{fill:url(#SVGID_4_);}
	.st5{fill:#FBB230;}
	.st6{fill:#EB2230;}
	.st7{fill:none;stroke:#FFFFFF;stroke-width:0.216;stroke-miterlimit:2.6131;}
	.st8{fill:url(#SVGID_5_);}
	.st9{fill:url(#SVGID_6_);}
	.st10{fill:url(#SVGID_7_);}
	.st11{fill:#081A23;}
	.st12{fill:#231F20;}
	.st13{fill:url(#SVGID_8_);}
	.st14{fill:#0078A9;}
	.st15{fill:url(#SVGID_9_);}
	.st16{fill:#004A97;}
</style>
<linearGradient id="SVGID_1_" gradientUnits="userSpaceOnUse" x1="706.6385" y1="-2.2549" x2="561.4517" y2="-302.2924" gradientTransform="matrix(1 0 0 -1 0 245)">
	<stop  offset="0" style="stop-color:#333333"/>
	<stop  offset="0.3343" style="stop-color:#464646"/>
	<stop  offset="0.5272" style="stop-color:#4E4F4F"/>
	<stop  offset="0.8301" style="stop-color:#3D3E3D"/>
	<stop  offset="1" style="stop-color:#333333"/>
</linearGradient>
<path class="st0" d="M827,508c0,8.837-7.163,16-16,16H453c-8.837,0-16-7.163-16-16V295c0-8.837,7.163-16,16-16h358
	c8.837,0,16,7.163,16,16V508z"/>
<g>
	<polygon class="st5" points="683.934,481.589 688.181,481.48 692.372,481.175 696.478,480.654 700.563,479.927 704.531,479.012 
		708.445,477.902 712.27,476.596 716.012,475.126 719.676,473.464 723.23,471.661 726.671,469.66 730.029,467.525 733.247,465.225 
		736.352,462.781 739.351,460.201 742.209,457.452 744.958,454.594 747.535,451.592 749.986,448.49 752.282,445.269 
		754.417,441.914 756.418,438.466 758.218,434.915 759.88,431.259 761.35,427.509 762.656,423.678 763.769,419.771 764.685,415.799 
		765.404,411.724 765.935,407.615 766.24,403.423 766.347,399.177 766.24,394.962 765.935,390.798 765.404,386.692 764.685,382.665 
		763.769,378.7 762.656,374.814 761.35,370.986 759.88,367.267 758.218,363.634 756.418,360.08 754.417,356.667 752.282,353.312 
		749.986,350.094 747.535,347.013 744.958,344.017 742.209,341.156 739.351,338.438 736.352,335.857 733.247,333.414 
		730.029,331.114 726.671,328.976 723.23,327.005 719.676,325.206 716.012,323.534 712.27,322.067 708.445,320.761 704.531,319.651 
		700.563,318.736 696.478,318.016 692.372,317.488 688.181,317.18 683.934,317.07 679.722,317.18 675.531,317.488 671.425,318.016 
		667.368,318.736 663.399,319.651 659.485,320.761 655.688,322.067 651.939,323.534 648.306,325.206 644.786,327.005 
		641.345,328.976 638.011,331.114 634.796,333.414 631.684,335.857 628.713,338.438 625.858,341.156 623.137,344.017 
		620.56,347.013 618.12,350.094 615.841,353.312 613.699,356.667 611.735,360.08 609.902,363.634 608.267,367.267 606.793,370.986 
		605.518,374.814 604.411,378.7 603.489,382.665 602.77,386.692 602.245,390.798 601.94,394.962 601.827,399.177 601.94,403.423 
		602.245,407.615 602.77,411.724 603.489,415.799 604.411,419.771 605.518,423.678 606.793,427.509 608.267,431.259 
		609.902,434.915 611.735,438.466 613.699,441.914 615.841,445.269 618.12,448.49 620.56,451.592 623.137,454.594 625.858,457.452 
		628.713,460.201 631.684,462.781 634.796,465.225 638.011,467.525 641.345,469.66 644.786,471.661 648.306,473.464 
		651.939,475.126 655.688,476.596 659.485,477.902 663.399,479.012 667.368,479.927 671.425,480.654 675.531,481.175 
		679.722,481.48 683.934,481.589 	"/>
	<polygon class="st6" points="573.889,481.589 578.101,481.48 582.293,481.175 586.405,480.654 590.453,479.927 594.421,479.012 
		598.328,477.902 602.132,476.596 605.881,475.126 609.514,473.464 613.041,471.661 616.478,469.66 619.809,467.525 
		623.031,465.225 626.136,462.781 629.107,460.201 631.962,457.452 634.683,454.594 637.267,451.592 639.704,448.49 
		641.979,445.269 644.115,441.914 646.085,438.466 647.919,434.915 649.557,431.259 651.027,427.509 652.305,423.678 
		653.412,419.771 654.331,415.799 655.047,411.724 655.582,407.615 655.88,403.423 655.99,399.177 655.88,394.962 655.582,390.798 
		655.047,386.692 654.331,382.665 653.412,378.7 652.305,374.814 651.027,370.986 649.557,367.267 647.919,363.634 646.085,360.08 
		644.115,356.667 641.979,353.312 639.704,350.094 637.267,347.013 634.683,344.017 631.962,341.156 629.107,338.438 
		626.136,335.857 623.031,333.414 619.809,331.114 616.478,328.976 613.041,327.005 609.514,325.206 605.881,323.534 
		602.132,322.067 598.328,320.761 594.421,319.651 590.453,318.736 586.405,318.016 582.293,317.488 578.101,317.18 573.889,317.07 
		569.64,317.18 565.448,317.488 561.342,318.016 557.261,318.736 553.296,319.651 549.385,320.761 545.55,322.067 541.808,323.534 
		538.144,325.206 534.597,327.005 531.156,328.976 527.794,331.114 524.573,333.414 521.468,335.857 518.469,338.438 
		515.611,341.156 512.862,344.017 510.285,347.013 507.845,350.094 505.539,353.312 503.403,356.667 501.405,360.08 
		499.606,363.634 497.934,367.267 496.47,370.986 495.165,374.814 494.051,378.7 493.136,382.665 492.416,386.692 491.888,390.798 
		491.58,394.962 491.474,399.177 491.58,403.423 491.888,407.615 492.416,411.724 493.136,415.799 494.051,419.771 495.165,423.678 
		496.47,427.509 497.934,431.259 499.606,434.915 501.405,438.466 503.403,441.914 505.539,445.269 507.845,448.49 510.285,451.592 
		512.862,454.594 515.611,457.452 518.469,460.201 521.468,462.781 524.573,465.225 527.794,467.525 531.156,469.66 
		534.597,471.661 538.144,473.464 541.808,475.126 545.55,476.596 549.385,477.902 553.296,479.012 557.261,479.927 
		561.342,480.654 565.448,481.175 569.64,481.48 573.889,481.589 	"/>
	<polygon class="st5" points="619.282,348.62 662.991,348.62 662.991,344.151 623.051,344.151 619.282,348.62 	"/>
	<polygon class="st5" points="612.736,358.552 662.991,358.552 662.991,354.083 615.371,354.083 612.736,358.552 	"/>
	<polygon class="st5" points="607.845,368.46 662.991,368.46 662.991,363.991 609.795,363.991 607.845,368.46 	"/>
	<polygon class="st5" points="604.49,378.395 662.991,378.395 662.991,373.93 605.881,373.93 604.49,378.395 	"/>
	<polygon class="st5" points="606.437,426.402 663.128,426.402 663.128,421.933 605.045,421.933 606.437,426.402 	"/>
	<polygon class="st5" points="610.621,436.334 663.128,436.334 663.128,431.865 608.544,431.865 610.621,436.334 	"/>
	<polygon class="st5" points="616.506,446.242 663.128,446.242 663.128,441.773 613.699,441.773 616.506,446.242 	"/>
	<polygon class="st5" points="624.607,456.174 663.128,456.174 663.128,451.677 620.697,451.677 624.607,456.174 	"/>
	<polygon class="st5" points="602.526,388.303 662.991,388.303 662.991,383.834 603.383,383.834 602.526,388.303 	"/>
	<polygon class="st5" points="639.375,416.498 662.429,416.498 662.429,412.026 640.201,412.026 639.375,416.498 	"/>
	<polygon class="st5" points="641.202,406.587 662.429,406.587 662.429,402.09 642.038,402.09 641.202,406.587 	"/>
	<polygon class="st5" points="600.998,402.09 606.988,402.09 606.988,406.587 601.275,406.587 600.998,402.09 	"/>
	<polygon class="st1" points="589.808,396.679 589.424,396.651 589.03,396.597 588.674,396.545 588.317,396.487 587.982,396.432 
		587.625,396.377 587.262,396.322 586.868,396.264 586.48,396.213 586.038,396.182 585.542,396.154 585.017,396.124 
		584.435,396.124 583.79,396.154 583.07,396.213 582.268,396.264 581.713,396.35 581.186,396.432 580.713,396.597 580.291,396.761 
		579.907,396.96 579.551,397.179 579.27,397.46 579.02,397.707 578.848,398.012 578.708,398.317 578.656,398.649 578.656,398.985 
		578.742,399.345 578.848,399.705 579.071,400.068 579.349,400.428 579.907,400.952 580.579,401.371 581.35,401.73 582.183,402.035 
		583.07,402.316 583.989,402.621 584.904,402.957 585.788,403.314 586.625,403.783 587.396,404.366 588.095,405.065 
		588.674,405.922 589.116,406.974 589.397,408.225 589.51,409.726 589.397,411.474 589.202,412.776 588.866,413.914 
		588.424,414.969 587.868,415.881 587.231,416.69 586.511,417.382 585.733,417.992 584.877,418.523 583.989,418.938 583.07,419.294 
		582.128,419.572 581.155,419.795 580.212,419.966 579.294,420.045 578.379,420.103 577.522,420.127 576.329,420.127 
		575.216,420.103 574.246,420.103 573.331,420.076 572.494,420.045 571.747,419.99 571.082,419.935 570.445,419.853 
		569.862,419.795 569.331,419.685 568.81,419.599 568.334,419.466 567.861,419.353 567.419,419.181 566.977,419.02 566.504,418.852 
		567.755,412.721 568.005,412.776 568.31,412.862 568.697,412.968 569.167,413.085 569.667,413.191 570.219,413.304 
		570.832,413.441 571.497,413.554 572.189,413.66 572.909,413.773 573.667,413.856 574.438,413.941 575.243,413.969 
		576.052,413.996 576.857,413.996 577.656,413.969 578.464,413.804 579.105,413.578 579.606,413.276 579.993,412.886 
		580.264,412.498 580.486,412.05 580.627,411.611 580.744,411.196 580.791,410.387 580.541,409.695 580.072,409.136 
		579.379,408.667 578.55,408.252 577.573,407.834 576.494,407.443 575.407,407.005 574.3,406.504 573.245,405.922 572.275,405.202 
		571.387,404.342 570.688,403.283 570.195,402.035 569.948,400.541 569.975,398.766 570.109,397.68 570.304,396.651 
		570.582,395.709 570.918,394.825 571.36,393.992 571.86,393.269 572.446,392.573 573.139,391.967 573.944,391.439 574.832,390.993 
		575.829,390.579 576.943,390.274 578.187,390.02 579.551,389.828 581.042,389.718 582.683,389.687 583.705,389.687 
		584.647,389.718 585.511,389.746 586.289,389.773 586.981,389.828 587.625,389.883 588.174,389.938 588.674,389.996 
		589.147,390.047 589.531,390.133 589.901,390.191 590.23,390.243 590.5,390.298 590.758,390.328 591.008,390.383 591.224,390.414 
		589.808,396.679 	"/>
	<polyline class="st7" points="589.808,396.679 589.808,396.679 589.424,396.651 589.03,396.597 588.674,396.545 588.317,396.487 
		587.982,396.432 587.625,396.377 587.262,396.322 586.868,396.264 586.48,396.213 586.038,396.182 585.542,396.154 
		585.017,396.124 584.435,396.124 583.79,396.154 583.07,396.213 582.268,396.264 582.268,396.264 581.713,396.35 581.186,396.432 
		580.713,396.597 580.291,396.761 579.907,396.96 579.551,397.179 579.27,397.46 579.02,397.707 578.848,398.012 578.708,398.317 
		578.656,398.649 578.656,398.985 578.742,399.345 578.848,399.705 579.071,400.068 579.349,400.428 579.349,400.428 
		579.907,400.952 580.579,401.371 581.35,401.73 582.183,402.035 583.07,402.316 583.989,402.621 584.904,402.957 585.788,403.314 
		586.625,403.783 587.396,404.366 588.095,405.065 588.674,405.922 589.116,406.974 589.397,408.225 589.51,409.726 
		589.397,411.474 589.397,411.474 589.202,412.776 588.866,413.914 588.424,414.969 587.868,415.881 587.231,416.69 
		586.511,417.382 585.733,417.992 584.877,418.523 583.989,418.938 583.07,419.294 582.128,419.572 581.155,419.795 
		580.212,419.966 579.294,420.045 578.379,420.103 577.522,420.127 577.522,420.127 576.329,420.127 575.216,420.103 
		574.246,420.103 573.331,420.076 572.494,420.045 571.747,419.99 571.082,419.935 570.445,419.853 569.862,419.795 
		569.331,419.685 568.81,419.599 568.334,419.466 567.861,419.353 567.419,419.181 566.977,419.02 566.504,418.852 567.755,412.721 
		567.755,412.721 568.005,412.776 568.31,412.862 568.697,412.968 569.167,413.085 569.667,413.191 570.219,413.304 
		570.832,413.441 571.497,413.554 572.189,413.66 572.909,413.773 573.667,413.856 574.438,413.941 575.243,413.969 
		576.052,413.996 576.857,413.996 577.656,413.969 577.656,413.969 578.464,413.804 579.105,413.578 579.606,413.276 
		579.993,412.886 580.264,412.498 580.486,412.05 580.627,411.611 580.744,411.196 580.744,411.196 580.791,410.387 
		580.541,409.695 580.072,409.136 579.379,408.667 578.55,408.252 577.573,407.834 576.494,407.443 575.407,407.005 574.3,406.504 
		573.245,405.922 572.275,405.202 571.387,404.342 570.688,403.283 570.195,402.035 569.948,400.541 569.975,398.766 
		569.975,398.766 570.109,397.68 570.304,396.651 570.582,395.709 570.918,394.825 571.36,393.992 571.86,393.269 572.446,392.573 
		573.139,391.967 573.944,391.439 574.832,390.993 575.829,390.579 576.943,390.274 578.187,390.02 579.551,389.828 
		581.042,389.718 582.683,389.687 582.683,389.687 583.705,389.687 584.647,389.718 585.511,389.746 586.289,389.773 
		586.981,389.828 587.625,389.883 588.174,389.938 588.674,389.996 589.147,390.047 589.531,390.133 589.901,390.191 
		590.23,390.243 590.5,390.298 590.758,390.328 591.008,390.383 591.224,390.414 589.808,396.679 	"/>
	<polygon class="st1" points="596.392,383.56 604.075,383.56 602.941,390.274 607.574,390.274 606.574,396.545 601.69,396.405 
		599.027,411.885 599,412.444 599.133,412.917 599.411,413.276 599.778,413.578 600.275,413.773 600.833,413.941 601.44,414.048 
		602.105,414.109 602.718,414.082 603.277,414.027 603.767,413.941 604.216,413.828 604.576,413.719 604.826,413.636 
		604.987,413.578 605.045,413.554 604.075,418.715 603.883,418.852 603.688,418.962 603.489,419.075 603.297,419.181 
		603.102,419.267 602.883,419.353 602.633,419.435 602.382,419.517 602.105,419.599 601.827,419.658 601.498,419.713 
		601.162,419.771 600.799,419.826 600.384,419.881 599.942,419.935 599.469,419.99 597.362,419.99 596.248,419.905 595.278,419.795 
		594.394,419.63 593.643,419.435 593.002,419.181 592.478,418.911 592.008,418.575 591.645,418.215 591.364,417.824 
		591.172,417.355 591.032,416.878 590.953,416.354 590.922,415.771 590.922,415.161 591.008,414.527 591.086,413.828 
		596.392,383.56 	"/>
	<polyline class="st7" points="596.392,383.56 604.075,383.56 602.941,390.274 607.574,390.274 606.574,396.545 601.69,396.405 
		599.027,411.885 599.027,411.885 599,412.444 599.133,412.917 599.411,413.276 599.778,413.578 600.275,413.773 600.833,413.941 
		601.44,414.048 602.105,414.109 602.105,414.109 602.718,414.082 603.277,414.027 603.767,413.941 604.216,413.828 
		604.576,413.719 604.826,413.636 604.987,413.578 605.045,413.554 604.075,418.715 604.075,418.715 603.883,418.852 
		603.688,418.962 603.489,419.075 603.297,419.181 603.102,419.267 602.883,419.353 602.633,419.435 602.382,419.517 
		602.105,419.599 601.827,419.658 601.498,419.713 601.162,419.771 600.799,419.826 600.384,419.881 599.942,419.935 
		599.469,419.99 597.362,419.99 597.362,419.99 596.248,419.905 595.278,419.795 594.394,419.63 593.643,419.435 593.002,419.181 
		592.478,418.911 592.008,418.575 591.645,418.215 591.364,417.824 591.172,417.355 591.032,416.878 590.953,416.354 
		590.922,415.771 590.922,415.161 591.008,414.527 591.086,413.828 596.392,383.56 	"/>
	<polyline class="st7" points="613.699,407.005 613.699,407.005 613.627,407.474 613.599,407.971 613.641,408.499 613.757,409.027 
		613.956,409.555 614.179,410.062 614.477,410.586 614.813,411.052 615.207,411.529 615.618,411.947 616.064,412.361 616.56,412.69 
		617.054,412.999 617.619,413.246 618.168,413.441 618.726,413.554 618.726,413.554 619.453,413.66 620.138,413.746 
		620.862,413.828 621.588,413.886 622.301,413.914 623.051,413.914 623.781,413.886 624.522,413.828 625.272,413.719 
		626.03,413.578 626.801,413.414 627.551,413.163 628.329,412.862 629.135,412.522 629.906,412.084 630.721,411.611 
		629.608,418.438 629.608,418.438 629.165,418.657 628.713,418.883 628.271,419.044 627.856,419.216 627.445,419.353 
		626.993,419.493 626.551,419.599 626.081,419.685 625.581,419.771 625.022,419.826 624.446,419.881 623.802,419.935 
		623.082,419.966 622.332,419.966 621.475,419.99 620.56,419.99 620.56,419.99 619.196,419.966 617.811,419.826 616.427,419.63 
		615.035,419.294 613.678,418.883 612.372,418.352 611.122,417.66 609.956,416.854 608.873,415.912 607.931,414.774 
		607.129,413.496 606.461,412.026 605.988,410.387 605.683,408.526 605.604,406.477 605.738,404.201 605.738,404.201 
		605.851,403.314 606.015,402.286 606.238,401.206 606.546,400.034 606.968,398.848 607.458,397.652 608.102,396.432 
		608.873,395.267 609.764,394.156 610.844,393.104 612.064,392.162 613.455,391.329 615.063,390.633 616.869,390.133 
		618.867,389.801 621.118,389.687 621.118,389.687 622.195,389.718 623.339,389.828 624.467,390.02 625.608,390.298 
		626.722,390.719 627.801,391.216 628.799,391.881 629.714,392.655 630.55,393.601 631.242,394.715 631.797,395.99 632.185,397.46 
		632.404,399.119 632.435,401.007 632.243,403.115 631.828,405.452 631.684,407.142 611.457,407.142 612.736,401.676 
		624.888,401.676 624.888,401.676 624.943,400.983 624.916,400.318 624.857,399.705 624.751,399.153 624.552,398.625 
		624.357,398.149 624.08,397.734 623.802,397.347 623.473,397.015 623.11,396.737 622.695,396.487 622.273,396.264 621.838,396.103 
		621.389,395.99 620.916,395.904 620.426,395.849 620.426,395.849 619.888,395.877 619.398,395.959 618.925,396.076 
		618.456,396.237 617.976,396.46 617.561,396.71 617.14,397.015 616.79,397.347 616.427,397.734 616.091,398.149 615.793,398.598 
		615.536,399.071 615.286,399.568 615.09,400.123 614.926,400.678 614.813,401.261 613.699,407.005 	"/>
	<polygon class="st1" points="679.883,391.936 679.52,391.744 679.164,391.576 678.78,391.38 678.359,391.185 677.944,391.021 
		677.471,390.853 677.001,390.685 676.501,390.52 675.973,390.383 675.445,390.274 674.859,390.16 674.28,390.078 673.646,390.02 
		673.002,389.965 672.337,389.965 671.645,389.965 670.952,389.965 670.226,390.02 669.482,390.109 668.697,390.243 
		667.926,390.465 667.148,390.77 666.377,391.161 665.592,391.658 664.842,392.268 664.122,392.991 663.426,393.879 
		662.765,394.907 662.148,396.124 661.572,397.512 661.051,399.071 660.599,400.846 660.438,401.84 660.322,402.81 660.267,403.783 
		660.294,404.729 660.38,405.672 660.572,406.563 660.822,407.392 661.13,408.225 661.542,408.975 662.042,409.695 662.628,410.333 
		663.293,410.915 664.043,411.415 664.9,411.834 665.843,412.193 666.905,412.444 667.261,412.522 667.676,412.608 668.176,412.666 
		668.732,412.721 669.338,412.776 669.976,412.776 670.675,412.776 671.367,412.721 672.09,412.632 672.81,412.498 673.502,412.303 
		674.194,412.084 674.887,411.775 675.531,411.415 676.107,410.973 676.665,410.473 675.415,417.883 675.25,418.02 675.079,418.188 
		674.859,418.386 674.609,418.544 674.308,418.767 673.917,418.962 673.475,419.157 672.974,419.322 672.337,419.517 
		671.617,419.658 670.781,419.771 669.811,419.881 668.732,419.935 667.484,419.966 666.069,419.935 664.506,419.853 
		663.234,419.713 661.956,419.435 660.678,419.02 659.406,418.465 658.186,417.8 657.025,416.961 655.911,415.994 654.883,414.887 
		653.968,413.636 653.19,412.252 652.525,410.696 652.024,409.003 651.695,407.142 651.582,405.171 651.641,403.009 
		651.939,400.706 652.168,399.568 652.419,398.461 652.689,397.375 652.967,396.35 653.275,395.377 653.632,394.407 
		653.995,393.492 654.382,392.631 654.804,391.771 655.218,390.966 655.688,390.191 656.188,389.468 656.689,388.772 
		657.237,388.108 657.796,387.498 658.382,386.915 659.016,386.36 659.657,385.832 660.322,385.359 661.021,384.913 
		661.764,384.499 662.515,384.142 663.293,383.81 664.098,383.498 664.955,383.224 665.812,383.001 666.706,382.806 
		667.649,382.641 668.591,382.501 669.588,382.391 670.589,382.34 671.645,382.305 672.532,382.34 673.396,382.391 674.222,382.473 
		675.058,382.586 675.836,382.696 676.587,382.864 677.299,383.001 677.971,383.169 678.609,383.334 679.164,383.498 
		679.692,383.669 680.134,383.834 680.521,383.971 680.857,384.084 681.107,384.197 681.278,384.252 679.883,391.936 	"/>
	<polyline class="st7" points="679.883,391.936 679.883,391.936 679.52,391.744 679.164,391.576 678.78,391.38 678.359,391.185 
		677.944,391.021 677.471,390.853 677.001,390.685 676.501,390.52 675.973,390.383 675.445,390.274 674.859,390.16 674.28,390.078 
		673.646,390.02 673.002,389.965 672.337,389.965 671.645,389.965 671.645,389.965 670.952,389.965 670.226,390.02 669.482,390.109 
		668.697,390.243 667.926,390.465 667.148,390.77 666.377,391.161 665.592,391.658 664.842,392.268 664.122,392.991 
		663.426,393.879 662.765,394.907 662.148,396.124 661.572,397.512 661.051,399.071 660.599,400.846 660.599,400.846 
		660.438,401.84 660.322,402.81 660.267,403.783 660.294,404.729 660.38,405.672 660.572,406.563 660.822,407.392 661.13,408.225 
		661.542,408.975 662.042,409.695 662.628,410.333 663.293,410.915 664.043,411.415 664.9,411.834 665.843,412.193 666.905,412.444 
		666.905,412.444 667.261,412.522 667.676,412.608 668.176,412.666 668.732,412.721 669.338,412.776 669.976,412.776 
		670.675,412.776 671.367,412.721 672.09,412.632 672.81,412.498 673.502,412.303 674.194,412.084 674.887,411.775 675.531,411.415 
		676.107,410.973 676.665,410.473 675.415,417.883 675.415,417.883 675.25,418.02 675.079,418.188 674.859,418.386 674.609,418.544 
		674.308,418.767 673.917,418.962 673.475,419.157 672.974,419.322 672.337,419.517 671.617,419.658 670.781,419.771 
		669.811,419.881 668.732,419.935 667.484,419.966 666.069,419.935 664.506,419.853 664.506,419.853 663.234,419.713 
		661.956,419.435 660.678,419.02 659.406,418.465 658.186,417.8 657.025,416.961 655.911,415.994 654.883,414.887 653.968,413.636 
		653.19,412.252 652.525,410.696 652.024,409.003 651.695,407.142 651.582,405.171 651.641,403.009 651.939,400.706 
		651.939,400.706 652.168,399.568 652.419,398.461 652.689,397.375 652.967,396.35 653.275,395.377 653.632,394.407 
		653.995,393.492 654.382,392.631 654.804,391.771 655.218,390.966 655.688,390.191 656.188,389.468 656.689,388.772 
		657.237,388.108 657.796,387.498 658.382,386.915 659.016,386.36 659.657,385.832 660.322,385.359 661.021,384.913 
		661.764,384.499 662.515,384.142 663.293,383.81 664.098,383.498 664.955,383.224 665.812,383.001 666.706,382.806 
		667.649,382.641 668.591,382.501 669.588,382.391 670.589,382.34 671.645,382.305 671.645,382.305 672.532,382.34 673.396,382.391 
		674.222,382.473 675.058,382.586 675.836,382.696 676.587,382.864 677.299,383.001 677.971,383.169 678.609,383.334 
		679.164,383.498 679.692,383.669 680.134,383.834 680.521,383.971 680.857,384.084 681.107,384.197 681.278,384.252 
		679.883,391.936 	"/>
	<polygon class="st1" points="748.2,419.99 740.516,419.99 741.075,416.913 741.075,416.632 740.623,417.19 740.16,417.684 
		739.687,418.129 739.187,418.523 738.683,418.883 738.182,419.181 737.682,419.435 737.154,419.685 736.633,419.881 
		736.106,420.018 735.574,420.155 735.019,420.237 734.461,420.323 733.933,420.377 733.385,420.408 732.826,420.408 
		731.383,420.295 730.057,419.99 728.837,419.517 727.723,418.883 726.722,418.074 725.838,417.135 725.06,416.104 724.395,414.942 
		723.836,413.688 723.394,412.389 723.089,411.028 722.867,409.613 722.788,408.197 722.808,406.755 722.952,405.339 
		723.202,403.927 723.617,402.286 724.124,400.733 724.693,399.318 725.396,397.988 726.116,396.737 726.945,395.623 
		727.809,394.629 728.72,393.714 729.693,392.906 730.722,392.213 731.777,391.603 732.826,391.134 733.933,390.74 735.047,390.496 
		736.16,390.328 737.295,390.274 738.104,390.298 738.875,390.383 739.601,390.52 740.273,390.719 740.9,390.942 741.459,391.185 
		742.017,391.494 742.514,391.799 742.96,392.128 743.371,392.491 743.728,392.854 744.063,393.214 744.344,393.574 
		744.601,393.934 744.814,394.27 744.985,394.602 744.985,394.602 746.929,383.697 754.475,383.697 748.2,419.99 	"/>
	<polyline class="st7" points="748.2,419.99 740.516,419.99 741.075,416.913 741.075,416.632 741.075,416.632 740.623,417.19 
		740.16,417.684 739.687,418.129 739.187,418.523 738.683,418.883 738.182,419.181 737.682,419.435 737.154,419.685 
		736.633,419.881 736.106,420.018 735.574,420.155 735.019,420.237 734.461,420.323 733.933,420.377 733.385,420.408 
		732.826,420.408 732.826,420.408 731.383,420.295 730.057,419.99 728.837,419.517 727.723,418.883 726.722,418.074 
		725.838,417.135 725.06,416.104 724.395,414.942 723.836,413.688 723.394,412.389 723.089,411.028 722.867,409.613 
		722.788,408.197 722.808,406.755 722.952,405.339 723.202,403.927 723.202,403.927 723.617,402.286 724.124,400.733 
		724.693,399.318 725.396,397.988 726.116,396.737 726.945,395.623 727.809,394.629 728.72,393.714 729.693,392.906 
		730.722,392.213 731.777,391.603 732.826,391.134 733.933,390.74 735.047,390.496 736.16,390.328 737.295,390.274 737.295,390.274 
		738.104,390.298 738.875,390.383 739.601,390.52 740.273,390.719 740.9,390.942 741.459,391.185 742.017,391.494 742.514,391.799 
		742.96,392.128 743.371,392.491 743.728,392.854 744.063,393.214 744.344,393.574 744.601,393.934 744.814,394.27 744.985,394.602 
		744.985,394.602 746.929,383.697 754.475,383.697 748.2,419.99 	"/>
	<polygon class="st5" points="735.633,413.276 736.411,413.222 737.13,413.054 737.795,412.862 738.439,412.557 739.019,412.224 
		739.574,411.803 740.095,411.337 740.575,410.829 740.986,410.274 741.373,409.664 741.736,409.027 742.045,408.365 
		742.316,407.666 742.545,406.95 742.737,406.199 742.874,405.452 743.008,404.678 743.1,403.872 743.1,403.115 743.066,402.344 
		742.987,401.621 742.874,400.925 742.679,400.26 742.459,399.623 742.178,399.071 741.853,398.543 741.486,398.094 
		741.075,397.707 740.602,397.375 740.095,397.152 739.574,397.015 738.988,396.96 738.237,397.015 737.545,397.128 
		736.911,397.347 736.267,397.625 735.711,397.988 735.163,398.43 734.69,398.903 734.221,399.431 733.799,400.034 733.412,400.678 
		733.049,401.343 732.74,402.063 732.469,402.81 732.25,403.567 732.027,404.366 731.856,405.171 731.712,406.395 731.777,407.728 
		731.969,409.082 732.325,410.387 732.884,411.529 733.604,412.444 734.519,413.054 735.633,413.276 	"/>
	<polygon class="st1" points="565.229,413.828 564.115,419.99 557.124,419.99 557.316,418.852 557.46,417.824 557.566,417.05 
		557.679,416.632 557.295,417.077 556.846,417.523 556.325,417.937 555.739,418.325 555.074,418.715 554.375,419.044 
		553.652,419.38 552.912,419.658 552.103,419.905 551.298,420.103 550.499,420.271 549.663,420.377 548.854,420.436 
		548.055,420.463 547.278,420.377 546.52,420.271 545.55,420.018 544.666,419.74 543.885,419.38 543.192,418.962 542.586,418.523 
		542.031,418.02 541.589,417.492 541.194,416.94 540.865,416.354 540.588,415.741 540.365,415.137 540.201,414.527 540.087,413.886 
		540.002,413.246 539.944,412.632 539.944,412.026 540.029,410.943 540.201,409.918 540.475,408.945 540.838,408.002 
		541.28,407.114 541.78,406.312 542.367,405.538 543.028,404.839 543.72,404.201 544.502,403.615 545.3,403.091 546.136,402.645 
		547.021,402.262 547.942,401.953 548.885,401.703 549.855,401.535 549.913,401.535 550.047,401.508 550.242,401.48 
		550.547,401.453 550.883,401.398 551.27,401.371 551.681,401.316 552.161,401.261 552.631,401.206 553.104,401.151 553.604,401.12 
		554.046,401.066 554.488,401.038 554.903,401.007 555.287,400.983 555.595,400.983 556.239,400.983 556.908,401.007 
		557.518,401.038 558.124,401.038 558.621,401.066 559.016,401.093 559.286,401.12 559.372,401.12 559.43,400.925 559.595,400.428 
		559.735,399.842 559.787,399.318 559.68,398.708 559.43,398.149 559.094,397.652 558.652,397.234 558.124,396.881 557.545,396.627 
		556.874,396.46 556.154,396.405 555.372,396.377 554.54,396.35 553.683,396.35 552.795,396.377 551.884,396.432 550.989,396.514 
		550.105,396.597 549.241,396.71 548.412,396.819 547.607,396.96 546.883,397.094 546.222,397.234 545.609,397.405 545.115,397.57 
		544.721,397.762 544.416,397.93 546.386,391.243 547,390.993 547.607,390.77 548.278,390.579 548.94,390.435 549.605,390.298 
		550.328,390.191 551.047,390.078 551.798,390.02 552.576,389.965 553.374,389.938 554.211,389.907 555.074,389.907 
		555.958,389.907 556.874,389.907 557.843,389.938 558.817,389.965 559.595,390.02 560.431,390.16 561.294,390.356 562.172,390.606 
		563.029,390.942 563.872,391.329 564.698,391.799 565.476,392.323 566.171,392.94 566.785,393.601 567.34,394.348 567.755,395.181 
		568.032,396.076 568.197,397.015 568.197,398.07 568.032,399.177 565.229,413.828 	"/>
	<polyline class="st7" points="565.229,413.828 564.115,419.99 557.124,419.99 557.124,419.99 557.316,418.852 557.46,417.824 
		557.566,417.05 557.679,416.632 557.679,416.632 557.295,417.077 556.846,417.523 556.325,417.937 555.739,418.325 
		555.074,418.715 554.375,419.044 553.652,419.38 552.912,419.658 552.103,419.905 551.298,420.103 550.499,420.271 
		549.663,420.377 548.854,420.436 548.055,420.463 547.278,420.377 546.52,420.271 546.52,420.271 545.55,420.018 544.666,419.74 
		543.885,419.38 543.192,418.962 542.586,418.523 542.031,418.02 541.589,417.492 541.194,416.94 540.865,416.354 540.588,415.741 
		540.365,415.137 540.201,414.527 540.087,413.886 540.002,413.246 539.944,412.632 539.944,412.026 539.944,412.026 
		540.029,410.943 540.201,409.918 540.475,408.945 540.838,408.002 541.28,407.114 541.78,406.312 542.367,405.538 543.028,404.839 
		543.72,404.201 544.502,403.615 545.3,403.091 546.136,402.645 547.021,402.262 547.942,401.953 548.885,401.703 549.855,401.535 
		549.855,401.535 549.913,401.535 550.047,401.508 550.242,401.48 550.547,401.453 550.883,401.398 551.27,401.371 551.681,401.316 
		552.161,401.261 552.631,401.206 553.104,401.151 553.604,401.12 554.046,401.066 554.488,401.038 554.903,401.007 
		555.287,400.983 555.595,400.983 555.595,400.983 556.239,400.983 556.908,401.007 557.518,401.038 558.124,401.038 
		558.621,401.066 559.016,401.093 559.286,401.12 559.372,401.12 559.372,401.12 559.43,400.925 559.595,400.428 559.735,399.842 
		559.787,399.318 559.787,399.318 559.68,398.708 559.43,398.149 559.094,397.652 558.652,397.234 558.124,396.881 557.545,396.627 
		556.874,396.46 556.154,396.405 556.154,396.405 555.372,396.377 554.54,396.35 553.683,396.35 552.795,396.377 551.884,396.432 
		550.989,396.514 550.105,396.597 549.241,396.71 548.412,396.819 547.607,396.96 546.883,397.094 546.222,397.234 545.609,397.405 
		545.115,397.57 544.721,397.762 544.416,397.93 546.386,391.243 546.386,391.243 547,390.993 547.607,390.77 548.278,390.579 
		548.94,390.435 549.605,390.298 550.328,390.191 551.047,390.078 551.798,390.02 552.576,389.965 553.374,389.938 554.211,389.907 
		555.074,389.907 555.958,389.907 556.874,389.907 557.843,389.938 558.817,389.965 558.817,389.965 559.595,390.02 560.431,390.16 
		561.294,390.356 562.172,390.606 563.029,390.942 563.872,391.329 564.698,391.799 565.476,392.323 566.171,392.94 
		566.785,393.601 567.34,394.348 567.755,395.181 568.032,396.076 568.197,397.015 568.197,398.07 568.032,399.177 565.229,413.828 
			"/>
	<polygon class="st6" points="558.543,406.587 558.515,406.45 558.402,406.312 558.237,406.227 557.96,406.172 557.651,406.117 
		557.295,406.086 556.874,406.086 556.459,406.086 556.01,406.117 555.537,406.172 555.095,406.227 554.653,406.285 554.238,406.34 
		553.847,406.419 553.518,406.504 553.21,406.587 553.018,406.641 552.795,406.731 552.49,406.837 552.182,406.974 551.825,407.142 
		551.462,407.341 551.075,407.529 550.712,407.755 550.328,408.029 549.968,408.307 549.632,408.643 549.327,408.975 
		549.049,409.332 548.854,409.726 548.683,410.168 548.607,410.61 548.576,411.556 548.72,412.303 548.991,412.862 549.354,413.276 
		549.769,413.554 550.242,413.719 550.684,413.804 551.133,413.828 551.969,413.804 552.72,413.719 553.44,413.605 554.067,413.441 
		554.632,413.246 555.153,412.999 555.623,412.749 556.044,412.444 556.411,412.163 556.736,411.834 557.017,411.529 
		557.237,411.196 557.429,410.86 557.593,410.528 557.737,410.223 557.816,409.918 558.046,409.116 558.237,408.197 558.402,407.31 
		558.543,406.587 	"/>
	<polygon class="st1" points="506.844,419.99 499.298,419.99 505.597,383.56 518.726,383.56 519.967,405.171 529.042,383.56 
		542.75,383.56 536.311,419.99 528.764,419.99 533.535,392.772 533.233,392.772 521.937,419.99 513.421,419.99 513.37,418.852 
		513.171,415.826 512.921,411.529 512.643,406.587 512.365,401.621 512.115,397.268 511.92,394.105 511.865,392.772 
		511.786,392.772 511.622,392.772 511.45,392.772 511.45,392.772 506.844,419.99 	"/>
	<polyline class="st7" points="506.844,419.99 499.298,419.99 505.597,383.56 518.726,383.56 519.967,405.171 529.042,383.56 
		542.75,383.56 536.311,419.99 528.764,419.99 533.535,392.772 533.233,392.772 521.937,419.99 513.421,419.99 513.421,419.99 
		513.37,418.852 513.171,415.826 512.921,411.529 512.643,406.587 512.365,401.621 512.115,397.268 511.92,394.105 511.865,392.772 
		511.865,392.772 511.786,392.772 511.622,392.772 511.45,392.772 511.45,392.772 506.844,419.99 	"/>
	<polygon class="st1" points="702.948,413.828 701.81,419.99 694.843,419.99 694.901,418.852 694.929,417.855 694.929,417.108 
		694.987,416.776 694.62,417.19 694.202,417.605 693.702,417.992 693.15,418.386 692.564,418.743 691.903,419.075 691.21,419.411 
		690.518,419.685 689.761,419.905 688.989,420.127 688.211,420.271 687.44,420.377 686.625,420.436 685.854,420.463 
		685.096,420.377 684.356,420.271 683.355,420.018 682.471,419.74 681.693,419.38 680.97,418.962 680.356,418.523 679.829,418.02 
		679.387,417.492 678.992,416.94 678.663,416.354 678.413,415.741 678.194,415.137 678.057,414.527 677.944,413.886 
		677.858,413.246 677.8,412.632 677.8,412.026 677.858,410.943 678.029,409.918 678.28,408.945 678.636,408.002 679.051,407.114 
		679.585,406.312 680.165,405.538 680.799,404.839 681.529,404.201 682.269,403.615 683.078,403.091 683.934,402.645 
		684.798,402.262 685.71,401.953 686.625,401.703 687.567,401.535 687.625,401.535 687.766,401.508 687.961,401.48 688.239,401.453 
		688.595,401.398 688.989,401.371 689.404,401.316 689.846,401.261 690.316,401.206 690.816,401.151 691.286,401.12 
		691.765,401.066 692.207,401.038 692.595,401.007 692.979,400.983 693.287,400.983 693.952,400.983 694.62,401.007 
		695.258,401.038 695.871,401.038 696.392,401.066 696.841,401.093 697.091,401.12 697.208,401.12 697.256,400.925 697.341,400.428 
		697.42,399.842 697.478,399.318 697.362,398.708 697.149,398.149 696.786,397.652 696.365,397.234 695.871,396.881 
		695.285,396.627 694.672,396.46 694.007,396.405 693.229,396.377 692.399,396.35 691.536,396.35 690.652,396.377 689.73,396.432 
		688.846,396.514 687.961,396.597 687.098,396.71 686.268,396.819 685.463,396.96 684.747,397.094 684.075,397.234 683.461,397.405 
		682.961,397.57 682.577,397.762 682.269,397.93 684.219,391.243 684.826,390.993 685.463,390.77 686.097,390.579 686.769,390.435 
		687.461,390.298 688.153,390.191 688.873,390.078 689.623,390.02 690.401,389.965 691.21,389.938 692.009,389.907 692.866,389.907 
		693.729,389.907 694.62,389.907 695.563,389.938 696.505,389.965 697.286,390.02 698.119,390.16 698.976,390.356 699.871,390.606 
		700.727,390.942 701.584,391.329 702.417,391.799 703.195,392.323 703.891,392.94 704.531,393.601 705.083,394.348 
		705.495,395.181 705.803,396.076 705.995,397.015 705.995,398.07 705.861,399.177 702.948,413.828 	"/>
	<polygon class="st1" points="701.81,420.186 701.975,420.018 703.109,413.856 702.777,413.804 701.639,419.966 701.81,419.795 
		701.81,420.186 701.947,420.155 701.975,420.018 701.81,420.186 	"/>
	<polygon class="st1" points="694.672,419.99 694.843,420.186 701.81,420.186 701.81,419.795 694.843,419.795 695.008,419.99 
		694.672,419.99 694.651,420.186 694.843,420.186 694.672,419.99 	"/>
	<polygon class="st1" points="695.121,416.878 694.87,416.659 694.757,417.108 694.73,417.855 694.73,418.852 694.672,419.99 
		695.008,419.99 695.066,418.852 695.121,417.855 695.086,417.108 695.086,416.878 694.843,416.659 695.121,416.878 	"/>
	<polygon class="st1" points="684.325,420.436 684.325,420.436 685.096,420.545 685.854,420.628 686.625,420.604 687.44,420.545 
		688.239,420.436 689.017,420.295 689.788,420.076 690.566,419.853 691.258,419.572 691.981,419.243 692.643,418.911 
		693.229,418.523 693.815,418.129 694.315,417.745 694.757,417.296 695.121,416.878 694.843,416.659 694.48,417.077 
		694.092,417.464 693.592,417.855 693.064,418.242 692.478,418.575 691.817,418.911 691.152,419.243 690.46,419.517 689.73,419.74 
		688.959,419.966 688.181,420.103 687.44,420.21 686.625,420.271 685.854,420.295 685.096,420.21 684.376,420.103 684.376,420.103 
		684.325,420.436 	"/>
	<polygon class="st1" points="677.608,412.026 677.608,412.026 677.635,412.632 677.694,413.246 677.772,413.914 677.886,414.551 
		678.029,415.161 678.249,415.799 678.499,416.436 678.855,417.022 679.25,417.605 679.692,418.129 680.25,418.657 680.884,419.103 
		681.607,419.548 682.413,419.905 683.318,420.186 684.325,420.436 684.376,420.103 683.383,419.853 682.526,419.572 
		681.768,419.216 681.049,418.825 680.463,418.386 679.962,417.906 679.52,417.382 679.136,416.854 678.835,416.272 
		678.578,415.689 678.359,415.11 678.221,414.496 678.108,413.856 678.029,413.246 677.971,412.632 677.999,412.026 
		677.999,412.026 677.608,412.026 	"/>
	<polygon class="st1" points="687.567,401.371 687.567,401.371 686.604,401.535 685.662,401.789 684.747,402.09 683.856,402.481 
		682.992,402.923 682.156,403.482 681.412,404.064 680.692,404.729 680.021,405.421 679.441,406.199 678.886,407.032 
		678.472,407.951 678.108,408.89 677.858,409.887 677.694,410.943 677.608,412.026 677.999,412.026 678.029,410.943 
		678.194,409.945 678.444,409.003 678.801,408.06 679.222,407.197 679.722,406.419 680.305,405.644 680.912,404.952 
		681.628,404.342 682.385,403.756 683.156,403.259 684.02,402.81 684.846,402.426 685.768,402.121 686.652,401.871 687.567,401.703 
		687.567,401.703 687.567,401.371 	"/>
	<polygon class="st1" points="693.287,400.788 693.287,400.788 692.979,400.788 692.595,400.846 692.207,400.877 691.765,400.901 
		691.286,400.952 690.816,400.983 690.316,401.038 689.846,401.093 689.404,401.151 688.989,401.206 688.595,401.23 
		688.239,401.292 687.961,401.316 687.739,401.343 687.625,401.371 687.567,401.371 687.567,401.703 687.625,401.703 
		687.797,401.676 687.961,401.652 688.239,401.621 688.595,401.566 688.989,401.535 689.404,401.48 689.846,401.425 
		690.316,401.371 690.816,401.316 691.286,401.292 691.765,401.23 692.207,401.206 692.595,401.175 692.979,401.175 
		693.287,401.175 693.287,401.175 693.287,400.788 	"/>
	<polygon class="st1" points="697.036,401.093 697.208,400.952 697.091,400.952 696.841,400.925 696.392,400.901 695.871,400.846 
		695.258,400.846 694.62,400.846 693.952,400.788 693.287,400.788 693.287,401.175 693.952,401.175 694.62,401.175 695.258,401.23 
		695.871,401.23 696.392,401.23 696.841,401.261 697.091,401.292 697.208,401.292 697.362,401.151 697.208,401.292 697.341,401.316 
		697.362,401.151 697.036,401.093 	"/>
	<polygon class="st1" points="697.314,399.318 697.286,399.318 697.256,399.842 697.17,400.401 697.091,400.901 697.036,401.093 
		697.362,401.151 697.42,400.952 697.506,400.449 697.592,399.842 697.677,399.318 697.643,399.318 697.314,399.318 	"/>
	<polygon class="st1" points="694.007,396.569 694.007,396.597 694.651,396.627 695.23,396.795 695.785,397.042 696.258,397.375 
		696.642,397.762 696.978,398.235 697.208,398.735 697.314,399.318 697.643,399.318 697.533,398.684 697.314,398.07 696.92,397.542 
		696.478,397.094 695.95,396.71 695.336,396.46 694.699,396.295 694.007,396.213 694.007,396.237 694.007,396.569 	"/>
	<polygon class="st1" points="682.104,397.906 682.385,398.07 682.663,397.93 683.019,397.734 683.492,397.57 684.106,397.405 
		684.767,397.268 685.49,397.128 686.296,396.987 687.098,396.881 687.961,396.761 688.846,396.679 689.73,396.597 690.652,396.545 
		691.536,396.545 692.399,396.545 693.229,396.545 694.007,396.569 694.007,396.237 693.229,396.213 692.399,396.154 
		691.536,396.154 690.652,396.213 689.73,396.264 688.846,396.35 687.961,396.432 687.098,396.545 686.241,396.651 685.432,396.795 
		684.712,396.932 684.047,397.073 683.441,397.234 682.913,397.405 682.492,397.594 682.156,397.793 682.44,397.957 
		682.104,397.906 	"/>
	<polygon class="st1" points="684.161,391.075 684.047,391.216 682.104,397.906 682.44,397.957 684.376,391.267 684.27,391.411 
		684.161,391.075 684.075,391.103 684.047,391.216 684.161,391.075 	"/>
	<polygon class="st1" points="696.505,389.801 696.505,389.801 695.563,389.746 694.62,389.718 693.729,389.718 692.866,389.718 
		692.009,389.718 691.21,389.773 690.401,389.801 689.623,389.859 688.873,389.907 688.126,390.02 687.44,390.133 686.738,390.274 
		686.07,390.414 685.405,390.606 684.767,390.825 684.161,391.075 684.27,391.411 684.884,391.161 685.518,390.942 686.124,390.74 
		686.796,390.606 687.488,390.465 688.181,390.356 688.873,390.243 689.623,390.191 690.401,390.133 691.21,390.109 
		692.009,390.109 692.866,390.109 693.729,390.109 694.62,390.109 695.563,390.133 696.505,390.133 696.505,390.133 
		696.505,389.801 	"/>
	<polygon class="st1" points="706.026,399.208 706.026,399.208 706.166,398.07 706.166,397.015 705.974,396.041 705.666,395.126 
		705.224,394.27 704.669,393.492 703.997,392.799 703.305,392.186 702.503,391.658 701.67,391.161 700.782,390.77 699.919,390.435 
		699.007,390.191 698.14,389.996 697.286,389.859 696.505,389.801 696.505,390.133 697.286,390.191 698.085,390.328 698.949,390.52 
		699.812,390.77 700.669,391.103 701.498,391.494 702.331,391.936 703.082,392.463 703.774,393.073 704.381,393.714 
		704.939,394.431 705.33,395.243 705.638,396.103 705.83,397.015 705.83,398.07 705.69,399.153 705.69,399.153 706.026,399.208 	"/>
	<polygon class="st1" points="703.109,413.856 703.109,413.856 706.026,399.208 705.69,399.153 702.777,413.804 702.777,413.804 
		703.109,413.856 	"/>
	<polygon class="st5" points="696.228,406.587 696.173,406.419 696.063,406.285 695.871,406.199 695.587,406.117 695.285,406.086 
		694.929,406.059 694.507,406.059 694.092,406.086 693.643,406.145 693.208,406.199 692.766,406.258 692.345,406.312 
		691.93,406.395 691.567,406.45 691.21,406.532 690.929,406.587 690.737,406.614 690.518,406.7 690.237,406.782 689.932,406.892 
		689.565,407.056 689.229,407.228 688.846,407.423 688.489,407.666 688.126,407.92 687.766,408.225 687.461,408.526 687.152,408.89 
		686.909,409.277 686.71,409.695 686.546,410.141 686.46,410.61 686.433,411.556 686.566,412.303 686.796,412.862 687.125,413.276 
		687.54,413.554 688.016,413.719 688.489,413.804 688.959,413.828 689.788,413.804 690.566,413.719 691.286,413.578 691.93,413.386 
		692.536,413.163 693.064,412.917 693.565,412.632 694.007,412.303 694.401,411.998 694.73,411.638 695.035,411.302 
		695.285,410.943 695.477,410.61 695.614,410.274 695.727,409.945 695.813,409.64 695.923,408.862 696.063,408.06 696.173,407.282 
		696.228,406.587 	"/>
	<polygon class="st1" points="753.389,416.193 753.447,415.549 753.67,414.801 754.06,414.133 754.533,413.554 755.109,413.085 
		755.774,412.749 756.494,412.522 757.275,412.444 758.06,412.522 758.773,412.749 759.444,413.085 760.024,413.554 
		760.493,414.133 760.88,414.801 761.107,415.549 761.165,416.193 760.329,416.193 760.301,415.689 760.137,415.076 
		759.859,414.527 759.492,414.048 759.05,413.66 758.529,413.386 757.916,413.191 757.275,413.136 756.638,413.191 756.031,413.386 
		755.496,413.66 755.054,414.048 754.694,414.527 754.417,415.076 754.252,415.689 754.197,416.193 753.389,416.193 	"/>
	<polygon class="st1" points="755.887,416.193 755.887,414.527 757.416,414.527 757.751,414.551 758.06,414.606 758.272,414.688 
		758.474,414.801 758.608,414.969 758.714,415.137 758.773,415.326 758.8,415.525 758.773,415.771 758.714,415.967 758.639,416.135 
		758.581,416.193 757.416,416.193 757.525,416.162 757.717,416.135 757.888,416.08 758.029,416.025 758.139,415.943 
		758.193,415.854 758.252,415.72 758.252,415.525 758.218,415.384 758.166,415.271 758.073,415.22 757.995,415.161 757.858,415.137 
		757.717,415.11 757.58,415.11 757.416,415.11 756.583,415.11 756.583,416.193 755.887,416.193 	"/>
	<polygon class="st1" points="753.389,416.193 753.368,416.354 753.447,417.159 753.67,417.906 754.06,418.575 754.533,419.13 
		755.109,419.599 755.774,419.966 756.494,420.186 757.275,420.271 758.06,420.186 758.773,419.966 759.444,419.599 760.024,419.13 
		760.493,418.575 760.88,417.906 761.107,417.159 761.192,416.354 761.165,416.193 760.329,416.193 760.359,416.354 
		760.301,417.022 760.137,417.632 759.859,418.16 759.492,418.626 759.05,419.02 758.529,419.322 757.916,419.517 757.275,419.572 
		756.638,419.517 756.031,419.322 755.496,419.02 755.054,418.626 754.694,418.16 754.417,417.632 754.252,417.022 754.197,416.354 
		754.197,416.193 753.389,416.193 	"/>
	<polygon class="st1" points="755.887,416.193 755.887,417.883 756.583,417.883 756.583,416.498 757.275,416.498 758.108,417.883 
		758.66,417.883 757.83,416.498 758.029,416.498 758.218,416.436 758.389,416.381 758.529,416.272 758.581,416.193 757.416,416.193 
		757.275,416.217 756.583,416.217 756.583,416.193 755.887,416.193 	"/>
	<path class="st7" d="M753.368,416.354L753.368,416.354l0.079-0.805l0.223-0.751l0.394-0.665l0.473-0.583l0.579-0.47l0.665-0.336
		l0.72-0.226l0.778-0.079l0,0l0.785,0.079l0.713,0.226l0.672,0.336l0.579,0.47l0.469,0.583l0.384,0.665l0.23,0.751l0.086,0.805l0,0
		l-0.086,0.805l-0.23,0.747l-0.384,0.668l-0.469,0.555l-0.579,0.466l-0.672,0.367l-0.713,0.219l-0.785,0.082l0,0l-0.778-0.082
		l-0.72-0.219l-0.665-0.367l-0.579-0.466l-0.473-0.555l-0.394-0.668l-0.223-0.747L753.368,416.354 M756.583,417.883h-0.692v-3.359
		h1.529l0,0l0.336,0.027l0.308,0.055l0.213,0.082l0.199,0.11l0.137,0.168l0.106,0.168l0.058,0.192l0.027,0.195l0,0l-0.027,0.247
		l-0.058,0.195l-0.079,0.168l-0.106,0.141l-0.144,0.11l-0.171,0.055l-0.185,0.058h-0.199l0.829,1.388h-0.548l-0.836-1.388h-0.692
		v1.388 M757.275,416.217L757.275,416.217l0.25-0.058l0.192-0.027l0.171-0.055l0.144-0.058l0.106-0.082l0.058-0.086l0.058-0.134
		v-0.195l0,0l-0.034-0.141l-0.051-0.113l-0.093-0.055l-0.079-0.055l-0.137-0.027l-0.144-0.024h-0.137h-0.164h-0.836v1.107h0.696
		 M757.275,419.572L757.275,419.572l0.644-0.055l0.613-0.195l0.521-0.302l0.442-0.394l0.363-0.466l0.278-0.528l0.165-0.613
		l0.058-0.665l0,0l-0.058-0.665l-0.165-0.613l-0.278-0.552l-0.363-0.476l-0.442-0.387l-0.521-0.274l-0.613-0.195l-0.644-0.058l0,0
		l-0.634,0.058l-0.607,0.195l-0.535,0.274l-0.442,0.387l-0.356,0.476l-0.278,0.552l-0.164,0.613l-0.058,0.665l0,0l0.058,0.665
		l0.164,0.613l0.278,0.528l0.356,0.466l0.442,0.394l0.535,0.302l0.607,0.195L757.275,419.572"/>
	<polygon class="st1" points="705.025,419.99 712.849,419.99 712.849,419.99 715.656,404.201 715.762,403.595 715.927,402.981 
		716.098,402.371 716.321,401.761 716.598,401.151 716.927,400.565 717.291,400.013 717.74,399.486 718.233,399.016 
		718.788,398.567 719.426,398.149 720.146,397.817 720.954,397.542 721.838,397.32 722.808,397.152 723.895,397.094 
		724.289,397.094 724.501,397.094 724.587,397.094 724.587,397.094 725.838,389.965 725.06,390.02 724.309,390.109 723.617,390.243 
		722.952,390.435 722.339,390.657 721.76,390.942 721.204,391.243 720.683,391.576 720.176,391.967 719.703,392.354 
		719.261,392.799 718.819,393.241 718.398,393.714 717.99,394.239 717.568,394.739 717.178,395.294 718.01,390.274 710.214,390.274 
		705.025,419.99 705.025,419.99 	"/>
	<polyline class="st7" points="705.025,419.99 712.849,419.99 712.849,419.99 715.656,404.201 715.656,404.201 715.762,403.595 
		715.927,402.981 716.098,402.371 716.321,401.761 716.598,401.151 716.927,400.565 717.291,400.013 717.74,399.486 
		718.233,399.016 718.788,398.567 719.426,398.149 720.146,397.817 720.954,397.542 721.838,397.32 722.808,397.152 
		723.895,397.094 723.895,397.094 724.289,397.094 724.501,397.094 724.587,397.094 724.587,397.094 725.838,389.965 
		725.838,389.965 725.06,390.02 724.309,390.109 723.617,390.243 722.952,390.435 722.339,390.657 721.76,390.942 721.204,391.243 
		720.683,391.576 720.176,391.967 719.703,392.354 719.261,392.799 718.819,393.241 718.398,393.714 717.99,394.239 
		717.568,394.739 717.178,395.294 718.01,390.274 710.214,390.274 705.025,419.99 705.025,419.99 	"/>
	<polygon class="st1" points="631.547,419.99 639.375,419.99 639.509,419.99 642.171,404.201 642.288,403.595 642.422,403.009 
		642.566,402.426 642.757,401.871 642.98,401.316 643.258,400.788 643.587,400.288 643.977,399.818 644.423,399.397 644.92,398.985 
		645.527,398.649 646.198,398.348 646.976,398.094 647.833,397.878 648.775,397.734 649.862,397.652 649.941,397.652 
		650.054,397.68 650.191,397.707 650.335,397.707 650.475,397.734 650.585,397.762 650.66,397.793 650.691,397.793 650.725,397.68 
		650.804,397.347 650.911,396.85 651.055,396.237 651.246,395.517 651.438,394.739 651.695,393.961 651.939,393.18 652.168,392.655 
		652.446,392.128 652.717,391.603 652.998,391.134 653.248,390.719 653.44,390.383 653.573,390.191 653.632,390.109 
		653.604,390.109 653.495,390.078 653.354,390.047 653.162,390.02 652.967,390.02 652.747,389.996 652.556,389.965 652.36,389.965 
		651.497,390.02 650.725,390.109 649.999,390.243 649.334,390.414 648.69,390.633 648.114,390.911 647.583,391.185 647.086,391.518 
		646.613,391.881 646.171,392.299 645.756,392.714 645.335,393.18 644.92,393.656 644.529,394.187 644.115,394.739 643.7,395.294 
		644.701,390.274 636.739,390.274 631.547,419.99 631.547,419.99 	"/>
	<polyline class="st7" points="631.547,419.99 639.375,419.99 639.509,419.99 642.171,404.201 642.171,404.201 642.288,403.595 
		642.422,403.009 642.566,402.426 642.757,401.871 642.98,401.316 643.258,400.788 643.587,400.288 643.977,399.818 
		644.423,399.397 644.92,398.985 645.527,398.649 646.198,398.348 646.976,398.094 647.833,397.878 648.775,397.734 
		649.862,397.652 649.862,397.652 649.941,397.652 650.054,397.68 650.191,397.707 650.335,397.707 650.475,397.734 
		650.585,397.762 650.66,397.793 650.691,397.793 650.691,397.793 650.725,397.68 650.804,397.347 650.911,396.85 651.055,396.237 
		651.246,395.517 651.438,394.739 651.695,393.961 651.939,393.18 651.939,393.18 652.168,392.655 652.446,392.128 652.717,391.603 
		652.998,391.134 653.248,390.719 653.44,390.383 653.573,390.191 653.632,390.109 653.632,390.109 653.604,390.109 
		653.495,390.078 653.354,390.047 653.162,390.02 652.967,390.02 652.747,389.996 652.556,389.965 652.36,389.965 652.36,389.965 
		651.497,390.02 650.725,390.109 649.999,390.243 649.334,390.414 648.69,390.633 648.114,390.911 647.583,391.185 647.086,391.518 
		646.613,391.881 646.171,392.299 645.756,392.714 645.335,393.18 644.92,393.656 644.529,394.187 644.115,394.739 643.7,395.294 
		644.701,390.274 636.739,390.274 631.547,419.99 631.547,419.99 	"/>
	<polygon class="st5" points="753.447,449.182 753.447,449.069 753.67,448.35 754.06,447.712 754.533,447.157 755.109,446.715 
		755.774,446.379 756.494,446.187 757.275,446.102 758.06,446.187 758.773,446.379 759.444,446.715 760.024,447.157 
		760.493,447.712 760.88,448.35 761.107,449.069 761.107,449.182 760.301,449.182 760.137,448.603 759.859,448.076 759.492,447.599 
		759.05,447.212 758.529,446.907 757.916,446.715 757.275,446.657 756.638,446.715 756.031,446.907 755.496,447.212 
		755.054,447.599 754.694,448.076 754.417,448.603 754.252,449.182 753.447,449.182 	"/>
	<polygon class="st5" points="755.887,449.182 755.887,448.216 757.416,448.216 757.751,448.216 758.06,448.267 758.272,448.319 
		758.474,448.429 758.608,448.572 758.714,448.74 758.773,448.932 758.8,449.182 758.252,449.182 758.252,449.042 758.218,448.905 
		758.166,448.792 758.073,448.74 757.995,448.682 757.858,448.655 757.717,448.627 757.58,448.627 757.416,448.627 756.583,448.627 
		756.583,449.182 755.887,449.182 	"/>
	<polygon class="st5" points="753.368,449.793 753.447,449.182 754.252,449.182 754.252,449.206 754.197,449.793 753.368,449.793 	
		"/>
	<polygon class="st5" points="755.887,449.793 755.887,449.182 756.583,449.182 756.583,449.734 757.275,449.734 757.525,449.683 
		757.717,449.655 757.888,449.597 758.029,449.542 758.139,449.46 758.193,449.374 758.252,449.241 758.252,449.182 758.8,449.182 
		758.8,449.182 758.773,449.374 758.714,449.542 758.639,449.683 758.529,449.793 755.887,449.793 	"/>
	<polygon class="st5" points="760.359,449.793 760.301,449.206 760.301,449.182 761.107,449.182 761.192,449.793 760.359,449.793 	
		"/>
	<polygon class="st5" points="753.368,449.793 753.368,449.875 753.447,450.677 753.67,451.427 754.06,452.096 754.533,452.678 
		755.109,453.151 755.774,453.48 756.494,453.706 757.275,453.789 758.06,453.706 758.773,453.48 759.444,453.151 760.024,452.678 
		760.493,452.096 760.88,451.427 761.107,450.677 761.192,449.875 761.192,449.793 760.359,449.793 760.359,449.875 
		760.301,450.543 760.137,451.153 759.859,451.677 759.492,452.144 759.05,452.541 758.529,452.846 757.916,453.038 
		757.275,453.096 756.638,453.038 756.031,452.846 755.496,452.541 755.054,452.144 754.694,451.677 754.417,451.153 
		754.252,450.543 754.197,449.875 754.197,449.793 753.368,449.793 	"/>
	<polygon class="st5" points="755.887,449.793 755.887,451.403 756.583,451.403 756.583,450.012 757.275,450.012 758.108,451.403 
		758.66,451.403 757.83,450.012 758.029,450.012 758.218,449.96 758.389,449.902 758.529,449.793 758.529,449.793 755.887,449.793 	
		"/>
	<path class="st1" d="M632.404,399.119l-0.223-1.659l-0.387-1.474l-0.559-1.275l-0.692-1.11l-0.836-0.946l-0.915-0.775l-1.001-0.665
		l-1.08-0.497l-1.114-0.422l-1.141-0.278l-1.128-0.192l-1.141-0.11l-1.08-0.031l-2.248,0.117l-1.998,0.329l-1.806,0.5l-1.607,0.696
		l-1.391,0.833l-1.22,0.942l-1.08,1.052l-0.891,1.11l-0.771,1.165l-0.644,1.22l-0.494,1.196l-0.422,1.186l-0.308,1.172l-0.223,1.08
		l-0.164,1.028l-0.113,0.888l-0.137,2.276l0.079,2.049l0.305,1.861l0.473,1.638l0.672,1.47l0.799,1.278l0.942,1.138l1.086,0.942
		l1.165,0.805l1.251,0.692l1.306,0.531l1.357,0.411l1.391,0.336l1.385,0.195l1.385,0.141l1.364,0.024h0.915l0.857-0.024h0.75
		l0.72-0.031l0.644-0.055l0.579-0.055l0.555-0.058l0.5-0.086l0.473-0.086l0.442-0.106l0.449-0.141l0.415-0.137l0.415-0.171
		l0.442-0.161l0.449-0.226l0.442-0.219l1.114-6.827l-0.816,0.473l-0.771,0.439l-0.805,0.336l-0.778,0.305l-0.75,0.25l-0.771,0.165
		l-0.757,0.141l-0.751,0.11l-0.744,0.058l-0.727,0.027h-0.751l-0.713-0.027l-0.727-0.058l-0.72-0.082l-0.685-0.086l-0.727-0.11
		l-0.555-0.113l-0.548-0.195l-0.565-0.247l-0.494-0.308l-0.5-0.329l-0.442-0.411l-0.415-0.418l-0.394-0.476l-0.336-0.47
		l-0.298-0.524l-0.223-0.504l-0.199-0.528l-0.113-0.528l-0.041-0.528l0.021-0.466l0.065-0.36h17.999l0.144-1.693l0.415-2.334
		l0.192-2.111L632.404,399.119z M624.888,401.676h-10.137l0.007-0.024l-0.014-0.003l0.072-0.387l0.113-0.583l0.164-0.555
		l0.192-0.552l0.25-0.497l0.257-0.476l0.298-0.449l0.336-0.415l0.363-0.387l0.35-0.332l0.422-0.305l0.415-0.25l0.48-0.223
		l0.473-0.161l0.469-0.113l0.494-0.082l0.535-0.027l0.494,0.058l0.473,0.082l0.449,0.113l0.435,0.161l0.422,0.223l0.415,0.25
		l0.363,0.278l0.329,0.332l0.278,0.387l0.278,0.415l0.192,0.476l0.199,0.528l0.106,0.552l0.058,0.613l0.027,0.665L624.888,401.676z"
		/>
</g>
</svg>
