<?xml version="1.0" encoding="utf-8"?>
<!-- Generator: Adobe Illustrator 17.1.0, SVG Export Plug-In . SVG Version: 6.00 Build 0)  -->
<!DOCTYPE svg PUBLIC "-//W3C//DTD SVG 1.1//EN" "http://www.w3.org/Graphics/SVG/1.1/DTD/svg11.dtd">
<svg version="1.1" id="Layer_1" xmlns="http://www.w3.org/2000/svg" xmlns:xlink="http://www.w3.org/1999/xlink" x="0px" y="0px"
	 width="390px" height="245px" viewBox="435 0 390 245" style="enable-background:new 435 0 390 245;" xml:space="preserve">
<style type="text/css">
	.st0{fill:url(#SVGID_1_);}
	.st1{fill:#FFFFFF;}
	.st2{fill:url(#SVGID_2_);}
	.st3{fill:url(#SVGID_3_);}
	.st4{fill:url(#SVGID_4_);}
	.st5{fill:#FBB230;}
	.st6{fill:#EB2230;}
	.st7{fill:none;stroke:#FFFFFF;stroke-width:0.216;stroke-miterlimit:2.6131;}
	.st8{fill:url(#SVGID_5_);}
	.st9{fill:url(#SVGID_6_);}
	.st10{fill:url(#SVGID_7_);}
	.st11{fill:#081A23;}
	.st12{fill:#231F20;}
	.st13{fill:url(#SVGID_8_);}
	.st14{fill:#0078A9;}
	.st15{fill:url(#SVGID_9_);}
	.st16{fill:#004A97;}
</style>
<linearGradient id="SVGID_1_" gradientUnits="userSpaceOnUse" x1="704.689" y1="276.7322" x2="559.5022" y2="-23.3053" gradientTransform="matrix(1 0 0 -1 0 245)">
	<stop  offset="0" style="stop-color:#747E84"/>
	<stop  offset="0.0908" style="stop-color:#7B858C"/>
	<stop  offset="0.3357" style="stop-color:#8B959D"/>
	<stop  offset="0.5272" style="stop-color:#919CA4"/>
	<stop  offset="0.7044" style="stop-color:#89949B"/>
	<stop  offset="0.9557" style="stop-color:#788288"/>
	<stop  offset="1" style="stop-color:#747E84"/>
</linearGradient>
<path class="st0" d="M825.05,229.013c0,8.837-7.163,16-16,16h-358c-8.837,0-16-7.163-16-16v-213c0-8.837,7.163-16,16-16h358
	c8.837,0,16,7.163,16,16V229.013z"/>
<g>
	
		<radialGradient id="SVGID_2_" cx="701.7776" cy="649.0967" r="16.2155" gradientTransform="matrix(1.7253 0 0 -1.7253 -573.1202 1243.8091)" gradientUnits="userSpaceOnUse">
		<stop  offset="0.0056" style="stop-color:#FFEEE1"/>
		<stop  offset="0.0966" style="stop-color:#FFEAD8"/>
		<stop  offset="0.2452" style="stop-color:#FEDDC2"/>
		<stop  offset="0.4329" style="stop-color:#FCCA9F"/>
		<stop  offset="0.6522" style="stop-color:#F9AF72"/>
		<stop  offset="0.8954" style="stop-color:#F68F39"/>
		<stop  offset="1" style="stop-color:#F48220"/>
	</radialGradient>
	<path class="st2" d="M637.703,96.261c-15.649,0-28.335,12.219-28.335,27.301c0,16.037,12.131,28.017,28.335,28.017
		c15.781,0,28.247-12.139,28.247-27.708C665.95,108.409,653.564,96.261,637.703,96.261z"/>
	<path class="st11" d="M476.843,97.253h-15.224v53.134h15.153c8.036,0,13.854-1.91,18.954-6.127
		c6.047-5.031,9.636-12.598,9.636-20.414C505.364,108.162,493.649,97.253,476.843,97.253z M488.963,137.161
		c-3.28,2.952-7.488,4.225-14.199,4.225h-2.785v-35.134h2.785c6.711,0,10.759,1.194,14.199,4.296
		c3.58,3.192,5.711,8.124,5.711,13.218C494.674,128.876,492.545,133.986,488.963,137.161z"/>
	<rect x="510.146" y="97.253" class="st11" width="10.345" height="53.134"/>
	<path class="st11" d="M545.838,117.63c-6.223-2.298-8.045-3.82-8.045-6.684c0-3.342,3.263-5.888,7.728-5.888
		c3.104,0,5.649,1.273,8.373,4.287l5.411-7.072c-4.465-3.916-9.805-5.906-15.623-5.906c-9.389,0-16.568,6.534-16.568,15.215
		c0,7.338,3.342,11.078,13.067,14.579c4.067,1.432,6.135,2.386,7.17,3.033c2.069,1.361,3.112,3.263,3.112,5.49
		c0,4.315-3.421,7.488-8.054,7.488c-4.941,0-8.92-2.459-11.308-7.081l-6.684,6.463c4.765,7.003,10.504,10.114,18.397,10.114
		c10.75,0,18.319-7.179,18.319-17.451C561.133,125.774,557.641,121.945,545.838,117.63z"/>
	<path class="st11" d="M564.395,123.845c0,15.631,12.272,27.734,28.052,27.734c4.465,0,8.285-0.875,12.986-3.104v-12.191
		c-4.146,4.146-7.816,5.809-12.51,5.809c-10.433,0-17.85-7.567-17.85-18.328c0-10.184,7.638-18.238,17.372-18.238
		c4.933,0,8.682,1.76,12.986,5.976V99.313c-4.536-2.308-8.292-3.254-12.748-3.254C576.985,96.059,564.395,108.409,564.395,123.845z"
		/>
	<polygon class="st11" points="689.397,132.942 675.225,97.253 663.899,97.253 686.462,151.747 692.031,151.747 714.983,97.253 
		703.755,97.253 	"/>
	<polygon class="st11" points="719.695,150.387 749.082,150.387 749.082,141.386 730.038,141.386 730.038,127.037 748.357,127.037 
		748.357,118.046 730.038,118.046 730.038,106.252 749.082,106.252 749.082,97.253 719.695,97.253 	"/>
	<path class="st11" d="M790.104,112.936c0-9.955-6.843-15.683-18.795-15.683h-15.383v53.134h10.371v-21.352h1.353l14.339,21.351
		h12.74l-16.735-22.386C785.807,126.409,790.104,121.069,790.104,112.936z M769.309,121.706h-3.014v-16.099h3.183
		c6.463,0,9.964,2.723,9.964,7.886C779.442,118.833,775.941,121.706,769.309,121.706z"/>
	<path class="st12" d="M797.415,101.212c0-0.928-0.628-1.441-1.768-1.441h-1.503v4.686h1.115v-1.822l1.299,1.822h1.397l-1.556-1.936
		C797.052,102.344,797.415,101.866,797.415,101.212z M795.453,101.849h-0.195v-1.211h0.204c0.566,0,0.84,0.195,0.84,0.592
		C796.302,101.637,796.019,101.849,795.453,101.849z"/>
	<path class="st12" d="M795.877,98.012c-2.272,0-4.086,1.822-4.086,4.094c0,2.264,1.822,4.086,4.086,4.086
		c2.219,0,4.041-1.839,4.041-4.086C799.918,99.86,798.096,98.012,795.877,98.012z M795.869,105.457
		c-1.813,0-3.271-1.485-3.271-3.342c0-1.874,1.441-3.359,3.271-3.359c1.768,0,3.218,1.511,3.218,3.359
		C799.086,103.954,797.637,105.457,795.869,105.457z"/>
</g>
</svg>
