<?xml version="1.0" encoding="utf-8"?>
<!-- Generator: Adobe Illustrator 24.1.0, SVG Export Plug-In . SVG Version: 6.00 Build 0)  -->
<svg version="1.1" id="Layer_1" xmlns="http://www.w3.org/2000/svg" xmlns:xlink="http://www.w3.org/1999/xlink" x="0px" y="0px"
	 viewBox="0 0 390 245" enable-background="new 0 0 390 245" xml:space="preserve">
<g>
	<g transform="translate(1565.7 -1106.8)">
		<g transform="matrix(3.1437 0 0 3.1437 -4835.7 -1027.6)">
			<g transform="matrix(1.25 0 0 -1.25 1102.5 727.74)">
				<path fill="#FFFFFF" d="M31.2-17v-0.1h0.1c0,0,0.1,0,0.1,0c0,0,0,0,0,0.1s0,0,0,0c0,0,0,0-0.1,0H31.2z M31.3-16.9
					c0.1,0,0.1,0,0.1,0c0,0,0.1-0.1,0.1-0.1c0,0,0-0.1,0-0.1c0,0-0.1,0-0.1,0l0.2-0.2h-0.1l-0.2,0.2h0v-0.2h-0.1v0.5H31.3z
					 M31.3-17.6c0.1,0,0.1,0,0.2,0c0.1,0,0.1,0.1,0.1,0.1c0,0,0.1,0.1,0.1,0.1c0,0.1,0,0.1,0,0.2s0,0.1,0,0.2c0,0.1-0.1,0.1-0.1,0.1
					c0,0-0.1,0.1-0.1,0.1c0,0-0.1,0-0.2,0s-0.1,0-0.2,0c-0.1,0-0.1-0.1-0.1-0.1c0,0-0.1-0.1-0.1-0.1c0-0.1,0-0.1,0-0.2s0-0.1,0-0.2
					c0-0.1,0.1-0.1,0.1-0.1c0,0,0.1-0.1,0.1-0.1C31.2-17.5,31.2-17.6,31.3-17.6 M31.3-16.6c0.1,0,0.1,0,0.2,0c0.1,0,0.1-0.1,0.2-0.1
					c0,0,0.1-0.1,0.1-0.2c0-0.1,0-0.1,0-0.2c0-0.1,0-0.1,0-0.2c0-0.1-0.1-0.1-0.1-0.2c-0.1,0-0.1-0.1-0.2-0.1c-0.1,0-0.1,0-0.2,0
					c-0.1,0-0.1,0-0.2,0s-0.1,0.1-0.2,0.1c0,0-0.1,0.1-0.1,0.2c0,0.1,0,0.1,0,0.2c0,0.1,0,0.1,0,0.2c0,0.1,0.1,0.1,0.1,0.2
					c0,0,0.1,0.1,0.2,0.1C31.2-16.6,31.2-16.6,31.3-16.6 M-19-14.7c0,0.9,0.6,1.7,1.6,1.7c1,0,1.6-0.7,1.6-1.7s-0.7-1.7-1.6-1.7
					C-18.3-16.4-19-15.6-19-14.7 M-14.6-14.7v2.7h-1.2v-0.7c-0.4,0.5-0.9,0.8-1.7,0.8c-1.5,0-2.7-1.2-2.7-2.8c0-1.6,1.2-2.8,2.7-2.8
					c0.8,0,1.3,0.3,1.7,0.8v-0.7h1.2V-14.7z M25-14.7c0,0.9,0.6,1.7,1.6,1.7c1,0,1.6-0.7,1.6-1.7s-0.7-1.7-1.6-1.7
					C25.6-16.4,25-15.6,25-14.7 M29.4-14.7v4.9h-1.2v-2.8c-0.4,0.5-0.9,0.8-1.7,0.8c-1.5,0-2.7-1.2-2.7-2.8c0-1.6,1.2-2.8,2.7-2.8
					c0.8,0,1.3,0.3,1.7,0.8v-0.7h1.2V-14.7z M-0.1-12.9c0.8,0,1.2-0.5,1.4-1.3h-2.8C-1.4-13.4-0.9-12.9-0.1-12.9 M0-11.9
					c-1.6,0-2.7-1.1-2.7-2.8c0-1.7,1.1-2.8,2.8-2.8c0.8,0,1.6,0.2,2.2,0.8l-0.6,0.9c-0.5-0.4-1-0.6-1.6-0.6c-0.8,0-1.4,0.3-1.6,1.3
					h4c0,0.1,0,0.3,0,0.5C2.5-13,1.5-11.9,0-11.9 M14.1-14.7c0,0.9,0.6,1.7,1.6,1.7c1,0,1.6-0.7,1.6-1.7s-0.7-1.7-1.6-1.7
					C14.7-16.4,14.1-15.6,14.1-14.7 M18.5-14.7v2.7h-1.2v-0.7c-0.4,0.5-0.9,0.8-1.7,0.8c-1.5,0-2.7-1.2-2.7-2.8
					c0-1.6,1.2-2.8,2.7-2.8c0.8,0,1.3,0.3,1.7,0.8v-0.7h1.2V-14.7z M7.5-14.7c0-1.6,1.1-2.8,2.9-2.8c0.8,0,1.4,0.2,1.9,0.6l-0.6,0.9
					c-0.4-0.3-0.9-0.5-1.4-0.5c-0.9,0-1.6,0.7-1.6,1.7S9.4-13,10.3-13c0.5,0,1-0.2,1.4-0.5l0.6,0.9c-0.6,0.5-1.1,0.6-1.9,0.6
					C8.6-11.9,7.5-13.1,7.5-14.7 M22.6-11.9c-0.7,0-1.1-0.3-1.4-0.8v0.7H20v-5.4h1.2v3c0,0.9,0.4,1.4,1.1,1.4c0.2,0,0.5,0,0.7-0.1
					l0.4,1.1C23.2-11.9,22.8-11.9,22.6-11.9 M-8.8-12.4c-0.6,0.4-1.3,0.6-2.2,0.6c-1.4,0-2.2-0.7-2.2-1.7c0-0.9,0.7-1.4,1.9-1.6
					l0.6-0.1c0.6-0.1,0.9-0.3,0.9-0.6c0-0.4-0.4-0.7-1.2-0.7c-0.8,0-1.4,0.3-1.8,0.6l-0.6-0.9c0.6-0.5,1.5-0.7,2.3-0.7
					c1.6,0,2.5,0.7,2.5,1.8c0,0.9-0.7,1.4-1.9,1.6l-0.6,0.1c-0.5,0.1-0.9,0.2-0.9,0.5c0,0.4,0.4,0.6,1,0.6c0.7,0,1.4-0.3,1.7-0.5
					L-8.8-12.4z M6.3-11.9c-0.7,0-1.1-0.3-1.4-0.8v0.7H3.7v-5.4h1.2v3C4.9-13.5,5.3-13,6-13c0.2,0,0.5,0,0.7-0.1L7.1-12
					C6.9-11.9,6.5-11.9,6.3-11.9 M-3.7-12h-1.9v1.6h-1.2V-12h-1.1v-1.1h1.1v-2.5c0-1.3,0.5-2,1.9-2c0.5,0,1.1,0.2,1.5,0.4l-0.3,1
					c-0.3-0.2-0.7-0.3-1-0.3c-0.6,0-0.8,0.4-0.8,0.9v2.4h1.9L-3.7-12z M-21.2-17.4v3.4c0,1.3-0.8,2.1-2.1,2.1c-0.7,0-1.4-0.2-1.9-1
					c-0.4,0.6-1,1-1.8,1c-0.6,0-1.1-0.2-1.6-0.8v0.7h-1.2v-5.4h1.2v3c0,0.9,0.5,1.4,1.3,1.4c0.8,0,1.2-0.5,1.2-1.4v-3h1.2v3
					c0,0.9,0.5,1.4,1.3,1.4c0.8,0,1.2-0.5,1.2-1.4v-3H-21.2z"/>
			</g>
			<g transform="matrix(1.25 0 0 -1.25 1103.2 710.77)">
				<path fill="#F79410" d="M31.4-13v0.8h-0.2l-0.2-0.5l-0.2,0.5h-0.2V-13h0.1v0.6l0.2-0.5H31l0.2,0.5V-13H31.4z M30.1-13v0.7h0.3
					v0.1h-0.7v-0.1h0.3V-13H30.1z"/>
			</g>
			<path fill="#FF5F00" d="M1113.3,731.3h-22.2v-39.9h22.2V731.3z"/>
			<g transform="matrix(1.25 0 0 -1.25 1064.5 698.59)">
				<path fill="#EB001B" d="M22.4-10.2c0,6.5,3,12.2,7.8,16c-3.5,2.7-7.8,4.3-12.5,4.3C6.4,10.1-2.7,1-2.7-10.2s9.1-20.3,20.3-20.3
					c4.7,0,9.1,1.6,12.5,4.3C25.4-22.5,22.4-16.7,22.4-10.2"/>
			</g>
			<g transform="matrix(1.25 0 0 -1.25 1103.8 698.59)">
				<path fill="#F79E1B" d="M31.5-10.2c0-11.2-9.1-20.3-20.3-20.3c-4.7,0-9.1,1.6-12.5,4.3c4.7,3.7,7.8,9.5,7.8,16S3.4,2-1.3,5.7
					c3.5,2.7,7.8,4.3,12.5,4.3C22.4,10.1,31.5,1,31.5-10.2"/>
			</g>
		</g>
	</g>
</g>
</svg>
