<?xml version="1.0" encoding="utf-8"?>
<!-- Generator: Adobe Illustrator 17.1.0, SVG Export Plug-In . SVG Version: 6.00 Build 0)  -->
<!DOCTYPE svg PUBLIC "-//W3C//DTD SVG 1.1//EN" "http://www.w3.org/Graphics/SVG/1.1/DTD/svg11.dtd">
<svg version="1.1" id="Layer_1" xmlns="http://www.w3.org/2000/svg" xmlns:xlink="http://www.w3.org/1999/xlink" x="0px" y="0px"
	 width="390px" height="245px" viewBox="0 0 390 245" style="enable-background:new 0 0 390 245;" xml:space="preserve">
<style type="text/css">
	.st0{fill:url(#SVGID_1_);}
	.st1{fill:url(#SVGID_2_);}
	.st2{fill:#FFFFFF;}
	.st3{fill:url(#SVGID_3_);}
	.st4{fill:url(#SVGID_4_);}
	.st5{fill:url(#SVGID_5_);}
	.st6{fill:url(#SVGID_6_);}
	.st7{fill:url(#SVGID_7_);}
	.st8{fill:url(#SVGID_8_);}
	.st9{fill:url(#SVGID_9_);}
	.st10{fill:url(#SVGID_10_);}
	.st11{fill:#DCDBDA;}
	.st12{fill:#C3C4C4;}
	.st13{fill-rule:evenodd;clip-rule:evenodd;fill:#FBB230;}
	.st14{fill-rule:evenodd;clip-rule:evenodd;fill:#EB2230;}
	.st15{fill-rule:evenodd;clip-rule:evenodd;fill:#FFFFFF;}
	.st16{fill:none;stroke:#FFFFFF;stroke-width:0.216;stroke-miterlimit:2.6131;}
	.st17{fill:url(#SVGID_11_);}
	.st18{fill:url(#SVGID_12_);}
	.st19{fill:url(#SVGID_13_);}
	.st20{fill:url(#SVGID_14_);}
	.st21{fill:url(#SVGID_15_);}
	.st22{fill:#081A23;}
	.st23{fill:#231F20;}
	.st24{fill:#0078A9;}
	.st25{fill:#004A97;}
</style>
<linearGradient id="SVGID_1_" gradientUnits="userSpaceOnUse" x1="269.6385" y1="-31.7451" x2="124.4517" y2="268.2924">
	<stop  offset="0" style="stop-color:#333333"/>
	<stop  offset="0.3343" style="stop-color:#464646"/>
	<stop  offset="0.5272" style="stop-color:#4E4F4F"/>
	<stop  offset="0.8301" style="stop-color:#3D3E3D"/>
	<stop  offset="1" style="stop-color:#333333"/>
</linearGradient>
<path class="st0" d="M390,229c0,8.837-7.163,16-16,16H16c-8.837,0-16-7.163-16-16V16C0,7.163,7.163,0,16,0h358
	c8.837,0,16,7.163,16,16V229z"/>
<linearGradient id="SVGID_2_" gradientUnits="userSpaceOnUse" x1="85.4932" y1="67.7095" x2="52.9035" y2="113.3352">
	<stop  offset="0" style="stop-color:#C3892B"/>
	<stop  offset="0.1931" style="stop-color:#D29A32"/>
	<stop  offset="0.4118" style="stop-color:#E0AA3A"/>
	<stop  offset="0.5816" style="stop-color:#E6B13D"/>
	<stop  offset="0.7071" style="stop-color:#DFA939"/>
	<stop  offset="0.8922" style="stop-color:#CE952F"/>
	<stop  offset="1" style="stop-color:#C3892B"/>
</linearGradient>
<path class="st1" d="M100.5,109c0,2.209-1.791,4-4,4h-51c-2.209,0-4-1.791-4-4V67c0-2.209,1.791-4,4-4h51c2.209,0,4,1.791,4,4V109z"
	/>
<g>
	<polygon class="st13" points="345.728,66.851 346.967,66.819 348.19,66.73 349.388,66.578 350.58,66.366 351.738,66.099 
		352.88,65.775 353.996,65.394 355.088,64.965 356.157,64.48 357.194,63.954 358.198,63.37 359.178,62.747 360.117,62.076 
		361.023,61.363 361.898,60.61 362.732,59.808 363.534,58.974 364.286,58.098 365.001,57.193 365.671,56.253 366.294,55.274 
		366.878,54.268 367.403,53.232 367.888,52.165 368.317,51.071 368.698,49.953 369.023,48.813 369.29,47.654 369.5,46.465 
		369.655,45.266 369.744,44.043 369.775,42.804 369.744,41.574 369.655,40.359 369.5,39.161 369.29,37.986 369.023,36.829 
		368.698,35.695 368.317,34.578 367.888,33.493 367.403,32.433 366.878,31.396 366.294,30.4 365.671,29.421 365.001,28.482 
		364.286,27.583 363.534,26.709 362.732,25.874 361.898,25.081 361.023,24.328 360.117,23.615 359.178,22.944 358.198,22.32 
		357.194,21.745 356.157,21.22 355.088,20.732 353.996,20.304 352.88,19.923 351.738,19.599 350.58,19.332 349.388,19.122 
		348.19,18.968 346.967,18.878 345.728,18.846 344.499,18.878 343.276,18.968 342.078,19.122 340.894,19.332 339.736,19.599 
		338.594,19.923 337.486,20.304 336.392,20.732 335.332,21.22 334.305,21.745 333.301,22.32 332.328,22.944 331.39,23.615 
		330.482,24.328 329.615,25.081 328.782,25.874 327.988,26.709 327.236,27.583 326.524,28.482 325.859,29.421 325.234,30.4 
		324.661,31.396 324.126,32.433 323.649,33.493 323.219,34.578 322.847,35.695 322.524,36.829 322.255,37.986 322.045,39.161 
		321.892,40.359 321.803,41.574 321.77,42.804 321.803,44.043 321.892,45.266 322.045,46.465 322.255,47.654 322.524,48.813 
		322.847,49.953 323.219,51.071 323.649,52.165 324.126,53.232 324.661,54.268 325.234,55.274 325.859,56.253 326.524,57.193 
		327.236,58.098 327.988,58.974 328.782,59.808 329.615,60.61 330.482,61.363 331.39,62.076 332.328,62.747 333.301,63.37 
		334.305,63.954 335.332,64.48 336.392,64.965 337.486,65.394 338.594,65.775 339.736,66.099 340.894,66.366 342.078,66.578 
		343.276,66.73 344.499,66.819 345.728,66.851 345.728,66.851 	"/>
	<polygon class="st14" points="313.618,66.851 314.847,66.819 316.07,66.73 317.27,66.578 318.451,66.366 319.609,66.099 
		320.749,65.775 321.859,65.394 322.953,64.965 324.013,64.48 325.042,63.954 326.045,63.37 327.017,62.747 327.957,62.076 
		328.863,61.363 329.73,60.61 330.563,59.808 331.357,58.974 332.111,58.098 332.822,57.193 333.486,56.253 334.109,55.274 
		334.684,54.268 335.219,53.232 335.697,52.165 336.126,51.071 336.499,49.953 336.822,48.813 337.09,47.654 337.299,46.465 
		337.455,45.266 337.542,44.043 337.574,42.804 337.542,41.574 337.455,40.359 337.299,39.161 337.09,37.986 336.822,36.829 
		336.499,35.695 336.126,34.578 335.697,33.493 335.219,32.433 334.684,31.396 334.109,30.4 333.486,29.421 332.822,28.482 
		332.111,27.583 331.357,26.709 330.563,25.874 329.73,25.081 328.863,24.328 327.957,23.615 327.017,22.944 326.045,22.32 
		325.042,21.745 324.013,21.22 322.953,20.732 321.859,20.304 320.749,19.923 319.609,19.599 318.451,19.332 317.27,19.122 
		316.07,18.968 314.847,18.878 313.618,18.846 312.378,18.878 311.155,18.968 309.957,19.122 308.766,19.332 307.609,19.599 
		306.468,19.923 305.349,20.304 304.257,20.732 303.188,21.22 302.153,21.745 301.149,22.32 300.168,22.944 299.228,23.615 
		298.322,24.328 297.447,25.081 296.613,25.874 295.811,26.709 295.059,27.583 294.347,28.482 293.674,29.421 293.051,30.4 
		292.468,31.396 291.943,32.433 291.455,33.493 291.028,34.578 290.647,35.695 290.322,36.829 290.055,37.986 289.845,39.161 
		289.691,40.359 289.601,41.574 289.57,42.804 289.601,44.043 289.691,45.266 289.845,46.465 290.055,47.654 290.322,48.813 
		290.647,49.953 291.028,51.071 291.455,52.165 291.943,53.232 292.468,54.268 293.051,55.274 293.674,56.253 294.347,57.193 
		295.059,58.098 295.811,58.974 296.613,59.808 297.447,60.61 298.322,61.363 299.228,62.076 300.168,62.747 301.149,63.37 
		302.153,63.954 303.188,64.48 304.257,64.965 305.349,65.394 306.468,65.775 307.609,66.099 308.766,66.366 309.957,66.578 
		311.155,66.73 312.378,66.819 313.618,66.851 313.618,66.851 	"/>
	<polygon class="st13" points="326.863,28.052 339.617,28.052 339.617,26.748 327.963,26.748 326.863,28.052 326.863,28.052 	"/>
	<polygon class="st13" points="324.953,30.95 339.617,30.95 339.617,29.646 325.722,29.646 324.953,30.95 324.953,30.95 	"/>
	<polygon class="st13" points="323.526,33.841 339.617,33.841 339.617,32.537 324.095,32.537 323.526,33.841 323.526,33.841 	"/>
	<polygon class="st13" points="322.547,36.74 339.617,36.74 339.617,35.437 322.953,35.437 322.547,36.74 322.547,36.74 	"/>
	<polygon class="st13" points="323.115,50.748 339.657,50.748 339.657,49.444 322.709,49.444 323.115,50.748 323.115,50.748 	"/>
	<polygon class="st13" points="324.336,53.646 339.657,53.646 339.657,52.342 323.73,52.342 324.336,53.646 324.336,53.646 	"/>
	<polygon class="st13" points="326.053,56.537 339.657,56.537 339.657,55.233 325.234,55.233 326.053,56.537 326.053,56.537 	"/>
	<polygon class="st13" points="328.417,59.435 339.657,59.435 339.657,58.123 327.276,58.123 328.417,59.435 328.417,59.435 	"/>
	<polygon class="st13" points="321.974,39.631 339.617,39.631 339.617,38.327 322.224,38.327 321.974,39.631 321.974,39.631 	"/>
	<polygon class="st13" points="332.726,47.858 339.453,47.858 339.453,46.553 332.967,46.553 332.726,47.858 332.726,47.858 	"/>
	<polygon class="st13" points="333.259,44.966 339.453,44.966 339.453,43.654 333.503,43.654 333.259,44.966 333.259,44.966 	"/>
	<polygon class="st13" points="321.528,43.654 323.276,43.654 323.276,44.966 321.609,44.966 321.528,43.654 321.528,43.654 	"/>
	<polygon class="st15" points="318.263,42.075 318.151,42.067 318.036,42.051 317.932,42.036 317.828,42.019 317.73,42.003 
		317.626,41.987 317.52,41.971 317.405,41.954 317.292,41.939 317.163,41.93 317.018,41.922 316.865,41.913 316.695,41.913 
		316.507,41.922 316.297,41.939 316.063,41.954 315.901,41.979 315.747,42.003 315.609,42.051 315.486,42.099 315.374,42.157 
		315.27,42.221 315.188,42.303 315.115,42.375 315.065,42.464 315.024,42.553 315.009,42.65 315.009,42.748 315.034,42.853 
		315.065,42.958 315.13,43.064 315.211,43.169 315.374,43.322 315.57,43.444 315.795,43.549 316.038,43.638 316.297,43.72 
		316.565,43.809 316.832,43.907 317.09,44.011 317.334,44.148 317.559,44.318 317.763,44.522 317.932,44.772 318.061,45.079 
		318.143,45.444 318.176,45.882 318.143,46.392 318.086,46.772 317.988,47.104 317.859,47.412 317.697,47.678 317.511,47.914 
		317.301,48.116 317.074,48.294 316.824,48.449 316.565,48.57 316.297,48.674 316.022,48.755 315.738,48.82 315.463,48.87 
		315.195,48.893 314.928,48.91 314.678,48.917 314.33,48.917 314.005,48.91 313.722,48.91 313.455,48.902 313.211,48.893 
		312.993,48.877 312.799,48.861 312.613,48.837 312.443,48.82 312.288,48.788 312.136,48.763 311.997,48.724 311.859,48.691 
		311.73,48.641 311.601,48.594 311.463,48.545 311.828,46.756 311.901,46.772 311.99,46.797 312.103,46.828 312.24,46.862 
		312.386,46.893 312.547,46.926 312.726,46.966 312.92,46.999 313.122,47.03 313.332,47.063 313.553,47.087 313.778,47.112 
		314.013,47.12 314.249,47.128 314.484,47.128 314.717,47.12 314.953,47.072 315.14,47.006 315.286,46.918 315.399,46.804 
		315.478,46.691 315.543,46.56 315.584,46.432 315.618,46.311 315.632,46.075 315.559,45.873 315.422,45.71 315.22,45.573 
		314.978,45.452 314.693,45.33 314.378,45.216 314.061,45.088 313.738,44.942 313.43,44.772 313.147,44.562 312.888,44.311 
		312.684,44.002 312.54,43.638 312.468,43.202 312.476,42.684 312.515,42.367 312.572,42.067 312.653,41.792 312.751,41.534 
		312.88,41.291 313.026,41.08 313.197,40.877 313.399,40.7 313.634,40.546 313.893,40.416 314.184,40.295 314.509,40.206 
		314.872,40.132 315.27,40.076 315.705,40.044 316.184,40.035 316.482,40.035 316.757,40.044 317.009,40.052 317.236,40.06 
		317.438,40.076 317.626,40.092 317.786,40.108 317.932,40.125 318.07,40.14 318.182,40.165 318.29,40.182 318.386,40.197 
		318.465,40.213 318.54,40.222 318.613,40.238 318.676,40.247 318.263,42.075 318.263,42.075 	"/>
	<polyline class="st16" points="318.263,42.075 318.263,42.075 318.151,42.067 318.036,42.051 317.932,42.036 317.828,42.019 
		317.73,42.003 317.626,41.987 317.52,41.971 317.405,41.954 317.292,41.939 317.163,41.93 317.018,41.922 316.865,41.913 
		316.695,41.913 316.507,41.922 316.297,41.939 316.063,41.954 316.063,41.954 315.901,41.979 315.747,42.003 315.609,42.051 
		315.486,42.099 315.374,42.157 315.27,42.221 315.188,42.303 315.115,42.375 315.065,42.464 315.024,42.553 315.009,42.65 
		315.009,42.748 315.034,42.853 315.065,42.958 315.13,43.064 315.211,43.169 315.211,43.169 315.374,43.322 315.57,43.444 
		315.795,43.549 316.038,43.638 316.297,43.72 316.565,43.809 316.832,43.907 317.09,44.011 317.334,44.148 317.559,44.318 
		317.763,44.522 317.932,44.772 318.061,45.079 318.143,45.444 318.176,45.882 318.143,46.392 318.143,46.392 318.086,46.772 
		317.988,47.104 317.859,47.412 317.697,47.678 317.511,47.914 317.301,48.116 317.074,48.294 316.824,48.449 316.565,48.57 
		316.297,48.674 316.022,48.755 315.738,48.82 315.463,48.87 315.195,48.893 314.928,48.91 314.678,48.917 314.678,48.917 
		314.33,48.917 314.005,48.91 313.722,48.91 313.455,48.902 313.211,48.893 312.993,48.877 312.799,48.861 312.613,48.837 
		312.443,48.82 312.288,48.788 312.136,48.763 311.997,48.724 311.859,48.691 311.73,48.641 311.601,48.594 311.463,48.545 
		311.828,46.756 311.828,46.756 311.901,46.772 311.99,46.797 312.103,46.828 312.24,46.862 312.386,46.893 312.547,46.926 
		312.726,46.966 312.92,46.999 313.122,47.03 313.332,47.063 313.553,47.087 313.778,47.112 314.013,47.12 314.249,47.128 
		314.484,47.128 314.717,47.12 314.717,47.12 314.953,47.072 315.14,47.006 315.286,46.918 315.399,46.804 315.478,46.691 
		315.543,46.56 315.584,46.432 315.618,46.311 315.618,46.311 315.632,46.075 315.559,45.873 315.422,45.71 315.22,45.573 
		314.978,45.452 314.693,45.33 314.378,45.216 314.061,45.088 313.738,44.942 313.43,44.772 313.147,44.562 312.888,44.311 
		312.684,44.002 312.54,43.638 312.468,43.202 312.476,42.684 312.476,42.684 312.515,42.367 312.572,42.067 312.653,41.792 
		312.751,41.534 312.88,41.291 313.026,41.08 313.197,40.877 313.399,40.7 313.634,40.546 313.893,40.416 314.184,40.295 
		314.509,40.206 314.872,40.132 315.27,40.076 315.705,40.044 316.184,40.035 316.184,40.035 316.482,40.035 316.757,40.044 
		317.009,40.052 317.236,40.06 317.438,40.076 317.626,40.092 317.786,40.108 317.932,40.125 318.07,40.14 318.182,40.165 
		318.29,40.182 318.386,40.197 318.465,40.213 318.54,40.222 318.613,40.238 318.676,40.247 318.263,42.075 	"/>
	<polygon class="st15" points="320.184,38.247 322.426,38.247 322.095,40.206 323.447,40.206 323.155,42.036 321.73,41.995 
		320.953,46.512 320.945,46.675 320.984,46.813 321.065,46.918 321.172,47.006 321.317,47.063 321.48,47.112 321.657,47.143 
		321.851,47.161 322.03,47.153 322.193,47.137 322.336,47.112 322.467,47.079 322.572,47.047 322.645,47.023 322.692,47.006 
		322.709,46.999 322.426,48.505 322.37,48.545 322.313,48.577 322.255,48.61 322.199,48.641 322.142,48.666 322.078,48.691 
		322.005,48.715 321.932,48.739 321.851,48.763 321.77,48.78 321.674,48.796 321.576,48.813 321.47,48.829 321.349,48.845 
		321.22,48.861 321.082,48.877 320.467,48.877 320.142,48.852 319.859,48.82 319.601,48.772 319.382,48.715 319.195,48.641 
		319.042,48.562 318.905,48.464 318.799,48.359 318.717,48.245 318.661,48.108 318.62,47.969 318.597,47.816 318.588,47.646 
		318.588,47.468 318.613,47.283 318.636,47.079 320.184,38.247 320.184,38.247 	"/>
	<polyline class="st16" points="320.184,38.247 322.426,38.247 322.095,40.206 323.447,40.206 323.155,42.036 321.73,41.995 
		320.953,46.512 320.953,46.512 320.945,46.675 320.984,46.813 321.065,46.918 321.172,47.006 321.317,47.063 321.48,47.112 
		321.657,47.143 321.851,47.161 321.851,47.161 322.03,47.153 322.193,47.137 322.336,47.112 322.467,47.079 322.572,47.047 
		322.645,47.023 322.692,47.006 322.709,46.999 322.426,48.505 322.426,48.505 322.37,48.545 322.313,48.577 322.255,48.61 
		322.199,48.641 322.142,48.666 322.078,48.691 322.005,48.715 321.932,48.739 321.851,48.763 321.77,48.78 321.674,48.796 
		321.576,48.813 321.47,48.829 321.349,48.845 321.22,48.861 321.082,48.877 320.467,48.877 320.467,48.877 320.142,48.852 
		319.859,48.82 319.601,48.772 319.382,48.715 319.195,48.641 319.042,48.562 318.905,48.464 318.799,48.359 318.717,48.245 
		318.661,48.108 318.62,47.969 318.597,47.816 318.588,47.646 318.588,47.468 318.613,47.283 318.636,47.079 320.184,38.247 	"/>
	<polyline class="st16" points="325.234,45.088 325.234,45.088 325.213,45.225 325.205,45.37 325.217,45.524 325.251,45.678 
		325.309,45.832 325.374,45.98 325.461,46.133 325.559,46.269 325.674,46.408 325.794,46.53 325.924,46.651 326.069,46.747 
		326.213,46.837 326.378,46.909 326.538,46.966 326.701,46.999 326.701,46.999 326.913,47.03 327.113,47.055 327.324,47.079 
		327.536,47.096 327.744,47.104 327.963,47.104 328.176,47.096 328.392,47.079 328.611,47.047 328.832,47.006 329.057,46.958 
		329.276,46.885 329.503,46.797 329.738,46.698 329.963,46.57 330.201,46.432 329.876,48.424 329.876,48.424 329.747,48.488 
		329.615,48.554 329.486,48.601 329.365,48.651 329.245,48.691 329.113,48.732 328.984,48.763 328.847,48.788 328.701,48.813 
		328.538,48.829 328.37,48.845 328.182,48.861 327.972,48.87 327.753,48.87 327.503,48.877 327.236,48.877 327.236,48.877 
		326.838,48.87 326.434,48.829 326.03,48.772 325.624,48.674 325.228,48.554 324.847,48.399 324.482,48.197 324.142,47.962 
		323.826,47.687 323.551,47.355 323.317,46.982 323.122,46.553 322.984,46.075 322.895,45.532 322.872,44.934 322.911,44.27 
		322.911,44.27 322.944,44.011 322.992,43.711 323.057,43.396 323.147,43.054 323.27,42.708 323.413,42.359 323.601,42.003 
		323.826,41.663 324.086,41.339 324.401,41.032 324.757,40.757 325.163,40.514 325.632,40.311 326.159,40.165 326.742,40.068 
		327.399,40.035 327.399,40.035 327.713,40.044 328.047,40.076 328.376,40.132 328.709,40.213 329.034,40.336 329.349,40.481 
		329.64,40.675 329.907,40.901 330.151,41.177 330.353,41.502 330.515,41.874 330.628,42.303 330.692,42.787 330.701,43.338 
		330.645,43.953 330.524,44.635 330.482,45.128 324.58,45.128 324.953,43.533 328.499,43.533 328.499,43.533 328.515,43.331 
		328.507,43.137 328.49,42.958 328.459,42.797 328.401,42.643 328.344,42.504 328.263,42.383 328.182,42.27 328.086,42.173 
		327.98,42.092 327.859,42.019 327.736,41.954 327.609,41.907 327.478,41.874 327.34,41.849 327.197,41.833 327.197,41.833 
		327.04,41.841 326.897,41.865 326.759,41.899 326.622,41.946 326.482,42.011 326.361,42.084 326.238,42.173 326.136,42.27 
		326.03,42.383 325.932,42.504 325.845,42.635 325.77,42.773 325.697,42.918 325.64,43.08 325.592,43.242 325.559,43.412 
		325.234,45.088 	"/>
	<polygon class="st15" points="344.546,40.691 344.44,40.635 344.336,40.586 344.224,40.529 344.101,40.472 343.98,40.424 
		343.842,40.375 343.705,40.326 343.559,40.278 343.405,40.238 343.251,40.206 343.08,40.173 342.911,40.149 342.726,40.132 
		342.538,40.116 342.344,40.116 342.142,40.116 341.94,40.116 341.728,40.132 341.511,40.158 341.282,40.197 341.057,40.262 
		340.83,40.351 340.605,40.465 340.376,40.61 340.157,40.788 339.947,40.999 339.744,41.258 339.551,41.558 339.371,41.913 
		339.203,42.318 339.051,42.773 338.919,43.291 338.872,43.581 338.838,43.864 338.822,44.148 338.83,44.424 338.855,44.699 
		338.911,44.959 338.984,45.201 339.074,45.444 339.194,45.663 339.34,45.873 339.511,46.059 339.705,46.229 339.924,46.375 
		340.174,46.497 340.449,46.602 340.759,46.675 340.863,46.698 340.984,46.723 341.13,46.74 341.292,46.756 341.469,46.772 
		341.655,46.772 341.859,46.772 342.061,46.756 342.272,46.73 342.482,46.691 342.684,46.634 342.886,46.57 343.088,46.48 
		343.276,46.375 343.444,46.246 343.607,46.1 343.242,48.262 343.194,48.302 343.144,48.351 343.08,48.409 343.007,48.455 
		342.919,48.52 342.805,48.577 342.676,48.634 342.53,48.682 342.344,48.739 342.134,48.78 341.89,48.813 341.607,48.845 
		341.292,48.861 340.928,48.87 340.515,48.861 340.059,48.837 339.688,48.796 339.315,48.715 338.942,48.594 338.571,48.432 
		338.215,48.238 337.876,47.993 337.551,47.711 337.251,47.388 336.984,47.023 336.757,46.619 336.563,46.165 336.417,45.671 
		336.321,45.128 336.288,44.553 336.305,43.922 336.392,43.25 336.459,42.918 336.532,42.595 336.611,42.278 336.692,41.979 
		336.782,41.695 336.886,41.412 336.992,41.145 337.105,40.894 337.228,40.643 337.349,40.408 337.486,40.182 337.632,39.971 
		337.778,39.768 337.938,39.574 338.101,39.396 338.272,39.226 338.457,39.064 338.644,38.91 338.838,38.772 339.042,38.642 
		339.259,38.521 339.478,38.417 339.705,38.32 339.94,38.229 340.19,38.149 340.44,38.084 340.701,38.027 340.976,37.979 
		341.251,37.938 341.542,37.906 341.834,37.891 342.142,37.881 342.401,37.891 342.653,37.906 342.894,37.93 343.138,37.963 
		343.365,37.995 343.584,38.044 343.792,38.084 343.988,38.133 344.174,38.181 344.336,38.229 344.49,38.279 344.619,38.327 
		344.732,38.367 344.83,38.4 344.903,38.433 344.953,38.449 344.546,40.691 344.546,40.691 	"/>
	<polyline class="st16" points="344.546,40.691 344.546,40.691 344.44,40.635 344.336,40.586 344.224,40.529 344.101,40.472 
		343.98,40.424 343.842,40.375 343.705,40.326 343.559,40.278 343.405,40.238 343.251,40.206 343.08,40.173 342.911,40.149 
		342.726,40.132 342.538,40.116 342.344,40.116 342.142,40.116 342.142,40.116 341.94,40.116 341.728,40.132 341.511,40.158 
		341.282,40.197 341.057,40.262 340.83,40.351 340.605,40.465 340.376,40.61 340.157,40.788 339.947,40.999 339.744,41.258 
		339.551,41.558 339.371,41.913 339.203,42.318 339.051,42.773 338.919,43.291 338.919,43.291 338.872,43.581 338.838,43.864 
		338.822,44.148 338.83,44.424 338.855,44.699 338.911,44.959 338.984,45.201 339.074,45.444 339.194,45.663 339.34,45.873 
		339.511,46.059 339.705,46.229 339.924,46.375 340.174,46.497 340.449,46.602 340.759,46.675 340.759,46.675 340.863,46.698 
		340.984,46.723 341.13,46.74 341.292,46.756 341.469,46.772 341.655,46.772 341.859,46.772 342.061,46.756 342.272,46.73 
		342.482,46.691 342.684,46.634 342.886,46.57 343.088,46.48 343.276,46.375 343.444,46.246 343.607,46.1 343.242,48.262 
		343.242,48.262 343.194,48.302 343.144,48.351 343.08,48.409 343.007,48.455 342.919,48.52 342.805,48.577 342.676,48.634 
		342.53,48.682 342.344,48.739 342.134,48.78 341.89,48.813 341.607,48.845 341.292,48.861 340.928,48.87 340.515,48.861 
		340.059,48.837 340.059,48.837 339.688,48.796 339.315,48.715 338.942,48.594 338.571,48.432 338.215,48.238 337.876,47.993 
		337.551,47.711 337.251,47.388 336.984,47.023 336.757,46.619 336.563,46.165 336.417,45.671 336.321,45.128 336.288,44.553 
		336.305,43.922 336.392,43.25 336.392,43.25 336.459,42.918 336.532,42.595 336.611,42.278 336.692,41.979 336.782,41.695 
		336.886,41.412 336.992,41.145 337.105,40.894 337.228,40.643 337.349,40.408 337.486,40.182 337.632,39.971 337.778,39.768 
		337.938,39.574 338.101,39.396 338.272,39.226 338.457,39.064 338.644,38.91 338.838,38.772 339.042,38.642 339.259,38.521 
		339.478,38.417 339.705,38.32 339.94,38.229 340.19,38.149 340.44,38.084 340.701,38.027 340.976,37.979 341.251,37.938 
		341.542,37.906 341.834,37.891 342.142,37.881 342.142,37.881 342.401,37.891 342.653,37.906 342.894,37.93 343.138,37.963 
		343.365,37.995 343.584,38.044 343.792,38.084 343.988,38.133 344.174,38.181 344.336,38.229 344.49,38.279 344.619,38.327 
		344.732,38.367 344.83,38.4 344.903,38.433 344.953,38.449 344.546,40.691 	"/>
	<polygon class="st15" points="364.48,48.877 362.238,48.877 362.401,47.979 362.401,47.897 362.269,48.06 362.134,48.204 
		361.996,48.334 361.85,48.449 361.703,48.554 361.557,48.641 361.411,48.715 361.257,48.788 361.105,48.845 360.951,48.885 
		360.796,48.925 360.634,48.949 360.471,48.974 360.317,48.99 360.157,48.999 359.994,48.999 359.573,48.966 359.186,48.877 
		358.83,48.739 358.505,48.554 358.213,48.318 357.955,48.044 357.728,47.743 357.534,47.404 357.371,47.038 357.242,46.659 
		357.153,46.262 357.088,45.849 357.065,45.436 357.071,45.015 357.113,44.602 357.186,44.19 357.307,43.711 357.455,43.258 
		357.621,42.845 357.826,42.457 358.036,42.092 358.278,41.767 358.53,41.477 358.796,41.21 359.08,40.974 359.38,40.772 
		359.688,40.594 359.994,40.457 360.317,40.342 360.642,40.271 360.967,40.222 361.298,40.206 361.534,40.213 361.759,40.238 
		361.971,40.278 362.167,40.336 362.35,40.401 362.513,40.472 362.676,40.562 362.821,40.651 362.951,40.747 363.071,40.853 
		363.175,40.959 363.273,41.064 363.355,41.169 363.43,41.274 363.492,41.372 363.542,41.469 363.542,41.469 364.109,38.287 
		366.311,38.287 364.48,48.877 364.48,48.877 	"/>
	<polyline class="st16" points="364.48,48.877 362.238,48.877 362.401,47.979 362.401,47.897 362.401,47.897 362.269,48.06 
		362.134,48.204 361.996,48.334 361.85,48.449 361.703,48.554 361.557,48.641 361.411,48.715 361.257,48.788 361.105,48.845 
		360.951,48.885 360.796,48.925 360.634,48.949 360.471,48.974 360.317,48.99 360.157,48.999 359.994,48.999 359.994,48.999 
		359.573,48.966 359.186,48.877 358.83,48.739 358.505,48.554 358.213,48.318 357.955,48.044 357.728,47.743 357.534,47.404 
		357.371,47.038 357.242,46.659 357.153,46.262 357.088,45.849 357.065,45.436 357.071,45.015 357.113,44.602 357.186,44.19 
		357.186,44.19 357.307,43.711 357.455,43.258 357.621,42.845 357.826,42.457 358.036,42.092 358.278,41.767 358.53,41.477 
		358.796,41.21 359.08,40.974 359.38,40.772 359.688,40.594 359.994,40.457 360.317,40.342 360.642,40.271 360.967,40.222 
		361.298,40.206 361.298,40.206 361.534,40.213 361.759,40.238 361.971,40.278 362.167,40.336 362.35,40.401 362.513,40.472 
		362.676,40.562 362.821,40.651 362.951,40.747 363.071,40.853 363.175,40.959 363.273,41.064 363.355,41.169 363.43,41.274 
		363.492,41.372 363.542,41.469 363.542,41.469 364.109,38.287 366.311,38.287 364.48,48.877 	"/>
	<polygon class="st13" points="360.813,46.918 361.04,46.902 361.25,46.853 361.444,46.797 361.632,46.708 361.801,46.611 
		361.963,46.488 362.115,46.352 362.255,46.204 362.375,46.042 362.488,45.864 362.594,45.678 362.684,45.485 362.763,45.281 
		362.83,45.072 362.886,44.853 362.926,44.635 362.965,44.409 362.992,44.174 362.992,43.953 362.982,43.728 362.959,43.517 
		362.926,43.314 362.869,43.12 362.805,42.934 362.723,42.773 362.628,42.619 362.521,42.488 362.401,42.375 362.263,42.278 
		362.115,42.213 361.963,42.173 361.792,42.157 361.573,42.173 361.371,42.206 361.186,42.27 360.998,42.351 360.836,42.457 
		360.676,42.586 360.538,42.724 360.401,42.878 360.278,43.054 360.165,43.242 360.059,43.436 359.969,43.646 359.89,43.864 
		359.826,44.085 359.761,44.318 359.711,44.553 359.669,44.91 359.688,45.299 359.744,45.694 359.848,46.075 360.011,46.408 
		360.221,46.675 360.488,46.853 360.813,46.918 360.813,46.918 	"/>
	<polygon class="st15" points="311.091,47.079 310.766,48.877 308.726,48.877 308.782,48.545 308.824,48.245 308.855,48.019 
		308.888,47.897 308.776,48.027 308.645,48.157 308.493,48.278 308.322,48.391 308.128,48.505 307.924,48.601 307.713,48.699 
		307.497,48.78 307.261,48.852 307.026,48.91 306.793,48.959 306.549,48.99 306.313,49.007 306.08,49.015 305.853,48.99 
		305.632,48.959 305.349,48.885 305.091,48.804 304.863,48.699 304.661,48.577 304.484,48.449 304.322,48.302 304.193,48.148 
		304.078,47.987 303.982,47.816 303.901,47.637 303.836,47.461 303.788,47.283 303.755,47.096 303.73,46.909 303.713,46.73 
		303.713,46.553 303.738,46.237 303.788,45.938 303.868,45.654 303.974,45.379 304.103,45.12 304.249,44.886 304.42,44.66 
		304.613,44.456 304.815,44.27 305.043,44.099 305.276,43.946 305.52,43.816 305.778,43.704 306.047,43.614 306.322,43.541 
		306.605,43.492 306.622,43.492 306.661,43.484 306.718,43.476 306.807,43.468 306.905,43.452 307.018,43.444 307.138,43.428 
		307.278,43.412 307.415,43.396 307.553,43.38 307.699,43.371 307.828,43.355 307.957,43.347 308.078,43.338 308.19,43.331 
		308.28,43.331 308.468,43.331 308.663,43.338 308.841,43.347 309.018,43.347 309.163,43.355 309.278,43.363 309.357,43.371 
		309.382,43.371 309.399,43.314 309.447,43.169 309.488,42.998 309.503,42.845 309.472,42.667 309.399,42.504 309.301,42.359 
		309.172,42.237 309.018,42.134 308.849,42.06 308.653,42.011 308.443,41.995 308.215,41.987 307.972,41.979 307.722,41.979 
		307.463,41.987 307.197,42.003 306.936,42.027 306.678,42.051 306.426,42.084 306.184,42.116 305.949,42.157 305.738,42.196 
		305.545,42.237 305.366,42.287 305.222,42.335 305.107,42.391 305.018,42.44 305.593,40.489 305.772,40.416 305.949,40.351 
		306.145,40.295 306.338,40.253 306.532,40.213 306.743,40.182 306.953,40.149 307.172,40.132 307.399,40.116 307.632,40.108 
		307.876,40.099 308.128,40.099 308.386,40.099 308.653,40.099 308.936,40.108 309.22,40.116 309.447,40.132 309.691,40.173 
		309.943,40.23 310.199,40.303 310.449,40.401 310.695,40.514 310.936,40.651 311.163,40.804 311.366,40.984 311.545,41.177 
		311.707,41.395 311.828,41.638 311.909,41.899 311.957,42.173 311.957,42.481 311.909,42.804 311.091,47.079 311.091,47.079 	"/>
	<polyline class="st16" points="311.091,47.079 310.766,48.877 308.726,48.877 308.726,48.877 308.782,48.545 308.824,48.245 
		308.855,48.019 308.888,47.897 308.888,47.897 308.776,48.027 308.645,48.157 308.493,48.278 308.322,48.391 308.128,48.505 
		307.924,48.601 307.713,48.699 307.497,48.78 307.261,48.852 307.026,48.91 306.793,48.959 306.549,48.99 306.313,49.007 
		306.08,49.015 305.853,48.99 305.632,48.959 305.632,48.959 305.349,48.885 305.091,48.804 304.863,48.699 304.661,48.577 
		304.484,48.449 304.322,48.302 304.193,48.148 304.078,47.987 303.982,47.816 303.901,47.637 303.836,47.461 303.788,47.283 
		303.755,47.096 303.73,46.909 303.713,46.73 303.713,46.553 303.713,46.553 303.738,46.237 303.788,45.938 303.868,45.654 
		303.974,45.379 304.103,45.12 304.249,44.886 304.42,44.66 304.613,44.456 304.815,44.27 305.043,44.099 305.276,43.946 
		305.52,43.816 305.778,43.704 306.047,43.614 306.322,43.541 306.605,43.492 306.605,43.492 306.622,43.492 306.661,43.484 
		306.718,43.476 306.807,43.468 306.905,43.452 307.018,43.444 307.138,43.428 307.278,43.412 307.415,43.396 307.553,43.38 
		307.699,43.371 307.828,43.355 307.957,43.347 308.078,43.338 308.19,43.331 308.28,43.331 308.28,43.331 308.468,43.331 
		308.663,43.338 308.841,43.347 309.018,43.347 309.163,43.355 309.278,43.363 309.357,43.371 309.382,43.371 309.382,43.371 
		309.399,43.314 309.447,43.169 309.488,42.998 309.503,42.845 309.503,42.845 309.472,42.667 309.399,42.504 309.301,42.359 
		309.172,42.237 309.018,42.134 308.849,42.06 308.653,42.011 308.443,41.995 308.443,41.995 308.215,41.987 307.972,41.979 
		307.722,41.979 307.463,41.987 307.197,42.003 306.936,42.027 306.678,42.051 306.426,42.084 306.184,42.116 305.949,42.157 
		305.738,42.196 305.545,42.237 305.366,42.287 305.222,42.335 305.107,42.391 305.018,42.44 305.593,40.489 305.593,40.489 
		305.772,40.416 305.949,40.351 306.145,40.295 306.338,40.253 306.532,40.213 306.743,40.182 306.953,40.149 307.172,40.132 
		307.399,40.116 307.632,40.108 307.876,40.099 308.128,40.099 308.386,40.099 308.653,40.099 308.936,40.108 309.22,40.116 
		309.22,40.116 309.447,40.132 309.691,40.173 309.943,40.23 310.199,40.303 310.449,40.401 310.695,40.514 310.936,40.651 
		311.163,40.804 311.366,40.984 311.545,41.177 311.707,41.395 311.828,41.638 311.909,41.899 311.957,42.173 311.957,42.481 
		311.909,42.804 311.091,47.079 	"/>
	<polygon class="st14" points="309.14,44.966 309.132,44.926 309.099,44.886 309.051,44.861 308.97,44.845 308.88,44.829 
		308.776,44.82 308.653,44.82 308.532,44.82 308.401,44.829 308.263,44.845 308.134,44.861 308.005,44.878 307.884,44.894 
		307.77,44.917 307.674,44.942 307.584,44.966 307.528,44.982 307.463,45.008 307.374,45.039 307.284,45.079 307.18,45.128 
		307.074,45.186 306.961,45.241 306.855,45.307 306.743,45.387 306.638,45.468 306.54,45.566 306.451,45.663 306.37,45.767 
		306.313,45.882 306.263,46.011 306.241,46.14 306.232,46.416 306.274,46.634 306.353,46.797 306.459,46.918 306.58,46.999 
		306.718,47.047 306.847,47.072 306.978,47.079 307.222,47.072 307.441,47.047 307.651,47.014 307.834,46.966 307.999,46.909 
		308.151,46.837 308.288,46.764 308.411,46.675 308.518,46.593 308.613,46.497 308.695,46.408 308.759,46.311 308.815,46.213 
		308.863,46.116 308.905,46.027 308.928,45.938 308.995,45.704 309.051,45.436 309.099,45.177 309.14,44.966 309.14,44.966 	"/>
	<polygon class="st15" points="294.055,48.877 291.853,48.877 293.691,38.247 297.522,38.247 297.884,44.553 300.532,38.247 
		304.532,38.247 302.653,48.877 300.451,48.877 301.843,40.935 301.755,40.935 298.459,48.877 295.974,48.877 295.959,48.545 
		295.901,47.662 295.828,46.408 295.747,44.966 295.666,43.517 295.593,42.247 295.536,41.324 295.52,40.935 295.497,40.935 
		295.449,40.935 295.399,40.935 295.399,40.935 294.055,48.877 294.055,48.877 	"/>
	<polyline class="st16" points="294.055,48.877 291.853,48.877 293.691,38.247 297.522,38.247 297.884,44.553 300.532,38.247 
		304.532,38.247 302.653,48.877 300.451,48.877 301.843,40.935 301.755,40.935 298.459,48.877 295.974,48.877 295.974,48.877 
		295.959,48.545 295.901,47.662 295.828,46.408 295.747,44.966 295.666,43.517 295.593,42.247 295.536,41.324 295.52,40.935 
		295.52,40.935 295.497,40.935 295.449,40.935 295.399,40.935 295.399,40.935 294.055,48.877 	"/>
	<polygon class="st15" points="351.276,47.079 350.944,48.877 348.911,48.877 348.928,48.545 348.936,48.254 348.936,48.036 
		348.953,47.939 348.846,48.06 348.724,48.181 348.578,48.294 348.417,48.409 348.246,48.513 348.053,48.61 347.851,48.708 
		347.649,48.788 347.428,48.852 347.203,48.917 346.976,48.959 346.751,48.99 346.513,49.007 346.288,49.015 346.067,48.99 
		345.851,48.959 345.559,48.885 345.301,48.804 345.074,48.699 344.863,48.577 344.684,48.449 344.53,48.302 344.401,48.148 
		344.286,47.987 344.19,47.816 344.117,47.637 344.053,47.461 344.013,47.283 343.98,47.096 343.955,46.909 343.938,46.73 
		343.938,46.553 343.955,46.237 344.005,45.938 344.078,45.654 344.182,45.379 344.303,45.12 344.459,44.886 344.628,44.66 
		344.813,44.456 345.026,44.27 345.242,44.099 345.478,43.946 345.728,43.816 345.98,43.704 346.246,43.614 346.513,43.541 
		346.788,43.492 346.805,43.492 346.846,43.484 346.903,43.476 346.984,43.468 347.088,43.452 347.203,43.444 347.324,43.428 
		347.453,43.412 347.59,43.396 347.736,43.38 347.873,43.371 348.013,43.355 348.142,43.347 348.255,43.338 348.367,43.331 
		348.457,43.331 348.651,43.331 348.846,43.338 349.032,43.347 349.211,43.347 349.363,43.355 349.494,43.363 349.567,43.371 
		349.601,43.371 349.615,43.314 349.64,43.169 349.663,42.998 349.68,42.845 349.646,42.667 349.584,42.504 349.478,42.359 
		349.355,42.237 349.211,42.134 349.04,42.06 348.861,42.011 348.667,41.995 348.44,41.987 348.198,41.979 347.946,41.979 
		347.688,41.987 347.419,42.003 347.161,42.027 346.903,42.051 346.651,42.084 346.409,42.116 346.174,42.157 345.965,42.196 
		345.769,42.237 345.59,42.287 345.444,42.335 345.332,42.391 345.242,42.44 345.811,40.489 345.988,40.416 346.174,40.351 
		346.359,40.295 346.555,40.253 346.757,40.213 346.959,40.182 347.169,40.149 347.388,40.132 347.615,40.116 347.851,40.108 
		348.084,40.099 348.334,40.099 348.586,40.099 348.846,40.099 349.121,40.108 349.396,40.116 349.624,40.132 349.867,40.173 
		350.117,40.23 350.378,40.303 350.628,40.401 350.878,40.514 351.121,40.651 351.348,40.804 351.551,40.984 351.738,41.177 
		351.899,41.395 352.019,41.638 352.109,41.899 352.165,42.173 352.165,42.481 352.126,42.804 351.276,47.079 351.276,47.079 	"/>
	<polygon class="st15" points="350.944,48.934 350.992,48.885 351.323,47.087 351.226,47.072 350.894,48.87 350.944,48.82 
		350.944,48.934 350.984,48.925 350.992,48.885 350.944,48.934 350.944,48.934 	"/>
	<polygon class="st15" points="348.861,48.877 348.911,48.934 350.944,48.934 350.944,48.82 348.911,48.82 348.959,48.877 
		348.861,48.877 348.855,48.934 348.911,48.934 348.861,48.877 348.861,48.877 	"/>
	<polygon class="st15" points="348.992,47.969 348.919,47.905 348.886,48.036 348.878,48.254 348.878,48.545 348.861,48.877 
		348.959,48.877 348.976,48.545 348.992,48.254 348.982,48.036 348.982,47.969 348.911,47.905 348.992,47.969 348.992,47.969 	"/>
	<polygon class="st15" points="345.842,49.007 345.842,49.007 346.067,49.039 346.288,49.063 346.513,49.056 346.751,49.039 
		346.984,49.007 347.211,48.966 347.436,48.902 347.663,48.837 347.865,48.755 348.076,48.659 348.269,48.562 348.44,48.449 
		348.611,48.334 348.757,48.222 348.886,48.091 348.992,47.969 348.911,47.905 348.805,48.027 348.692,48.14 348.546,48.254 
		348.392,48.367 348.221,48.464 348.028,48.562 347.834,48.659 347.632,48.739 347.419,48.804 347.194,48.87 346.967,48.91 
		346.751,48.941 346.513,48.959 346.288,48.966 346.067,48.941 345.857,48.91 345.857,48.91 345.842,49.007 345.842,49.007 	"/>
	<polygon class="st15" points="343.882,46.553 343.882,46.553 343.89,46.73 343.907,46.909 343.93,47.104 343.963,47.29 
		344.005,47.468 344.069,47.654 344.142,47.84 344.246,48.011 344.361,48.181 344.49,48.334 344.653,48.488 344.838,48.618 
		345.049,48.748 345.284,48.852 345.548,48.934 345.842,49.007 345.857,48.91 345.567,48.837 345.317,48.755 345.096,48.651 
		344.886,48.537 344.715,48.409 344.569,48.269 344.44,48.116 344.328,47.962 344.24,47.792 344.165,47.622 344.101,47.453 
		344.061,47.274 344.028,47.087 344.005,46.909 343.988,46.73 343.996,46.553 343.996,46.553 343.882,46.553 343.882,46.553 	"/>
	<polygon class="st15" points="346.788,43.444 346.788,43.444 346.507,43.492 346.232,43.566 345.965,43.654 345.705,43.768 
		345.453,43.897 345.209,44.06 344.992,44.23 344.782,44.424 344.586,44.626 344.417,44.853 344.255,45.096 344.134,45.364 
		344.028,45.638 343.955,45.929 343.907,46.237 343.882,46.553 343.996,46.553 344.005,46.237 344.053,45.946 344.126,45.671 
		344.23,45.396 344.353,45.144 344.499,44.917 344.669,44.691 344.846,44.489 345.055,44.311 345.276,44.14 345.501,43.995 
		345.753,43.864 345.994,43.752 346.263,43.663 346.521,43.59 346.788,43.541 346.788,43.541 346.788,43.444 346.788,43.444 	"/>
	<polygon class="st15" points="348.457,43.274 348.457,43.274 348.367,43.274 348.255,43.291 348.142,43.3 348.013,43.307 
		347.873,43.322 347.736,43.331 347.59,43.347 347.453,43.363 347.324,43.38 347.203,43.396 347.088,43.403 346.984,43.421 
		346.903,43.428 346.838,43.436 346.805,43.444 346.788,43.444 346.788,43.541 346.805,43.541 346.855,43.533 346.903,43.526 
		346.984,43.517 347.088,43.501 347.203,43.492 347.324,43.476 347.453,43.46 347.59,43.444 347.736,43.428 347.873,43.421 
		348.013,43.403 348.142,43.396 348.255,43.387 348.367,43.387 348.457,43.387 348.457,43.387 348.457,43.274 348.457,43.274 	"/>
	<polygon class="st15" points="349.551,43.363 349.601,43.322 349.567,43.322 349.494,43.314 349.363,43.307 349.211,43.291 
		349.032,43.291 348.846,43.291 348.651,43.274 348.457,43.274 348.457,43.387 348.651,43.387 348.846,43.387 349.032,43.403 
		349.211,43.403 349.363,43.403 349.494,43.412 349.567,43.421 349.601,43.421 349.646,43.38 349.601,43.421 349.64,43.428 
		349.646,43.38 349.551,43.363 349.551,43.363 	"/>
	<polygon class="st15" points="349.632,42.845 349.624,42.845 349.615,42.998 349.59,43.161 349.567,43.307 349.551,43.363 
		349.646,43.38 349.663,43.322 349.688,43.175 349.713,42.998 349.738,42.845 349.728,42.845 349.632,42.845 349.632,42.845 	"/>
	<polygon class="st15" points="348.667,42.043 348.667,42.051 348.855,42.06 349.024,42.109 349.186,42.181 349.324,42.278 
		349.436,42.391 349.534,42.529 349.601,42.675 349.632,42.845 349.728,42.845 349.696,42.66 349.632,42.481 349.517,42.327 
		349.388,42.196 349.234,42.084 349.055,42.011 348.869,41.963 348.667,41.939 348.667,41.946 348.667,42.043 348.667,42.043 	"/>
	<polygon class="st15" points="345.194,42.433 345.276,42.481 345.357,42.44 345.461,42.383 345.599,42.335 345.778,42.287 
		345.971,42.247 346.182,42.206 346.417,42.165 346.651,42.134 346.903,42.099 347.161,42.075 347.419,42.051 347.688,42.036 
		347.946,42.036 348.198,42.036 348.44,42.036 348.667,42.043 348.667,41.946 348.44,41.939 348.198,41.922 347.946,41.922 
		347.688,41.939 347.419,41.954 347.161,41.979 346.903,42.003 346.651,42.036 346.401,42.067 346.165,42.109 345.955,42.149 
		345.761,42.19 345.584,42.237 345.43,42.287 345.307,42.342 345.209,42.4 345.292,42.448 345.194,42.433 345.194,42.433 	"/>
	<polygon class="st15" points="345.794,40.44 345.761,40.481 345.194,42.433 345.292,42.448 345.857,40.496 345.826,40.538 
		345.794,40.44 345.769,40.448 345.761,40.481 345.794,40.44 345.794,40.44 	"/>
	<polygon class="st15" points="349.396,40.068 349.396,40.068 349.121,40.052 348.846,40.044 348.586,40.044 348.334,40.044 
		348.084,40.044 347.851,40.06 347.615,40.068 347.388,40.085 347.169,40.099 346.951,40.132 346.751,40.165 346.546,40.206 
		346.351,40.247 346.157,40.303 345.971,40.367 345.794,40.44 345.826,40.538 346.005,40.465 346.19,40.401 346.367,40.342 
		346.563,40.303 346.765,40.262 346.967,40.23 347.169,40.197 347.388,40.182 347.615,40.165 347.851,40.158 348.084,40.158 
		348.334,40.158 348.586,40.158 348.846,40.158 349.121,40.165 349.396,40.165 349.396,40.165 349.396,40.068 349.396,40.068 	"/>
	<polygon class="st15" points="352.174,42.813 352.174,42.813 352.215,42.481 352.215,42.173 352.159,41.889 352.069,41.622 
		351.94,41.372 351.778,41.145 351.582,40.943 351.38,40.764 351.146,40.61 350.903,40.465 350.644,40.351 350.392,40.253 
		350.126,40.182 349.873,40.125 349.624,40.085 349.396,40.068 349.396,40.165 349.624,40.182 349.857,40.222 350.109,40.278 
		350.361,40.351 350.611,40.448 350.853,40.562 351.096,40.691 351.315,40.845 351.517,41.023 351.694,41.21 351.857,41.419 
		351.971,41.656 352.061,41.907 352.117,42.173 352.117,42.481 352.076,42.797 352.076,42.797 352.174,42.813 352.174,42.813 	"/>
	<polygon class="st15" points="351.323,47.087 351.323,47.087 352.174,42.813 352.076,42.797 351.226,47.072 351.226,47.072 
		351.323,47.087 351.323,47.087 	"/>
	<polygon class="st13" points="349.315,44.966 349.299,44.917 349.267,44.878 349.211,44.853 349.128,44.829 349.04,44.82 
		348.936,44.812 348.813,44.812 348.692,44.82 348.561,44.837 348.434,44.853 348.305,44.87 348.182,44.886 348.061,44.91 
		347.955,44.926 347.851,44.95 347.769,44.966 347.713,44.974 347.649,44.999 347.567,45.023 347.478,45.055 347.371,45.103 
		347.273,45.153 347.161,45.21 347.057,45.281 346.951,45.355 346.846,45.444 346.757,45.532 346.667,45.638 346.596,45.751 
		346.538,45.873 346.49,46.003 346.465,46.14 346.457,46.416 346.496,46.634 346.563,46.797 346.659,46.918 346.78,46.999 
		346.919,47.047 347.057,47.072 347.194,47.079 347.436,47.072 347.663,47.047 347.873,47.006 348.061,46.95 348.238,46.885 
		348.392,46.813 348.538,46.73 348.667,46.634 348.782,46.545 348.878,46.44 348.967,46.342 349.04,46.237 349.096,46.14 
		349.136,46.042 349.169,45.946 349.194,45.857 349.226,45.63 349.267,45.396 349.299,45.169 349.315,44.966 349.315,44.966 	"/>
	<polygon class="st15" points="365.994,47.769 366.011,47.581 366.076,47.363 366.19,47.168 366.328,46.999 366.496,46.862 
		366.69,46.764 366.9,46.698 367.128,46.675 367.357,46.698 367.565,46.764 367.761,46.862 367.93,46.999 368.067,47.168 
		368.18,47.363 368.246,47.581 368.263,47.769 368.019,47.769 368.011,47.622 367.963,47.443 367.882,47.283 367.775,47.143 
		367.646,47.03 367.494,46.95 367.315,46.893 367.128,46.877 366.942,46.893 366.765,46.95 366.609,47.03 366.48,47.143 
		366.375,47.283 366.294,47.443 366.246,47.622 366.23,47.769 365.994,47.769 365.994,47.769 	"/>
	<polygon class="st15" points="366.723,47.769 366.723,47.283 367.169,47.283 367.267,47.29 367.357,47.306 367.419,47.33 
		367.478,47.363 367.517,47.412 367.548,47.461 367.565,47.516 367.573,47.574 367.565,47.646 367.548,47.703 367.526,47.752 
		367.509,47.769 367.169,47.769 367.201,47.76 367.257,47.752 367.307,47.736 367.348,47.72 367.38,47.696 367.396,47.67 
		367.413,47.631 367.413,47.574 367.403,47.533 367.388,47.5 367.361,47.485 367.338,47.468 367.298,47.461 367.257,47.453 
		367.217,47.453 367.169,47.453 366.926,47.453 366.926,47.769 366.723,47.769 366.723,47.769 	"/>
	<polygon class="st15" points="365.994,47.769 365.988,47.816 366.011,48.051 366.076,48.269 366.19,48.464 366.328,48.626 
		366.496,48.763 366.69,48.87 366.9,48.934 367.128,48.959 367.357,48.934 367.565,48.87 367.761,48.763 367.93,48.626 
		368.067,48.464 368.18,48.269 368.246,48.051 368.271,47.816 368.263,47.769 368.019,47.769 368.028,47.816 368.011,48.011 
		367.963,48.189 367.882,48.343 367.775,48.479 367.646,48.594 367.494,48.682 367.315,48.739 367.128,48.755 366.942,48.739 
		366.765,48.682 366.609,48.594 366.48,48.479 366.375,48.343 366.294,48.189 366.246,48.011 366.23,47.816 366.23,47.769 
		365.994,47.769 365.994,47.769 	"/>
	<polygon class="st15" points="366.723,47.769 366.723,48.262 366.926,48.262 366.926,47.858 367.128,47.858 367.371,48.262 
		367.532,48.262 367.29,47.858 367.348,47.858 367.403,47.84 367.453,47.824 367.494,47.792 367.509,47.769 367.169,47.769 
		367.128,47.776 366.926,47.776 366.926,47.769 366.723,47.769 366.723,47.769 	"/>
	<path class="st16" d="M365.988,47.816L365.988,47.816l0.023-0.235l0.065-0.219l0.115-0.194l0.138-0.17l0.169-0.137l0.194-0.098
		l0.21-0.066l0.227-0.023l0,0l0.229,0.023l0.208,0.066l0.196,0.098l0.169,0.137l0.137,0.17l0.112,0.194l0.067,0.219l0.025,0.235l0,0
		l-0.025,0.235l-0.067,0.218l-0.112,0.195l-0.137,0.162l-0.169,0.136l-0.196,0.107l-0.208,0.064l-0.229,0.024l0,0l-0.227-0.024
		l-0.21-0.064l-0.194-0.107l-0.169-0.136l-0.138-0.162l-0.115-0.195l-0.065-0.218L365.988,47.816 M366.926,48.262h-0.202v-0.98
		h0.446l0,0l0.098,0.008l0.09,0.016l0.062,0.024l0.058,0.032l0.04,0.049l0.031,0.049l0.017,0.056l0.008,0.057l0,0l-0.008,0.072
		l-0.017,0.057l-0.023,0.049l-0.031,0.041l-0.042,0.032l-0.05,0.016l-0.054,0.017h-0.058l0.242,0.405h-0.16l-0.244-0.405h-0.202
		V48.262 M367.128,47.776L367.128,47.776l0.073-0.017l0.056-0.008l0.05-0.016l0.042-0.017l0.031-0.024l0.017-0.025l0.017-0.039
		v-0.057l0,0l-0.01-0.041l-0.015-0.033l-0.027-0.016l-0.023-0.016l-0.04-0.008l-0.042-0.007h-0.04h-0.048h-0.244v0.323H367.128
		 M367.128,48.755L367.128,48.755l0.188-0.016l0.179-0.057l0.152-0.088l0.129-0.115l0.106-0.136l0.081-0.154l0.048-0.179
		l0.017-0.194l0,0l-0.017-0.194l-0.048-0.179l-0.081-0.161l-0.106-0.139l-0.129-0.113l-0.152-0.08l-0.179-0.057l-0.188-0.017l0,0
		l-0.185,0.017l-0.177,0.057l-0.156,0.08l-0.129,0.113l-0.104,0.139l-0.081,0.161l-0.048,0.179l-0.017,0.194l0,0l0.017,0.194
		l0.048,0.179l0.081,0.154l0.104,0.136l0.129,0.115l0.156,0.088l0.177,0.057L367.128,48.755"/>
	<polygon class="st15" points="351.882,48.877 354.165,48.877 354.165,48.877 354.984,44.27 355.015,44.093 355.063,43.914 
		355.113,43.736 355.178,43.558 355.259,43.38 355.355,43.209 355.461,43.048 355.592,42.894 355.736,42.757 355.898,42.626 
		356.084,42.504 356.294,42.407 356.53,42.327 356.788,42.262 357.071,42.213 357.388,42.196 357.503,42.196 357.565,42.196 
		357.59,42.196 357.59,42.196 357.955,40.116 357.728,40.132 357.509,40.158 357.307,40.197 357.113,40.253 356.934,40.318 
		356.765,40.401 356.603,40.489 356.451,40.586 356.303,40.7 356.165,40.813 356.036,40.943 355.907,41.072 355.784,41.21 
		355.665,41.363 355.542,41.509 355.428,41.671 355.671,40.206 353.396,40.206 351.882,48.877 351.882,48.877 351.882,48.877 	"/>
	<polyline class="st16" points="351.882,48.877 354.165,48.877 354.165,48.877 354.984,44.27 354.984,44.27 355.015,44.093 
		355.063,43.914 355.113,43.736 355.178,43.558 355.259,43.38 355.355,43.209 355.461,43.048 355.592,42.894 355.736,42.757 
		355.898,42.626 356.084,42.504 356.294,42.407 356.53,42.327 356.788,42.262 357.071,42.213 357.388,42.196 357.388,42.196 
		357.503,42.196 357.565,42.196 357.59,42.196 357.59,42.196 357.955,40.116 357.955,40.116 357.728,40.132 357.509,40.158 
		357.307,40.197 357.113,40.253 356.934,40.318 356.765,40.401 356.603,40.489 356.451,40.586 356.303,40.7 356.165,40.813 
		356.036,40.943 355.907,41.072 355.784,41.21 355.665,41.363 355.542,41.509 355.428,41.671 355.671,40.206 353.396,40.206 
		351.882,48.877 351.882,48.877 	"/>
	<polygon class="st15" points="330.442,48.877 332.726,48.877 332.765,48.877 333.542,44.27 333.576,44.093 333.615,43.922 
		333.657,43.752 333.713,43.59 333.778,43.428 333.859,43.274 333.955,43.128 334.069,42.991 334.199,42.868 334.344,42.748 
		334.521,42.65 334.717,42.562 334.944,42.488 335.194,42.425 335.469,42.383 335.786,42.359 335.809,42.359 335.842,42.367 
		335.882,42.375 335.924,42.375 335.965,42.383 335.997,42.391 336.019,42.4 336.028,42.4 336.038,42.367 336.061,42.27 
		336.092,42.125 336.134,41.946 336.19,41.736 336.246,41.509 336.321,41.282 336.392,41.054 336.459,40.901 336.54,40.747 
		336.619,40.594 336.701,40.457 336.774,40.336 336.83,40.238 336.869,40.182 336.886,40.158 336.878,40.158 336.846,40.149 
		336.805,40.14 336.749,40.132 336.692,40.132 336.628,40.125 336.572,40.116 336.515,40.116 336.263,40.132 336.038,40.158 
		335.826,40.197 335.632,40.247 335.444,40.311 335.276,40.392 335.121,40.472 334.976,40.569 334.838,40.675 334.709,40.797 
		334.588,40.918 334.465,41.054 334.344,41.193 334.23,41.348 334.109,41.509 333.988,41.671 334.28,40.206 331.957,40.206 
		330.442,48.877 330.442,48.877 330.442,48.877 	"/>
	<polyline class="st16" points="330.442,48.877 332.726,48.877 332.765,48.877 333.542,44.27 333.542,44.27 333.576,44.093 
		333.615,43.922 333.657,43.752 333.713,43.59 333.778,43.428 333.859,43.274 333.955,43.128 334.069,42.991 334.199,42.868 
		334.344,42.748 334.521,42.65 334.717,42.562 334.944,42.488 335.194,42.425 335.469,42.383 335.786,42.359 335.786,42.359 
		335.809,42.359 335.842,42.367 335.882,42.375 335.924,42.375 335.965,42.383 335.997,42.391 336.019,42.4 336.028,42.4 
		336.028,42.4 336.038,42.367 336.061,42.27 336.092,42.125 336.134,41.946 336.19,41.736 336.246,41.509 336.321,41.282 
		336.392,41.054 336.392,41.054 336.459,40.901 336.54,40.747 336.619,40.594 336.701,40.457 336.774,40.336 336.83,40.238 
		336.869,40.182 336.886,40.158 336.886,40.158 336.878,40.158 336.846,40.149 336.805,40.14 336.749,40.132 336.692,40.132 
		336.628,40.125 336.572,40.116 336.515,40.116 336.515,40.116 336.263,40.132 336.038,40.158 335.826,40.197 335.632,40.247 
		335.444,40.311 335.276,40.392 335.121,40.472 334.976,40.569 334.838,40.675 334.709,40.797 334.588,40.918 334.465,41.054 
		334.344,41.193 334.23,41.348 334.109,41.509 333.988,41.671 334.28,40.206 331.957,40.206 330.442,48.877 330.442,48.877 	"/>
	<polygon class="st13" points="366.011,57.395 366.011,57.362 366.076,57.152 366.19,56.966 366.328,56.804 366.496,56.675 
		366.69,56.577 366.9,56.521 367.128,56.496 367.357,56.521 367.565,56.577 367.761,56.675 367.93,56.804 368.067,56.966 
		368.18,57.152 368.246,57.362 368.246,57.395 368.011,57.395 367.963,57.226 367.882,57.072 367.775,56.933 367.646,56.82 
		367.494,56.731 367.315,56.675 367.128,56.658 366.942,56.675 366.765,56.731 366.609,56.82 366.48,56.933 366.375,57.072 
		366.294,57.226 366.246,57.395 366.011,57.395 366.011,57.395 	"/>
	<polygon class="st13" points="366.723,57.395 366.723,57.113 367.169,57.113 367.267,57.113 367.357,57.128 367.419,57.143 
		367.478,57.175 367.517,57.217 367.548,57.266 367.565,57.322 367.573,57.395 367.413,57.395 367.413,57.354 367.403,57.314 
		367.388,57.281 367.361,57.266 367.338,57.249 367.298,57.241 367.257,57.233 367.217,57.233 367.169,57.233 366.926,57.233 
		366.926,57.395 366.723,57.395 366.723,57.395 	"/>
	<polygon class="st13" points="365.988,57.573 366.011,57.395 366.246,57.395 366.246,57.402 366.23,57.573 365.988,57.573 
		365.988,57.573 	"/>
	<polygon class="st13" points="366.723,57.573 366.723,57.395 366.926,57.395 366.926,57.556 367.128,57.556 367.201,57.541 
		367.257,57.533 367.307,57.516 367.348,57.5 367.38,57.476 367.396,57.451 367.413,57.412 367.413,57.395 367.573,57.395 
		367.573,57.395 367.565,57.451 367.548,57.5 367.526,57.541 367.494,57.573 366.723,57.573 366.723,57.573 	"/>
	<polygon class="st13" points="368.028,57.573 368.011,57.402 368.011,57.395 368.246,57.395 368.271,57.573 368.028,57.573 
		368.028,57.573 	"/>
	<polygon class="st13" points="365.988,57.573 365.988,57.597 366.011,57.831 366.076,58.05 366.19,58.245 366.328,58.415 
		366.496,58.553 366.69,58.649 366.9,58.715 367.128,58.739 367.357,58.715 367.565,58.649 367.761,58.553 367.93,58.415 
		368.067,58.245 368.18,58.05 368.246,57.831 368.271,57.597 368.271,57.573 368.028,57.573 368.028,57.597 368.011,57.792 
		367.963,57.97 367.882,58.123 367.775,58.259 367.646,58.375 367.494,58.464 367.315,58.52 367.128,58.537 366.942,58.52 
		366.765,58.464 366.609,58.375 366.48,58.259 366.375,58.123 366.294,57.97 366.246,57.792 366.23,57.597 366.23,57.573 
		365.988,57.573 365.988,57.573 	"/>
	<polygon class="st13" points="366.723,57.573 366.723,58.043 366.926,58.043 366.926,57.637 367.128,57.637 367.371,58.043 
		367.532,58.043 367.29,57.637 367.348,57.637 367.403,57.622 367.453,57.605 367.494,57.573 367.494,57.573 366.723,57.573 
		366.723,57.573 	"/>
	<path class="st15" d="M330.692,42.787l-0.065-0.484l-0.113-0.43l-0.163-0.372l-0.202-0.324l-0.244-0.276l-0.267-0.226l-0.292-0.194
		l-0.315-0.145l-0.325-0.123l-0.333-0.081l-0.329-0.056l-0.333-0.032l-0.315-0.009l-0.656,0.034l-0.583,0.096l-0.527,0.146
		l-0.469,0.203l-0.406,0.243l-0.356,0.275l-0.315,0.307l-0.26,0.324l-0.225,0.34l-0.188,0.356l-0.144,0.349l-0.123,0.346
		l-0.09,0.342l-0.065,0.315l-0.048,0.3l-0.033,0.259l-0.04,0.664l0.023,0.598l0.089,0.543l0.138,0.478l0.196,0.429l0.233,0.373
		l0.275,0.332l0.317,0.275l0.34,0.235l0.365,0.202l0.381,0.155l0.396,0.12l0.406,0.098l0.404,0.057l0.404,0.041l0.398,0.007h0.267
		l0.25-0.007h0.219l0.21-0.009l0.188-0.016l0.169-0.016l0.162-0.017l0.146-0.025l0.138-0.025l0.129-0.031l0.131-0.041l0.121-0.04
		l0.121-0.05l0.129-0.047l0.131-0.066l0.129-0.064l0.325-1.992l-0.238,0.138l-0.225,0.128l-0.235,0.098l-0.227,0.089l-0.219,0.073
		l-0.225,0.048l-0.221,0.041l-0.219,0.032l-0.217,0.017l-0.212,0.008h-0.219l-0.208-0.008l-0.212-0.017l-0.21-0.024l-0.2-0.025
		l-0.212-0.032l-0.162-0.033l-0.16-0.057l-0.165-0.072l-0.144-0.09l-0.146-0.096l-0.129-0.12l-0.121-0.122l-0.115-0.139
		l-0.098-0.137l-0.087-0.153l-0.065-0.147l-0.058-0.154l-0.033-0.154l-0.012-0.154l0.006-0.136l0.019-0.105h5.252l0.042-0.494
		l0.121-0.681l0.056-0.616L330.692,42.787z M328.499,43.533h-2.958l0.002-0.007l-0.004-0.001l0.021-0.113l0.033-0.17l0.048-0.162
		l0.056-0.161l0.073-0.145l0.075-0.139l0.087-0.131l0.098-0.121l0.106-0.113l0.102-0.097l0.123-0.089l0.121-0.073l0.14-0.065
		l0.138-0.047l0.137-0.033l0.144-0.024l0.156-0.008l0.144,0.017l0.138,0.024l0.131,0.033l0.127,0.047l0.123,0.065l0.121,0.073
		l0.106,0.081l0.096,0.097l0.081,0.113l0.081,0.121l0.056,0.139l0.058,0.154l0.031,0.161l0.017,0.179l0.008,0.194L328.499,43.533z"
		/>
</g>
</svg>
