<?xml version="1.0" encoding="utf-8"?>
<!-- Generator: Adobe Illustrator 17.1.0, SVG Export Plug-In . SVG Version: 6.00 Build 0)  -->
<!DOCTYPE svg PUBLIC "-//W3C//DTD SVG 1.1//EN" "http://www.w3.org/Graphics/SVG/1.1/DTD/svg11.dtd">
<svg version="1.1" id="Layer_1" xmlns="http://www.w3.org/2000/svg" xmlns:xlink="http://www.w3.org/1999/xlink" x="0px" y="0px"
	 width="390px" height="245px" viewBox="0 0 390 245" style="enable-background:new 0 0 390 245;" xml:space="preserve">
<style type="text/css">
	.st0{fill:url(#SVGID_1_);}
	.st1{fill:url(#SVGID_2_);}
	.st2{fill:#FFFFFF;}
	.st3{fill:url(#SVGID_3_);}
	.st4{fill:url(#SVGID_4_);}
	.st5{fill:url(#SVGID_5_);}
	.st6{fill:url(#SVGID_6_);}
	.st7{fill:url(#SVGID_7_);}
	.st8{fill:url(#SVGID_8_);}
	.st9{fill:url(#SVGID_9_);}
	.st10{fill:url(#SVGID_10_);}
	.st11{fill:#DCDBDA;}
	.st12{fill:#C3C4C4;}
	.st13{fill-rule:evenodd;clip-rule:evenodd;fill:#FBB230;}
	.st14{fill-rule:evenodd;clip-rule:evenodd;fill:#EB2230;}
	.st15{fill-rule:evenodd;clip-rule:evenodd;fill:#FFFFFF;}
	.st16{fill:none;stroke:#FFFFFF;stroke-width:0.216;stroke-miterlimit:2.6131;}
	.st17{fill:url(#SVGID_11_);}
	.st18{fill:url(#SVGID_12_);}
	.st19{fill:url(#SVGID_13_);}
	.st20{fill:url(#SVGID_14_);}
	.st21{fill:url(#SVGID_15_);}
	.st22{fill:#081A23;}
	.st23{fill:#231F20;}
	.st24{fill:#0078A9;}
	.st25{fill:#004A97;}
</style>
<linearGradient id="SVGID_1_" gradientUnits="userSpaceOnUse" x1="269.6385" y1="-31.7451" x2="124.4517" y2="268.2924">
	<stop  offset="0" style="stop-color:#838485"/>
	<stop  offset="0.1415" style="stop-color:#8A8B8C"/>
	<stop  offset="0.5272" style="stop-color:#9E9E9E"/>
	<stop  offset="1" style="stop-color:#838485"/>
</linearGradient>
<path class="st0" d="M390,229c0,8.837-7.163,16-16,16H16c-8.837,0-16-7.163-16-16V16C0,7.163,7.163,0,16,0h358
	c8.837,0,16,7.163,16,16V229z"/>
<linearGradient id="SVGID_2_" gradientUnits="userSpaceOnUse" x1="85.4932" y1="67.7094" x2="52.9035" y2="113.3352">
	<stop  offset="0" style="stop-color:#C3892B"/>
	<stop  offset="0.1931" style="stop-color:#D29A32"/>
	<stop  offset="0.4118" style="stop-color:#E0AA3A"/>
	<stop  offset="0.5816" style="stop-color:#E6B13D"/>
	<stop  offset="0.7071" style="stop-color:#DFA939"/>
	<stop  offset="0.8922" style="stop-color:#CE952F"/>
	<stop  offset="1" style="stop-color:#C3892B"/>
</linearGradient>
<path class="st1" d="M100.5,109c0,2.209-1.791,4-4,4h-51c-2.209,0-4-1.791-4-4V67c0-2.209,1.791-4,4-4h51c2.209,0,4,1.791,4,4V109z"
	/>
<g>
	<g>
		<path class="st25" d="M223.8,55.062c9.315,0.045,17.818-7.594,17.818-16.891c0-10.163-8.503-17.188-17.818-17.184h-8.017
			c-9.424-0.004-17.184,7.022-17.184,17.184c0,9.297,7.76,16.936,17.184,16.891H223.8z"/>
		<path class="st2" d="M219.36,47.223V28.767c3.71,1.424,6.345,5.015,6.351,9.229C225.704,42.208,223.07,45.797,219.36,47.223
			 M205.937,37.995c0.009-4.211,2.638-7.801,6.347-9.229v18.454C208.575,45.793,205.946,42.206,205.937,37.995 M215.823,22.395
			c-8.614,0.004-15.596,6.984-15.597,15.601c0.001,8.614,6.983,15.592,15.597,15.596c8.615-0.004,15.596-6.982,15.597-15.596
			C231.419,29.379,224.438,22.399,215.823,22.395"/>
		<g>
			<path class="st2" d="M254.736,39.978c8.881,0,10.338-6.247,10.338-8.729c0-4.444-3.539-8.782-10.036-8.782
				c-1.857,0-3.289,0.049-4.34,0.049c-0.982,0-1.985,0-2.962-0.049v0.652c1.126,0.025,2.305-0.125,2.305,2.131v12.17
				c-0.072,1.706-0.801,1.755-2.305,1.907v0.651c1.126-0.025,2.233-0.049,3.361-0.049C252.275,39.929,253.458,39.978,254.736,39.978
				z M252.5,23.372c0.455-0.028,0.928-0.101,1.959-0.101c4.84,0,7.852,3.386,7.852,8.077c0,3.739-1.781,7.828-7.2,7.828
				c-1.227,0-2.61-0.224-2.61-2.158V23.372z"/>
			<path class="st2" d="M271.32,39.978v-0.651h-0.426c-0.703,0-1.255,0-1.255-0.83v-9.632c0-0.201-0.052-0.353-0.176-0.353
				c-0.126,0-0.275,0.026-0.453,0.13c-0.096,0.073-1.505,0.547-2.685,0.901v0.4c0.932,0.501,1.306,0.652,1.306,1.755v6.799
				c0,0.83-0.502,0.83-1.204,0.83h-0.477v0.651c0.929-0.025,1.83-0.049,2.735-0.049C269.587,39.929,270.465,39.978,271.32,39.978z"
				/>
			<path class="st2" d="M268.637,24.65c0.673,0,1.227-0.578,1.227-1.256c0-0.677-0.579-1.207-1.227-1.207
				c-0.628,0-1.232,0.577-1.232,1.207C267.405,24.047,267.984,24.65,268.637,24.65z"/>
			<path class="st2" d="M284.642,39.327h-0.452c-0.702,0-1.254,0-1.254-0.83v-6.472c0-1.957-0.753-3.513-2.884-3.513
				c-1.683,0-2.913,0.855-4.345,1.881v-1.63c0-0.198-0.072-0.251-0.148-0.251c-1.206,0.528-2.233,0.855-3.308,1.205v0.478
				c1.174,0.477,1.453,0.727,1.453,1.653v6.649c0,0.83-0.503,0.83-1.203,0.83h-0.456v0.651c0.905-0.025,1.811-0.049,2.711-0.049
				c0.904,0,1.782,0.049,2.661,0.049v-0.651h-0.453c-0.701,0-1.257,0-1.257-0.83v-7.422c0.831-0.555,2.112-1.207,2.914-1.207
				c1.431,0,2.305,0.702,2.305,2.134v6.495c0,0.83-0.499,0.83-1.2,0.83h-0.455v0.651c0.906-0.025,1.81-0.049,2.712-0.049
				c0.902,0,1.779,0.049,2.659,0.049V39.327z"/>
			<path class="st2" d="M289.335,40.353c2.054,0,3.485-1.301,4.637-2.834l-0.348-0.349c-0.927,0.925-2.006,1.679-3.388,1.679
				c-2.005,0-3.539-1.956-3.688-4.341c-0.05-0.854-0.05-1.228,0-1.454h7.049l0.227-0.152c0.021-0.151,0.021-0.3,0.021-0.451
				c-0.021-2.659-2.204-3.94-4.239-3.94c-1.755,0-5.066,1.454-5.066,6.374C284.541,36.491,285.343,40.353,289.335,40.353z
				 M289.509,29.315c1.405,0,2.182,1.028,2.182,2.308c0,0.301-0.072,0.628-0.702,0.628h-4.364
				C286.926,30.444,287.979,29.315,289.509,29.315z"/>
			<path class="st2" d="M300.923,39.978v-0.651h-1.403c-0.705,0-1.204,0-1.204-0.83v-5.894c0-1.505,1.402-2.083,1.831-2.083
				c0.877,0,0.877,0.602,1.654,0.602c0.705,0,1.18-0.602,1.18-1.281c0-0.903-0.802-1.329-1.429-1.329
				c-1.531,0-2.587,1.608-3.21,2.586h-0.054v-2.257c0-0.253-0.074-0.33-0.222-0.33c-0.23,0-1.234,0.652-3.065,1.431v0.375
				c0.378,0.202,1.305,0.354,1.305,1.131v7.048c0,0.83-0.501,0.83-1.204,0.83h-0.676v0.651c0.905-0.025,1.954-0.049,2.985-0.049
				C298.492,39.929,299.543,39.953,300.923,39.978z"/>
			<path class="st2" d="M307.249,39.553c-1.835,0-2.836-1.407-3.163-3.063l-0.452,0.128l0.277,2.885
				c0.875,0.501,2.055,0.85,3.059,0.85c2.987,0,4.315-1.755,4.315-3.412c0-3.938-5.82-3.032-5.82-5.969
				c0-1.079,0.954-1.655,1.957-1.655c1.607,0,2.485,0.903,2.735,2.48h0.577l-0.176-2.557c-0.979-0.502-2.057-0.728-2.86-0.728
				c-2.758,0-3.889,1.806-3.889,3.212c0,4.04,5.467,3.087,5.467,6.047C309.277,38.648,308.728,39.553,307.249,39.553z"/>
			<path class="st2" d="M333.392,39.024l0.576-3.663l-0.576-0.149c-0.502,2.636-2.564,4.342-5.048,4.342
				c-3.862,0-7.475-3.638-7.475-8.707c0-6.024,4.189-7.954,7.077-7.954c2.807,0,4.89,1.18,5.368,4.112h0.627l-0.25-3.584
				c-1.93-0.677-3.892-1.332-5.923-1.332c-4.915,0-9.505,3.688-9.505,8.832c0,5.646,3.711,9.432,9.581,9.432
				C329.5,40.353,332.336,39.679,333.392,39.024z"/>
			<path class="st2" d="M340.21,39.978v-0.651h-0.42c-0.705,0-1.256,0-1.256-0.83V21.162c0-0.201-0.05-0.352-0.205-0.352
				c-0.076,0-0.277,0.126-0.55,0.276c-0.526,0.303-1.578,0.754-2.583,1.08v0.401c0.955,0.276,1.33,0.325,1.33,1.958v13.972
				c0,0.83-0.501,0.83-1.206,0.83h-0.475v0.651c0.927-0.025,1.831-0.049,2.733-0.049C338.484,39.929,339.36,39.978,340.21,39.978z"
				/>
			<path class="st2" d="M341.718,30.946v6.425c0,2.107,1.405,2.982,2.76,2.982c1.785,0,2.938-0.875,4.443-2.105v2.031l0.126,0.073
				c0.476-0.148,2.534-0.674,3.613-0.774v-0.527c-0.327,0-0.704,0.022-1.003,0.022c-0.43,0-0.703-0.022-0.703-0.476v-9.255
				c0-0.277,0-0.454-0.203-0.454c-0.25,0-1.655,0.201-3.913,0.351v0.453c0.903,0.251,2.107,0.526,2.107,1.027v6.751
				c-1.055,0.876-2.182,1.528-3.035,1.528c-2.182,0-2.182-2.156-2.182-2.91v-6.473c0-0.551,0-0.728-0.279-0.728
				c-0.326,0-2.331,0.151-3.233,0.177v0.476C341.619,29.666,341.718,30.295,341.718,30.946z"/>
			<path class="st2" d="M353.94,24.525v10.787c0,1.531-0.128,2.986-0.352,4.466l0.526,0.275l0.755-0.575
				c0.65,0.273,1.628,0.875,3.483,0.875c3.588,0,5.998-3.286,5.998-6.572c0-2.732-1.757-5.269-4.665-5.269
				c-1.382,0-2.738,0.954-3.739,1.806v-9.156c0-0.201-0.05-0.35-0.199-0.35c-0.078,0-0.279,0.124-0.556,0.274
				c-0.525,0.303-1.578,0.754-2.585,1.08v0.401C353.561,22.843,353.94,22.893,353.94,24.525z M355.946,31.049
				c0.678-0.578,1.454-1.181,2.384-1.181c1.957,0,4.011,2.257,4.011,4.965c0,2.234-1.127,4.871-3.813,4.871
				c-1.68,0-2.582-1.609-2.582-2.561V31.049z"/>
			<path class="st2" d="M249.731,45.441c-0.67,0-1.485-0.054-2.024-0.054h-0.057v0.47v0.059h0.249
				c0.495,0.01,0.946,0.052,0.954,0.722v7.148c-0.007,0.67-0.458,0.708-0.954,0.719h-0.192h-0.057v0.062v0.409v0.056h0.057
				c0.54,0,1.341-0.053,2.008-0.053c0.68,0,1.498,0.053,2.155,0.053h0.063v-0.466v-0.062h-0.252
				c-0.494-0.011-0.948-0.05-0.948-0.719v-7.148c0-0.67,0.454-0.712,0.948-0.722h0.189h0.063v-0.467v-0.062h-0.063
				C251.228,45.387,250.411,45.441,249.731,45.441z"/>
			<path class="st2" d="M261.7,45.441c-0.637,0-1.267-0.05-1.911-0.05h-0.06v0.465v0.061h0.36c0.397,0.01,1.123,0.139,1.132,1.226
				v5.021l-6.002-6.754c-0.458-0.019-0.855,0.031-1.26,0.031c-0.513,0-1.047-0.05-1.568-0.05h-0.061v0.465v0.061h0.238
				c0.584,0,1.18,0.444,1.184,1.169v5.749c-0.012,1.089-0.268,1.667-1.171,1.672h-0.189h-0.061v0.471v0.056h0.061
				c0.616,0,1.242-0.053,1.855-0.053c0.582,0,1.171,0.053,1.762,0.053h0.059v-0.466v-0.062h-0.293
				c-1.028-0.012-1.207-0.347-1.222-1.537v-5.471l6.926,7.722l0.565,0.019h0.069l-0.013-0.07c-0.066-0.414-0.079-0.889-0.079-1.366
				v-6.215c0.014-1.609,0.592-1.656,1.158-1.673h0.202h0.061v-0.469v-0.056h-0.061C262.817,45.391,262.255,45.441,261.7,45.441z"/>
			<path class="st2" d="M272.867,44.956l-0.004,0.063c-0.025,0.358-0.302,0.363-0.682,0.368h-7.042h-0.067
				c-0.35-0.005-0.604-0.006-0.697-0.352l-0.01-0.041h-0.373h-0.059v0.059c0,0.39-0.027,0.77-0.082,1.149
				c-0.042,0.397-0.112,0.778-0.164,1.161l-0.011,0.07h0.479h0.048l0.009-0.047c0.223-1.011,0.202-1.178,1.213-1.198h2.177v7.232
				c-0.014,1.058-0.316,1.07-1.073,1.085h-0.259h-0.056v0.473v0.055h0.056c0.538,0,1.492-0.053,2.311-0.053
				c0.735,0,1.688,0.053,2.226,0.053h0.056v-0.466v-0.062h-0.319c-0.651-0.012-1.06-0.083-1.07-1.112v-7.206h2.179
				c0.862,0,0.914,0.744,0.954,1.254l0.004,0.08l0.481-0.174l0.039-0.017V47.29c0-0.369,0-0.735,0.029-1.101
				c0.038-0.365,0.092-0.734,0.145-1.1l0.009-0.059l-0.381-0.062L272.867,44.956z"/>
			<path class="st2" d="M281.025,52.639l-0.016,0.054c-0.408,1.534-1.071,1.612-2.712,1.625c-0.888-0.005-1.606,0-1.608-0.831
				v-3.121h1.581c0.907,0.011,0.913,0.464,1.005,1.299l0.005,0.066l0.474-0.097l0.05-0.008l-0.004-0.052
				c-0.023-0.519-0.041-1.037-0.041-1.552c0-0.533,0.018-1.064,0.041-1.595l0.004-0.063h-0.47h-0.054l-0.005,0.055
				c-0.092,0.737-0.232,1.139-1.019,1.146h-1.567v-3.455h1.84c1.406,0.012,1.523,0.656,1.603,1.541l0.005,0.07l0.479-0.125
				l0.045-0.012v-0.051c-0.027-0.389-0.043-0.903-0.043-1.376c0-0.255,0.004-0.498,0.016-0.704l0.002-0.06h-0.063
				c-0.927,0-2.345,0.05-3.496,0.05c-1.141,0-2.561-0.05-3.394-0.05h-0.059v0.467v0.059h0.25c0.493,0.011,0.943,0.055,0.948,0.722
				v7.148c-0.005,0.67-0.455,0.711-0.948,0.719h-0.191h-0.059v0.062v0.411v0.055h0.059c0.779,0,2.402-0.054,3.629-0.054
				s2.796,0.054,3.674,0.054h0.047l0.013-0.045c0.119-0.725,0.282-1.45,0.462-2.169l0.011-0.059l-0.437-0.111L281.025,52.639z"/>
			<path class="st2" d="M290.125,53.714l-2.292-3.434c1.051-0.429,1.866-1.199,1.866-2.429c-0.004-1.985-1.587-2.459-3.308-2.465
				c-0.73,0-1.381,0.054-2.198,0.054c-0.835,0-1.673-0.054-2.116-0.054h-0.061v0.47v0.059h0.306
				c0.425,0.015,0.898,0.011,0.911,0.978v6.936c-0.004,0.463-0.417,0.673-0.911,0.676h-0.245h-0.061v0.471v0.056h0.061
				c0.685,0,1.326-0.053,1.976-0.053c0.774,0,1.569,0.053,2.349,0.053h0.063v-0.466v-0.062h-0.307
				c-0.632-0.013-1.044-0.006-1.06-1.032v-2.861h0.81c0.88,1.558,1.779,3.026,2.825,4.399c0.477,0.021,0.914-0.031,1.33-0.031
				c0.448,0,0.883,0.053,1.34,0.053h0.057v-0.466v-0.054l-0.05-0.008C290.746,54.423,290.505,54.282,290.125,53.714z
				 M287.753,47.934c-0.012,1.586-0.693,2.055-2.046,2.068h-0.61v-3.955c0.176-0.016,0.351-0.049,0.72-0.049
				C287.006,46.003,287.746,46.743,287.753,47.934z"/>
			<path class="st2" d="M302.858,45.916v-0.467v-0.062h-0.06c-0.563,0-1.124,0.054-1.678,0.054c-0.639,0-1.267-0.054-1.914-0.054
				h-0.058v0.47v0.059h0.36c0.396,0.006,1.126,0.139,1.128,1.224v5.023l-6.004-6.758c-0.456-0.019-0.852,0.035-1.253,0.035
				c-0.513,0-1.048-0.054-1.567-0.054h-0.065v0.47v0.059h0.243c0.581,0,1.177,0.442,1.179,1.168v5.747
				c-0.009,1.091-0.27,1.671-1.17,1.675h-0.187h-0.065v0.473v0.055h0.065c0.611,0,1.243-0.054,1.851-0.054
				c0.585,0,1.173,0.054,1.762,0.054h0.061v-0.466v-0.062h-0.292c-1.028-0.012-1.207-0.347-1.225-1.537v-5.471l6.927,7.722
				l0.565,0.019h0.064l-0.007-0.067c-0.067-0.419-0.08-0.892-0.08-1.368v-6.215c0.014-1.609,0.595-1.658,1.156-1.673h0.205H302.858z
				"/>
			<path class="st2" d="M311.343,53.996c-0.179-0.402-0.342-0.908-0.504-1.385l-2.514-7.141c-0.041-0.109-0.085-0.232-0.124-0.343
				c-0.041-0.073-0.116-0.082-0.151-0.08c-0.054,0-0.088,0.018-0.13,0.032c-0.264,0.165-0.811,0.439-1.238,0.586
				c-0.122,0.544-0.364,1.224-0.545,1.73l-2.186,6.266c-0.195,0.554-0.619,0.842-1.127,0.842h-0.084h-0.06v0.476v0.059l0.065-0.004
				c0.488-0.023,0.982-0.054,1.47-0.054c0.545,0,1.101,0.03,1.648,0.054l0.064,0.004v-0.47v-0.065h-0.211
				c-0.452,0-0.963-0.078-0.968-0.413c0-0.222,0.162-0.582,0.301-1.047l0.423-1.38h3.012l0.522,1.545
				c0.149,0.434,0.271,0.81,0.27,0.965c-0.002,0.26-0.471,0.33-0.786,0.33h-0.149h-0.061v0.476v0.059l0.063-0.004
				c0.698-0.023,1.377-0.054,2.048-0.054c0.65,0,1.264,0.03,1.877,0.054l0.063,0.004v-0.47v-0.065h-0.14
				C311.752,54.503,311.499,54.359,311.343,53.996z M308.162,50.78h-2.392l1.204-3.656L308.162,50.78z"/>
			<path class="st2" d="M320.306,44.956l-0.002,0.064c-0.023,0.356-0.3,0.361-0.677,0.37h-7.046c-0.024,0-0.044-0.003-0.067-0.003
				c-0.35-0.005-0.599-0.006-0.698-0.352l-0.009-0.041h-0.373h-0.059v0.059c0,0.39-0.027,0.77-0.083,1.151
				c-0.039,0.395-0.106,0.776-0.164,1.162l-0.009,0.068h0.477h0.05l0.011-0.047c0.22-1.011,0.199-1.18,1.211-1.198h2.177
				l0.002,7.232c-0.018,1.058-0.32,1.07-1.074,1.085h-0.259h-0.061v0.473v0.055h0.061c0.534,0,1.493-0.053,2.308-0.053
				c0.733,0,1.688,0.053,2.224,0.053h0.061v-0.466v-0.062h-0.322c-0.65-0.012-1.056-0.083-1.071-1.112v-7.206h2.179
				c0.862,0,0.918,0.744,0.954,1.254l0.002,0.08l0.482-0.174l0.039-0.017V47.29c0-0.367,0-0.735,0.027-1.101
				c0.043-0.365,0.092-0.734,0.149-1.1l0.013-0.059l-0.389-0.062L320.306,44.956z"/>
			<path class="st2" d="M323.213,45.441c-0.663,0-1.483-0.05-2.016-0.05h-0.061v0.467v0.059h0.249c0.495,0.01,0.95,0.055,0.95,0.722
				v7.148c0,0.67-0.455,0.711-0.95,0.719h-0.188h-0.061v0.062v0.411v0.055h0.061c0.533,0,1.337-0.054,2.005-0.054
				c0.681,0,1.496,0.054,2.157,0.054h0.057v-0.466v-0.062h-0.245c-0.502-0.008-0.952-0.05-0.957-0.719v-7.148
				c0.005-0.667,0.455-0.712,0.957-0.722h0.188h0.057v-0.469v-0.056h-0.057C324.711,45.391,323.895,45.441,323.213,45.441z"/>
			<path class="st2" d="M330.803,45.182c-2.869,0.007-5.09,2.226-5.096,5.098c0.005,2.967,2.246,4.953,5.165,4.958
				c2.935-0.005,5.215-2.113,5.218-5.288C336.084,47.009,333.735,45.188,330.803,45.182z M330.777,45.901
				c2.22,0.006,3.285,2.375,3.285,4.354c-0.005,1.99-0.456,4.264-3.05,4.267c-2.163-0.006-3.273-2.29-3.274-4.721
				C327.743,47.982,328.435,45.906,330.777,45.901z"/>
			<path class="st2" d="M347.421,45.916v-0.469v-0.056h-0.058c-0.567,0-1.124,0.05-1.684,0.05c-0.634,0-1.264-0.05-1.907-0.05
				h-0.061v0.467v0.059h0.357c0.401,0.01,1.128,0.139,1.132,1.226v5.021l-5.997-6.754c-0.465-0.019-0.858,0.031-1.263,0.031
				c-0.515,0-1.046-0.05-1.571-0.05h-0.057v0.467v0.059h0.239c0.585,0,1.18,0.442,1.182,1.168v5.75
				c-0.011,1.089-0.27,1.667-1.17,1.669h-0.194h-0.057v0.474v0.056h0.057c0.619,0,1.248-0.053,1.859-0.053
				c0.584,0,1.17,0.053,1.761,0.053h0.061v-0.466v-0.065h-0.295c-1.024-0.01-1.207-0.343-1.225-1.534v-5.471l6.929,7.722
				l0.566,0.019h0.065l-0.011-0.067c-0.067-0.417-0.078-0.892-0.078-1.368v-6.215c0.011-1.607,0.593-1.656,1.156-1.673h0.205
				H347.421z"/>
			<path class="st2" d="M355.907,53.998c-0.177-0.404-0.342-0.91-0.504-1.387l-2.513-7.141c-0.044-0.109-0.083-0.235-0.124-0.339
				c-0.042-0.078-0.114-0.087-0.151-0.083c-0.053,0-0.09,0.016-0.127,0.03c-0.265,0.165-0.811,0.437-1.244,0.586
				c-0.118,0.544-0.365,1.224-0.539,1.73l-2.184,6.266c-0.201,0.552-0.625,0.842-1.137,0.845h-0.076h-0.059v0.471v0.061l0.059-0.004
				c0.493-0.023,0.981-0.053,1.472-0.053c0.544,0,1.101,0.029,1.648,0.053l0.062,0.004v-0.47v-0.062h-0.209
				c-0.453,0-0.963-0.081-0.963-0.418c-0.004-0.22,0.16-0.579,0.297-1.046l0.421-1.38h3.013l0.519,1.545
				c0.152,0.437,0.275,0.81,0.274,0.965c0,0.26-0.469,0.333-0.787,0.333h-0.151h-0.058v0.471v0.061l0.06-0.004
				c0.698-0.023,1.381-0.053,2.045-0.053c0.652,0,1.266,0.029,1.882,0.053l0.063,0.004v-0.47v-0.062h-0.144
				C356.313,54.503,356.068,54.359,355.907,53.998z M352.725,50.78h-2.388l1.198-3.654L352.725,50.78z"/>
			<path class="st2" d="M364.625,52.596h-0.045l-0.012,0.047c-0.082,0.297-0.203,0.672-0.41,0.961
				c-0.238,0.327-0.718,0.65-1.272,0.716c-0.353,0.037-0.699,0.052-1.035,0.052c-0.262,0-0.515-0.012-0.756-0.028
				c-0.426-0.058-0.76-0.197-0.766-0.704v-7.044c0.013-0.689,0.343-0.664,0.872-0.679h0.341h0.057v-0.469v-0.056h-0.057
				c-0.699,0-1.381,0.05-2.075,0.05c-0.72,0-1.433-0.05-2.159-0.05h-0.057v0.467v0.059h0.248c0.496,0.01,0.961,0.055,0.968,0.72
				v7.016c-0.007,0.809-0.474,0.842-0.968,0.853h-0.191h-0.057v0.471v0.056h0.057c1.204,0,2.408-0.053,3.606-0.053
				c1.2,0,2.399,0.053,3.602,0.053h0.048l0.011-0.045c0.167-0.777,0.353-1.54,0.508-2.321l0.013-0.072H364.625z"/>
		</g>
	</g>
</g>
</svg>
