<?xml version="1.0" encoding="utf-8"?>
<!-- Generator: Adobe Illustrator 17.1.0, SVG Export Plug-In . SVG Version: 6.00 Build 0)  -->
<!DOCTYPE svg PUBLIC "-//W3C//DTD SVG 1.1//EN" "http://www.w3.org/Graphics/SVG/1.1/DTD/svg11.dtd">
<svg version="1.1" id="Layer_1" xmlns="http://www.w3.org/2000/svg" xmlns:xlink="http://www.w3.org/1999/xlink" x="0px" y="0px"
	 width="390px" height="245px" viewBox="0 279 390 245" style="enable-background:new 0 279 390 245;" xml:space="preserve">
<style type="text/css">
	.st0{fill:url(#SVGID_1_);}
	.st1{fill:#FFFFFF;}
	.st2{fill:url(#SVGID_2_);}
	.st3{fill:url(#SVGID_3_);}
	.st4{fill:url(#SVGID_4_);}
	.st5{fill:#FBB230;}
	.st6{fill:#EB2230;}
	.st7{fill:none;stroke:#FFFFFF;stroke-width:0.216;stroke-miterlimit:2.6131;}
	.st8{fill:url(#SVGID_5_);}
	.st9{fill:url(#SVGID_6_);}
	.st10{fill:url(#SVGID_7_);}
	.st11{fill:#081A23;}
	.st12{fill:#231F20;}
	.st13{fill:url(#SVGID_8_);}
	.st14{fill:#0078A9;}
	.st15{fill:url(#SVGID_9_);}
	.st16{fill:#004A97;}
</style>
<linearGradient id="SVGID_1_" gradientUnits="userSpaceOnUse" x1="269.6385" y1="247.2549" x2="124.4517" y2="547.2924">
	<stop  offset="0" style="stop-color:#CEA429"/>
	<stop  offset="0.5272" style="stop-color:#DCB62F"/>
	<stop  offset="1" style="stop-color:#CEA429"/>
</linearGradient>
<path class="st0" d="M390,508c0,8.837-7.163,16-16,16H16c-8.837,0-16-7.163-16-16V295c0-8.837,7.163-16,16-16h358
	c8.837,0,16,7.163,16,16V508z"/>
<g>
	<path d="M25.93,391.669v9.503H48.24v5.156H25.93v10.422h23.739v5.886H16.902v-36.854h32.559v5.886H25.93z"/>
	<path d="M87.005,385.783h9.028v24.514c0,5.129-1.271,8.523-3.816,10.179c-2.545,1.656-7.747,2.485-15.601,2.485
		c-8.296,0-13.733-0.784-16.313-2.349c-2.58-1.566-3.87-4.868-3.87-9.909v-24.92h9.03v24.92c0,2.719,0.626,4.442,1.883,5.17
		c1.255,0.728,4.206,1.094,8.853,1.094c4.764,0,7.757-0.369,8.978-1.108c1.219-0.737,1.831-2.547,1.831-5.427v-24.649H87.005z"/>
	<path d="M104.365,422.637v-36.854h23.46c5.833,0,9.853,0.784,12.062,2.348c2.205,1.566,3.312,4.402,3.312,8.504
		c0,3.726-0.553,6.273-1.656,7.641c-1.106,1.368-3.364,2.313-6.781,2.835v0.243c5.276,0.253,7.913,2.637,7.913,7.154v8.126h-9.03
		v-6.722c0-3.797-2.419-5.697-7.251-5.697h-13.004v12.419h-9.026V422.637z M113.393,404.331h12.967c3.09,0,5.142-0.428,6.153-1.283
		c1.011-0.855,1.517-2.569,1.517-5.142c0-2.628-0.437-4.324-1.307-5.09c-0.872-0.765-2.783-1.148-5.735-1.148h-13.596v12.664
		H113.393z"/>
	<path d="M170.144,385.459c8.645,0,14.212,1.111,16.698,3.334c2.488,2.223,3.729,7.195,3.729,14.916
		c0,8.442-1.25,13.761-3.747,15.956c-2.497,2.195-8.548,3.294-18.144,3.294c-8.645,0-14.236-1.084-16.768-3.253
		c-2.535-2.169-3.8-6.942-3.8-14.323c0-8.783,1.243-14.3,3.729-16.551C154.33,386.584,160.431,385.459,170.144,385.459z
		 M169.449,391.453c-6.067,0-9.61,0.603-10.633,1.808c-1.023,1.205-1.534,5.382-1.534,12.527c0,5.292,0.598,8.478,1.796,9.557
		c1.195,1.08,4.723,1.621,10.58,1.621c5.6,0,8.96-0.609,10.075-1.822c1.117-1.215,1.675-4.9,1.675-11.055
		c0-6.174-0.531-9.824-1.586-10.947C178.761,392.016,175.305,391.453,169.449,391.453z"/>
	<path d="M226.061,409.488h9.064v1.269c0,5.129-1.208,8.447-3.625,9.949c-2.419,1.503-7.764,2.254-16.036,2.254
		c-9.389,0-15.164-1.189-17.326-3.565c-2.16-2.375-3.24-8.73-3.24-19.061c0-6.084,1.463-10.084,4.392-12
		c2.927-1.918,9.052-2.876,18.371-2.876c6.786,0,11.317,0.787,13.596,2.363c2.276,1.574,3.416,4.702,3.416,9.382l0.036,0.836h-9.064
		v-0.945c0-2.412-0.588-3.955-1.762-4.629c-1.174-0.674-3.852-1.013-8.036-1.013c-5.6,0-8.964,0.531-10.091,1.592
		c-1.127,1.063-1.692,4.211-1.692,9.449c0,7.057,0.506,11.232,1.517,12.528c1.011,1.297,4.282,1.944,9.813,1.944
		c4.485,0,7.396-0.361,8.731-1.08c1.337-0.72,2.004-2.304,2.004-4.752L226.061,409.488z"/>
	<path d="M269.602,415.563h-20.533l-2.963,7.074h-9.552l15.826-36.852h13.56l16.072,36.852h-9.378L269.602,415.563z
		 M267.511,410.405l-8.227-19.195l-8.088,19.195H267.511z"/>
	<path d="M286.125,422.637v-36.854h23.46c5.833,0,9.853,0.784,12.062,2.348c2.205,1.566,3.312,4.402,3.312,8.504
		c0,3.726-0.553,6.273-1.656,7.641c-1.106,1.368-3.364,2.313-6.781,2.835v0.243c5.276,0.253,7.913,2.637,7.913,7.154v8.126h-9.03
		v-6.722c0-3.797-2.419-5.697-7.251-5.697h-13.004v12.419h-9.026V422.637z M295.153,404.331h12.967c3.09,0,5.142-0.428,6.153-1.283
		c1.011-0.855,1.517-2.569,1.517-5.142c0-2.628-0.437-4.324-1.307-5.09c-0.872-0.765-2.783-1.148-5.735-1.148h-13.596v12.664
		H295.153z"/>
	<path d="M332.14,422.637v-36.854h23.391c6.646,0,11.301,1.125,13.961,3.374c2.661,2.25,3.993,6.191,3.993,11.825
		c0,9.198-1.07,15.105-3.208,17.725c-2.138,2.618-6.961,3.929-14.469,3.929H332.14V422.637z M341.168,416.751h12.863
		c4.322,0,7.117-0.77,8.385-2.309s1.9-4.936,1.9-10.191c0-5.435-0.569-8.891-1.708-10.366c-1.137-1.475-3.811-2.214-8.017-2.214
		H341.17v25.081H341.168z"/>
</g>
</svg>
