<?xml version="1.0" encoding="utf-8"?>
<!-- Generator: Adobe Illustrator 24.1.0, SVG Export Plug-In . SVG Version: 6.00 Build 0)  -->
<svg version="1.1" id="Visa_regular" xmlns="http://www.w3.org/2000/svg" xmlns:xlink="http://www.w3.org/1999/xlink" x="0px"
	 y="0px" viewBox="0 0 390 245" style="enable-background:new 0 0 390 245;" xml:space="preserve">
<style type="text/css">
	.st0{fill:url(#SVGID_1_);}
	.st1{fill:#333333;}
	.st2{fill:#551488;}
	.st3{fill:#1B5BA8;}
</style>
<g>
	<linearGradient id="SVGID_1_" gradientUnits="userSpaceOnUse" x1="194.9665" y1="110.8184" x2="195.7875" y2="397.1776">
		<stop  offset="0.1604" style="stop-color:#FFFFFF"/>
		<stop  offset="0.2556" style="stop-color:#FBFBFB"/>
		<stop  offset="0.3599" style="stop-color:#EDEDED"/>
		<stop  offset="0.4685" style="stop-color:#D7D7D7"/>
		<stop  offset="0.58" style="stop-color:#B9B9B9"/>
		<stop  offset="0.6938" style="stop-color:#919191"/>
		<stop  offset="0.8095" style="stop-color:#616161"/>
		<stop  offset="0.9246" style="stop-color:#292929"/>
		<stop  offset="1" style="stop-color:#000000"/>
	</linearGradient>
	<path class="st0" d="M16,242c-7.2,0-13-5.8-13-13V16C3,8.8,8.8,3,16,3h358c7.2,0,13,5.8,13,13v213c0,7.2-5.8,13-13,13H16z"/>
	<path class="st1" d="M374,6c5.5,0,10,4.5,10,10v213c0,5.5-4.5,10-10,10H16c-5.5,0-10-4.5-10-10V16c0-5.5,4.5-10,10-10H374 M374,0
		H16C7.2,0,0,7.2,0,16v213c0,8.8,7.2,16,16,16h358c8.8,0,16-7.2,16-16V16C390,7.2,382.8,0,374,0L374,0z"/>
</g>
<g>
	<circle class="st1" cx="48.9" cy="181" r="5.3"/>
	<circle class="st1" cx="64.9" cy="181" r="5.3"/>
	<circle class="st1" cx="80.9" cy="181" r="5.3"/>
	<circle class="st1" cx="96.9" cy="181" r="5.3"/>
	<circle class="st1" cx="128.3" cy="181" r="5.3"/>
	<circle class="st1" cx="144.3" cy="181" r="5.3"/>
	<circle class="st1" cx="160.3" cy="181" r="5.3"/>
	<circle class="st1" cx="176.3" cy="181" r="5.3"/>
	<circle class="st1" cx="209.7" cy="181" r="5.3"/>
	<circle class="st1" cx="225.7" cy="181" r="5.3"/>
	<circle class="st1" cx="241.8" cy="181" r="5.3"/>
	<circle class="st1" cx="257.8" cy="181" r="5.3"/>
	<circle class="st1" cx="291.2" cy="181" r="5.3"/>
	<circle class="st1" cx="307.2" cy="181" r="5.3"/>
	<circle class="st1" cx="323.2" cy="180" r="5.3"/>
	<circle class="st1" cx="339.2" cy="180" r="5.3"/>
</g>
<g>
	<path class="st2" d="M244.2,70.7c0,9.7-5.9,14.5-11.8,14.5c-3.5,0-6.4-1.6-8.2-4.6v3.9h-6.6v-36h6.6V62c1.4-2.4,4.2-4.9,8.8-4.9
		C238.1,57.1,244.2,61.4,244.2,70.7z M224.1,71c0,5.5,3.2,8.4,6.7,8.4c3.3,0,6.8-2.7,6.8-8.4c0-5.6-3.4-8.3-6.7-8.3
		C227.3,62.8,224.1,65.3,224.1,71z"/>
	<path class="st2" d="M247.4,70.9c0-9.3,6-13.8,11.9-13.8c3.2,0,6,1.2,8.1,4.2v-3.4h6.6v26.8h-6.6v-3.8c-1.9,2.5-4.7,4.5-8.9,4.5
		C253.4,85.2,247.4,80.7,247.4,70.9z M254.1,71.2c0,5.7,3.4,8.2,6.7,8.2c3.6,0,6.7-2.4,6.7-8.2c0-5.7-3.2-8.4-6.7-8.4
		C257.6,62.8,254.1,65.4,254.1,71.2z"/>
	<path class="st2" d="M286.9,69.2v15.3h-6.6V57.8h6.6v3.9c1.9-3.4,5.3-4.7,8.3-4.7c4.6,0,9.1,2.4,9.1,9.6v17.9h-6.6V69.1
		c0-4.5-2.2-6.1-5.1-6.1C289.4,63,286.9,65,286.9,69.2z"/>
	<path class="st2" d="M310.3,48.6h6.5v21.6l9.5-12.4h7.3l-9.2,11.1L335,84.5h-7.3l-7.3-11l-3.6,4.4v6.6h-6.5V48.6z"/>
	<path class="st2" d="M216,106.3c0-9.3,6-13.8,11.9-13.8c3.2,0,6,1.2,8.1,4.2v-3.4h6.6v26.8h-6.6v-3.8c-1.9,2.5-4.7,4.5-8.9,4.5
		C222,120.6,216,116.1,216,106.3z M222.7,106.7c0,5.7,3.4,8.2,6.7,8.2c3.6,0,6.7-2.4,6.7-8.2c0-5.7-3.2-8.4-6.7-8.4
		C226.1,98.3,222.7,100.9,222.7,106.7z"/>
	<path class="st2" d="M263.6,118.1l-3.6-3.7c-0.4-0.5-0.9-0.8-1.4-0.8c-0.5,0-0.9,0.3-1.5,0.9l-8.6,9.1c-0.9,0.9-2.1,1.9-3.6,1.9
		c-1.4,0-2.5-1-2.5-2.4c0-1.2,0.8-2.2,1.8-3.2l8.9-9.4c2.3-2.5,4-2.8,5.3-2.8c1.3,0,3,0.3,5.6,2.9l3.5,3.6c0.9,1,1.9,2,1.9,3.4
		c0,1.3-0.9,2.4-2.4,2.4C265.8,120,264.9,119.4,263.6,118.1z M253.2,95l3.6,3.7c0.4,0.5,0.9,0.8,1.4,0.8c0.5,0,0.9-0.3,1.5-0.9
		l8.6-9.1c0.9-0.9,2.1-1.9,3.6-1.9s2.5,1,2.5,2.4c0,1.2-0.8,2.2-1.8,3.2l-8.9,9.4c-2.3,2.5-4,2.8-5.3,2.8c-1.3,0-3-0.3-5.6-2.9
		l-3.5-3.6c-0.9-1-1.9-2-1.9-3.4s0.9-2.4,2.4-2.4C251.1,93.1,252,93.7,253.2,95z"/>
	<path class="st2" d="M278.7,108c0.4,4.2,2.8,6.9,7.1,6.9c4,0,5.7-1.6,6.2-4.2l5.9,0.9c-1,6.2-7,9-11.9,9c-7.9,0-14-5.3-14-14.2
		c0-8.6,5.8-14,13.4-14c7.1,0,12.3,5.6,12.3,13.5v2L278.7,108z M278.8,103.3h12.5c-0.6-3.9-3.1-5.3-6.2-5.3
		C281.9,98,279.6,99.6,278.8,103.3z"/>
	<path class="st2" d="M309.1,93.2v3.7c0,0,4.7-4.4,8.8-4.4c5.2,0,11.3,4.4,11.3,13.7c0,9.7-5.8,14.5-11.8,14.5c-3.2,0-6-1.3-8.1-4.2
		v12.8h-6.7V93.2H309.1z M309.2,106.5c0,5.5,3.2,8.4,6.7,8.4c3.3,0,6.8-2.7,6.8-8.4c0-5.6-3.4-8.3-6.7-8.3
		C312.3,98.3,309.2,100.8,309.2,106.5z"/>
	<path class="st2" d="M336.1,93.3v-6.5l6.6-0.9v7.4h6.6v5.4h-6.6v12.9c0,1.9,0.6,2.9,2.6,2.9c1.2,0,2.3-0.2,3.6-0.5l0.9,5.1
		c-1.6,0.7-4.1,1.3-6.4,1.3c-5.5,0-7.3-3.2-7.3-7.1V98.7h-4.5v-5.4H336.1z"/>
</g>
<g>
	<g>
		<polygon class="st3" points="94.7,64.6 86.9,113.3 99.4,113.3 107.3,64.6 		"/>
		<path class="st3" d="M132.8,84.2c-4.4-2.2-7.1-3.7-7.1-6c0.1-2.1,2.3-4.2,7.3-4.2c4.1-0.1,7.1,0.9,9.4,1.9l1.1,0.5l1.7-10.5
			c-2.5-1-6.4-2.1-11.3-2.1c-12.5,0-21.2,6.7-21.3,16.1c-0.1,7,6.3,10.9,11,13.2c4.9,2.4,6.5,4,6.5,6.1c-0.1,3.3-4,4.8-7.6,4.8
			c-5,0-7.7-0.8-11.8-2.6l-1.7-0.8l-1.8,11c3,1.3,8.4,2.5,14.1,2.6c13.2,0,21.9-6.5,22-16.6C143.4,91.9,140,87.7,132.8,84.2z"/>
		<path class="st3" d="M76.3,64.6L64,97.8l-1.3-6.7l-4.4-22.4c-0.7-3.1-2.9-4-5.7-4.1H32.3l-0.2,1c5,1.3,9.4,3.1,13.2,5.4l11.2,42.3
			h13.3l19.8-48.7C89.6,64.6,76.3,64.6,76.3,64.6z"/>
		<path class="st3" d="M167.7,64.6c-3,0-5.3,0.9-6.6,4l-18.7,44.6h13.3c0,0,2.1-5.9,2.6-7.2h16c0.4,1.7,1.5,7.2,1.5,7.2h11.7
			l-10.1-48.7L167.7,64.6L167.7,64.6z M161.9,96c1-2.8,5-13.7,5-13.7c-0.1,0.1,1-2.9,1.7-4.7l0.9,4.2c0,0,2.4,11.7,2.9,14.1
			L161.9,96L161.9,96z"/>
	</g>
</g>
</svg>
