<?xml version="1.0" encoding="utf-8"?>
<!-- Generator: Adobe Illustrator 24.1.0, SVG Export Plug-In . SVG Version: 6.00 Build 0)  -->
<svg version="1.1" id="Layer_1" xmlns="http://www.w3.org/2000/svg" xmlns:xlink="http://www.w3.org/1999/xlink" x="0px" y="0px"
	 viewBox="0 0 390 245" style="enable-background:new 0 0 390 245;" xml:space="preserve">
<g>
	<linearGradient id="SVGID_1_" gradientUnits="userSpaceOnUse" x1="194.9665" y1="110.8184" x2="195.7875" y2="397.1776">
		<stop  offset="0.1604" style="stop-color:#FFFFFF"/>
		<stop  offset="0.2556" style="stop-color:#FBFBFB"/>
		<stop  offset="0.3599" style="stop-color:#EDEDED"/>
		<stop  offset="0.4685" style="stop-color:#D7D7D7"/>
		<stop  offset="0.58" style="stop-color:#B9B9B9"/>
		<stop  offset="0.6938" style="stop-color:#919191"/>
		<stop  offset="0.8095" style="stop-color:#616161"/>
		<stop  offset="0.9246" style="stop-color:#292929"/>
		<stop  offset="1" style="stop-color:#000000"/>
	</linearGradient>
	<path style="fill:url(#SVGID_1_);" d="M16,242c-7.168,0-13-5.832-13-13V16C3,8.832,8.832,3,16,3h358c7.168,0,13,5.832,13,13v213
		c0,7.168-5.832,13-13,13H16z"/>
	<path style="fill:#333333;" d="M374,6c5.514,0,10,4.486,10,10v213c0,5.514-4.486,10-10,10H16c-5.514,0-10-4.486-10-10V16
		c0-5.514,4.486-10,10-10H374 M374,0H16C7.163,0,0,7.163,0,16v213c0,8.837,7.163,16,16,16h358c8.837,0,16-7.163,16-16V16
		C390,7.163,382.837,0,374,0L374,0z"/>
</g>
<g>
	<circle style="fill:#333333;" cx="48.885" cy="180.964" r="5.336"/>
	<circle style="fill:#333333;" cx="64.892" cy="180.964" r="5.336"/>
	<circle style="fill:#333333;" cx="80.898" cy="180.964" r="5.336"/>
	<circle style="fill:#333333;" cx="96.905" cy="180.964" r="5.336"/>
	<circle style="fill:#333333;" cx="128.325" cy="180.964" r="5.336"/>
	<circle style="fill:#333333;" cx="144.332" cy="180.964" r="5.336"/>
	<circle style="fill:#333333;" cx="160.339" cy="180.964" r="5.336"/>
	<circle style="fill:#333333;" cx="176.345" cy="180.964" r="5.336"/>
	<circle style="fill:#333333;" cx="209.742" cy="180.964" r="5.336"/>
	<circle style="fill:#333333;" cx="225.749" cy="180.964" r="5.336"/>
	<circle style="fill:#333333;" cx="241.755" cy="180.964" r="5.336"/>
	<circle style="fill:#333333;" cx="257.762" cy="180.964" r="5.336"/>
	<circle style="fill:#333333;" cx="291.158" cy="180.964" r="5.336"/>
	<circle style="fill:#333333;" cx="307.165" cy="180.964" r="5.336"/>
	<circle style="fill:#333333;" cx="323.172" cy="179.964" r="5.336"/>
	<circle style="fill:#333333;" cx="339.178" cy="179.964" r="5.336"/>
</g>
<g>
	<g>
		<path style="fill:#F7931E;" d="M133.462,46.329c-8.133,0-16.116,2.452-22.873,6.907c-23.552,16.131-26.138,52.332,0,68.919
			c6.757,4.485,14.8,6.907,22.873,6.907c22.844,0.03,41.411-18.508,41.411-41.382C174.874,64.897,156.306,46.329,133.462,46.329z"/>
		<path style="fill:#ED1C24;" d="M82.333,129.092c8.133,0,16.116-2.452,22.873-6.907c25.788-19.203,23.202-52.819,0-68.919
			c-6.757-4.485-14.741-6.907-22.873-6.907c-22.844-0.03-41.411,18.538-41.411,41.322C40.922,110.554,59.49,129.092,82.333,129.092z
			"/>
		<path style="fill:#F15A24;" d="M107.898,120.212c21.079-16.445,20.99-48.498,0-65.032
			C86.908,71.714,86.818,103.797,107.898,120.212z"/>
	</g>
</g>
<g>
	<path style="fill:#551488;" d="M244.199,70.737c0,9.74-5.853,14.472-11.847,14.472c-3.485,0-6.365-1.623-8.223-4.639v3.943h-6.556
		V48.562h6.556v13.403c1.44-2.413,4.227-4.917,8.781-4.917C238.11,57.05,244.199,61.41,244.199,70.737z M224.105,71.008
		c0,5.476,3.155,8.353,6.683,8.353c3.295,0,6.775-2.692,6.775-8.353c0-5.569-3.433-8.26-6.728-8.26
		C227.26,62.752,224.105,65.304,224.105,71.008z"/>
	<path style="fill:#551488;" d="M247.399,70.858c0-9.335,5.951-13.84,11.949-13.84c3.207,0,5.951,1.207,8.135,4.18v-3.437h6.556
		v26.752h-6.556v-3.762c-1.859,2.508-4.695,4.458-8.879,4.458C253.397,85.209,247.399,80.658,247.399,70.858z M254.084,71.152
		c0,5.71,3.434,8.214,6.729,8.214c3.573,0,6.728-2.366,6.728-8.214c0-5.662-3.155-8.4-6.683-8.4
		C257.564,62.752,254.084,65.351,254.084,71.152z"/>
	<path style="fill:#551488;" d="M286.939,69.244v15.269h-6.556V57.761h6.556v3.947c1.859-3.386,5.297-4.69,8.276-4.69
		c4.649,0,9.066,2.368,9.066,9.567v17.927h-6.556V69.106c0-4.456-2.185-6.08-5.068-6.08
		C289.356,63.026,286.939,64.974,286.939,69.244z"/>
	<path style="fill:#551488;" d="M310.307,48.562h6.45v21.553l9.475-12.354h7.338l-9.243,11.1l10.688,15.652h-7.333l-7.279-10.992
		l-3.646,4.405v6.587h-6.45V48.562z"/>
	<path style="fill:#551488;" d="M215.991,106.281c0-9.336,5.952-13.841,11.949-13.841c3.209,0,5.952,1.207,8.138,4.18v-3.437h6.556
		v26.752h-6.556v-3.762c-1.86,2.508-4.697,4.458-8.881,4.458C221.99,120.632,215.991,116.08,215.991,106.281z M222.666,106.658
		c0,5.71,3.434,8.214,6.729,8.214c3.573,0,6.729-2.366,6.729-8.214c0-5.662-3.156-8.4-6.683-8.4
		C226.147,98.258,222.666,100.857,222.666,106.658z"/>
	<path style="fill:#551488;" d="M263.597,118.073l-3.619-3.666c-0.418-0.464-0.882-0.789-1.439-0.789
		c-0.511,0-0.928,0.278-1.48,0.882l-8.586,9.094c-0.882,0.928-2.135,1.949-3.573,1.949c-1.438,0-2.459-1.02-2.459-2.366
		c0-1.163,0.789-2.228,1.764-3.202l8.905-9.42c2.321-2.459,3.992-2.831,5.337-2.831c1.3,0,2.97,0.278,5.569,2.924l3.526,3.619
		c0.928,0.975,1.857,2.042,1.857,3.384c0,1.342-0.928,2.368-2.413,2.368C265.779,120.023,264.85,119.373,263.597,118.073z
		 M253.249,95.011l3.619,3.666c0.423,0.464,0.882,0.789,1.439,0.789c0.51,0,0.927-0.278,1.48-0.882l8.585-9.094
		c0.882-0.928,2.135-1.949,3.574-1.949s2.46,1.02,2.46,2.366c0,1.163-0.789,2.228-1.764,3.202l-8.91,9.421
		c-2.321,2.459-3.992,2.831-5.337,2.831c-1.3,0-2.97-0.278-5.569-2.924l-3.523-3.621c-0.927-0.975-1.856-2.043-1.856-3.384
		s0.928-2.368,2.413-2.368C251.067,93.06,251.996,93.71,253.249,95.011z"/>
	<path style="fill:#551488;" d="M278.685,107.987c0.423,4.177,2.831,6.915,7.1,6.915c4.037,0,5.661-1.624,6.172-4.177l5.94,0.928
		c-1.021,6.172-6.961,9.003-11.881,9.003c-7.889,0-14.015-5.337-14.015-14.154c0-8.585,5.754-14.015,13.365-14.015
		c7.147,0,12.251,5.568,12.251,13.457v2.042L278.685,107.987z M278.819,103.335h12.484c-0.556-3.852-3.109-5.338-6.219-5.338
		C281.882,97.997,279.608,99.622,278.819,103.335z"/>
	<path style="fill:#551488;" d="M309.144,93.184v3.73c0,0,4.667-4.408,8.802-4.408c5.198,0,11.277,4.362,11.277,13.69
		c0,9.745-5.847,14.479-11.833,14.479c-3.203,0-6.034-1.253-8.14-4.223v12.789h-6.662V93.184H309.144z M309.17,106.518
		c0,5.476,3.156,8.353,6.683,8.353c3.341,0,6.776-2.692,6.776-8.353c0-5.569-3.434-8.26-6.729-8.26
		C312.326,98.258,309.17,100.81,309.17,106.518z"/>
	<path style="fill:#551488;" d="M336.108,93.289v-6.493l6.556-0.93v7.423h6.556v5.393h-6.556v12.947
		c0,1.903,0.605,2.877,2.604,2.877c1.209,0,2.324-0.186,3.581-0.464l0.929,5.059c-1.581,0.696-4.092,1.346-6.417,1.346
		c-5.532,0-7.253-3.156-7.253-7.147V98.682h-4.547v-5.393H336.108z"/>
</g>
</svg>
