<svg id="Layer_1" data-name="Layer 1" xmlns="http://www.w3.org/2000/svg" viewBox="0 0 366.75 198.24"><defs><style>.cls-1{fill:#231f20;}.cls-2{fill:none;}</style></defs><g id="Logo"><path class="cls-1" d="M21.9,58C15.29,58,10.61,56.85,8,55.3L7.91,4.24,19,4.21,19,21.72a15.92,15.92,0,0,1,7.09-1.37c9,0,15.3,6.86,15.33,17.62C41.49,50.75,34.47,57.94,21.9,58ZM23,26.38a8.11,8.11,0,0,0-4,.82l.06,23.88a9.78,9.78,0,0,0,3.4.53c5.62,0,8-4.76,8-12.94C30.5,31.57,28.92,26.36,23,26.38Z"/><path class="cls-1" d="M62.09,57.87C51,57.9,45.33,54,45.31,46.41c0-9.4,9.84-12.2,21.34-13.25V31.47c0-3.79-2.72-4.86-6.76-4.85A26.29,26.29,0,0,0,50,28.88l-2.43-6a38.27,38.27,0,0,1,14.41-2.81C70.59,20,77,23.46,77,33.34l.06,21.78C73.88,56.75,68.7,57.85,62.09,57.87ZM66.66,38c-6.67.62-11,2.12-11,7.94,0,4.26,2.58,6.08,7,6.06a9.63,9.63,0,0,0,4.05-.75Z"/><path class="cls-1" d="M105.49,57.08l-.07-25.5c0-2.58-1.22-5.08-5.69-5.06a13.78,13.78,0,0,0-4.69.75l.08,29.83L84,57.13,84,22.7C87.78,21.07,93.18,20,100,20c12.14,0,16.5,4.89,16.51,11.52l.07,25.57Z"/><path class="cls-1" d="M145.63,57,134.85,38.6h-.14l0,18.4-11,0-.14-53.1,11,0,.08,32.74h.14l10.68-16.13,11.08,0-12,16.4,14,20.23Z"/><path class="cls-1" d="M7.14,95.24l14.34-22a121.48,121.48,0,0,1,14.17-.91c15.64,0,24.44,3.2,28.86,10.36,2.45,4.07,2.79,6.19,2.82,16.77l.08,31.44c0,10.59.68,13.85,4,19.39l-27.2.07v-4.89L39,150a24.84,24.84,0,0,1-11.57,2.31c-14.83,0-24.13-7.92-24.17-20.78a21.86,21.86,0,0,1,5-14.19c3.25-3.76,7.8-6.38,16.59-9.66L44,100.82c0-10.92-2.49-14-11.28-14C26.61,86.86,18.07,89.61,7.14,95.24Zm37.27,20.34-13.69,0c-3.73,3.1-5,5.87-5,10.27,0,6.35,4.1,10.41,10.45,10.4a11.24,11.24,0,0,0,8.3-3.28Z"/><path class="cls-1" d="M154.59,150.16c-4.57-3.42-7.19-6.5-11.28-13.33l-15.75-25.67h0l24.05-36.92-26.21.07a11,11,0,0,1,.65,2.94c0,1.47-.81,3.26-2.27,5.7L117,94.05l-6.71-11.39c-2-3.09-2.62-4.88-2.62-6.51a4.23,4.23,0,0,1,.32-1.79l-32.1.08c5.06,3.9,6,5.2,11.12,13.17L102.44,112,87.19,135.67c-5,7.67-7,10.12-11.86,14.7l26.74-.07,12-18.44h0l5.94,9.75c2,3.42,2.78,5.37,2.79,6.68a8.75,8.75,0,0,1-.16,2Z"/><path class="cls-1" d="M189,152c-24.43.07-38.8-13.74-38.87-37.85-.06-24.77,16.18-42.08,39.64-42.14,20.85-.06,31.8,12.46,31.86,36.57,0,1.8,0,4.41-.14,8L175,116.7c2.16,12.38,8.84,18.22,20.74,18.19,7.45,0,14.43-2,25.1-7.17l-14.37,22.07A60.79,60.79,0,0,1,189,152Zm-14.15-51.44,23.3-.06c0-9-4.27-14.16-11.11-14.14S176,91.45,174.83,100.57Z"/><path class="cls-1" d="M232.39,195.07l-.27-101.94c0-10.43-.69-13.52-3.8-19L255.37,74l0,7L263,74.47c4.55-2.13,6.67-2.62,10.58-2.63,16.94,0,29,14.59,29.09,35.12.07,25.74-16.18,42.89-40.45,43l-6.68,0,0,9.51-9.31,14.31Zm23.14-60.94a20.53,20.53,0,0,0,7.82,1.61c10.1,0,15.46-8.19,15.42-24,0-14.83-4.79-22.64-13.91-22.62-3.1,0-5.87,1-9.44,3.12Z"/><path class="cls-1" d="M347.68,88.59l9.75-15v0l-18.57.05-.09-34.38L306.45,88.86l9.15,0,.1,37c0,10.11,1.18,14.5,5.1,18.73,3.92,4.55,10.12,6.65,17.94,6.63a35.85,35.85,0,0,0,12.43-2l12.54-19.25.06-.14c-7,4.25-10.57,5.57-15,5.58-6.52,0-9.79-3.4-9.64-10.57l-.1-36.17Z"/></g><rect class="cls-2" width="366.75" height="198.24"/></svg>