<?xml version="1.0" encoding="utf-8"?>
<!-- Generator: Adobe Illustrator 24.1.0, SVG Export Plug-In . SVG Version: 6.00 Build 0)  -->
<svg version="1.1" id="Layer_1" xmlns="http://www.w3.org/2000/svg" xmlns:xlink="http://www.w3.org/1999/xlink" x="0px" y="0px"
	 viewBox="0 0 366.8 198.2" style="enable-background:new 0 0 366.8 198.2;" xml:space="preserve">
<style type="text/css">
	.st0{fill:#FFFFFF;}
	.st1{fill:none;}
</style>
<g id="Logo">
	<path class="st0" d="M21.9,58c-6.6,0-11.3-1.2-13.9-2.7L7.9,4.2l11.1,0v17.5c2.2-1,4.7-1.5,7.1-1.4c9,0,15.3,6.9,15.3,17.6
		C41.5,50.8,34.5,57.9,21.9,58z M23,26.4c-1.4-0.1-2.8,0.2-4,0.8l0.1,23.9c1.1,0.4,2.2,0.6,3.4,0.5c5.6,0,8-4.8,8-12.9
		C30.5,31.6,28.9,26.4,23,26.4z"/>
	<path class="st0" d="M62.1,57.9C51,57.9,45.3,54,45.3,46.4c0-9.4,9.8-12.2,21.3-13.2v-1.7c0-3.8-2.7-4.9-6.8-4.9
		c-3.4,0.1-6.8,0.9-9.9,2.3l-2.4-6C52.1,21,57,20.1,62,20.1c8.6-0.1,15,3.4,15,13.3l0.1,21.8C73.9,56.8,68.7,57.8,62.1,57.9z
		 M66.7,38c-6.7,0.6-11,2.1-11,7.9c0,4.3,2.6,6.1,7,6.1c1.4,0,2.8-0.2,4.1-0.8L66.7,38z"/>
	<path class="st0" d="M105.5,57.1l-0.1-25.5c0-2.6-1.2-5.1-5.7-5.1c-1.6,0-3.2,0.2-4.7,0.8l0.1,29.8l-11.1,0V22.7
		c3.8-1.6,9.2-2.7,16-2.7c12.1,0,16.5,4.9,16.5,11.5l0.1,25.6L105.5,57.1z"/>
	<path class="st0" d="M145.6,57l-10.8-18.4h-0.1V57h-11l-0.1-53.1h11l0.1,32.7h0.1l10.7-16.1h11.1l-12,16.4l14,20.2L145.6,57z"/>
	<path class="st0" d="M7.1,95.2l14.3-22c4.7-0.6,9.4-0.9,14.2-0.9c15.6,0,24.4,3.2,28.9,10.4c2.4,4.1,2.8,6.2,2.8,16.8l0.1,31.4
		c0,10.6,0.7,13.9,4,19.4l-27.2,0.1v-4.9L39,150c-3.6,1.7-7.6,2.5-11.6,2.3c-14.8,0-24.1-7.9-24.2-20.8c-0.1-5.2,1.7-10.2,5-14.2
		c3.2-3.8,7.8-6.4,16.6-9.7l19.1-6.9c0-10.9-2.5-14-11.3-14C26.6,86.9,18.1,89.6,7.1,95.2z M44.4,115.6H30.7c-3.7,3.1-5,5.9-5,10.3
		c0,6.4,4.1,10.4,10.5,10.4c3.1,0.1,6.1-1.1,8.3-3.3L44.4,115.6z"/>
	<path class="st0" d="M154.6,150.2c-4.6-3.4-7.2-6.5-11.3-13.3l-15.8-25.7l0,0l24.1-36.9l-26.2,0.1c0.4,0.9,0.6,1.9,0.7,2.9
		c0,1.5-0.8,3.3-2.3,5.7L117,94.1l-6.7-11.4c-2-3.1-2.6-4.9-2.6-6.5c0-0.6,0.1-1.2,0.3-1.8l-32.1,0.1c5.1,3.9,6,5.2,11.1,13.2
		l15.4,24.4l-15.2,23.7c-5,7.7-7,10.1-11.9,14.7l26.7-0.1l12-18.4l0,0l5.9,9.8c2,3.4,2.8,5.4,2.8,6.7c0,0.7,0,1.3-0.2,2L154.6,150.2
		z"/>
	<path class="st0" d="M189,152c-24.4,0.1-38.8-13.7-38.9-37.8c-0.1-24.8,16.2-42.1,39.6-42.1c20.9-0.1,31.8,12.5,31.9,36.6
		c0,1.8,0,4.4-0.1,8l-46.5,0.1c2.2,12.4,8.8,18.2,20.7,18.2c7.4,0,14.4-2,25.1-7.2l-14.4,22.1C200.8,151.4,194.9,152.1,189,152z
		 M174.9,100.6l23.3-0.1c0-9-4.3-14.2-11.1-14.1S176,91.4,174.9,100.6L174.9,100.6z"/>
	<path class="st0" d="M232.4,195.1l-0.3-101.9c0-10.4-0.7-13.5-3.8-19l27.1-0.1v7l7.6-6.5c4.5-2.1,6.7-2.6,10.6-2.6
		c16.9,0,29,14.6,29.1,35.1c0.1,25.7-16.2,42.9-40.5,43h-6.7v9.5l-9.3,14.3L232.4,195.1z M255.5,134.1c2.5,1,5.1,1.6,7.8,1.6
		c10.1,0,15.5-8.2,15.4-24c0-14.8-4.8-22.6-13.9-22.6c-3.1,0-5.9,1-9.4,3.1L255.5,134.1z"/>
	<path class="st0" d="M347.7,88.6l9.8-15l0,0l-18.6,0.1l-0.1-34.4l-32.3,49.6h9.1l0.1,37c0,10.1,1.2,14.5,5.1,18.7
		c3.9,4.6,10.1,6.6,17.9,6.6c4.2,0.1,8.4-0.6,12.4-2l12.5-19.2l0.1-0.1c-7,4.2-10.6,5.6-15,5.6c-6.5,0-9.8-3.4-9.6-10.6L339,88.7
		L347.7,88.6z"/>
</g>
<rect class="st1" width="366.8" height="198.2"/>
</svg>
